<svg xmlns="http://www.w3.org/2000/svg" xmlns:xlink="http://www.w3.org/1999/xlink" width="85.789" height="14.127" viewBox="0 0 85.789 14.127"><defs><clipPath id="a"><rect width="85.789" height="14.127" fill="none"/></clipPath><clipPath id="b"><rect width="14.789" height="14.127" fill="none"/></clipPath></defs><g clip-path="url(#a)"><g transform="translate(-93 -431)"><g transform="translate(93 431)" clip-path="url(#b)"><g transform="translate(-93 -431)"><g transform="translate(93 431)"><g transform="translate(0 0)"><path d="M10.395,5a.632.632,0,0,0-.6.431L8.308,9.871l-4.682.042a.632.632,0,0,0-.37,1.14l3.763,2.786L5.612,18.305a.632.632,0,0,0,.97.7l3.812-2.718,3.813,2.718a.632.632,0,0,0,.97-.7L13.77,13.839l3.763-2.786a.632.632,0,0,0-.371-1.14l-4.682-.042-1.487-4.44a.632.632,0,0,0-.6-.431" transform="translate(-3 -5)" fill="#fe9554" fill-rule="evenodd"/></g></g></g></g><g transform="translate(93 431)" clip-path="url(#b)"><g transform="translate(-93 -431)"><g transform="translate(93 431)"><g transform="translate(0 0)"><path d="M10.395,5a.632.632,0,0,0-.6.431L8.308,9.871l-4.682.042a.632.632,0,0,0-.37,1.14l3.763,2.786L5.612,18.305a.632.632,0,0,0,.97.7l3.812-2.718,3.813,2.718a.632.632,0,0,0,.97-.7L13.77,13.839l3.763-2.786a.632.632,0,0,0-.371-1.14l-4.682-.042-1.487-4.44a.632.632,0,0,0-.6-.431" transform="translate(-3 -5)" fill="#fe9554" fill-rule="evenodd"/></g></g></g></g></g><g transform="translate(-75 -431)"><g transform="translate(93 431)" clip-path="url(#b)"><g transform="translate(-93 -431)"><g transform="translate(93 431)"><g transform="translate(0 0)"><path d="M10.395,5a.632.632,0,0,0-.6.431L8.308,9.871l-4.682.042a.632.632,0,0,0-.37,1.14l3.763,2.786L5.612,18.305a.632.632,0,0,0,.97.7l3.812-2.718,3.813,2.718a.632.632,0,0,0,.97-.7L13.77,13.839l3.763-2.786a.632.632,0,0,0-.371-1.14l-4.682-.042-1.487-4.44a.632.632,0,0,0-.6-.431" transform="translate(-3 -5)" fill="#fe9554" fill-rule="evenodd"/></g></g></g></g><g transform="translate(93 431)" clip-path="url(#b)"><g transform="translate(-93 -431)"><g transform="translate(93 431)"><g transform="translate(0 0)"><path d="M10.395,5a.632.632,0,0,0-.6.431L8.308,9.871l-4.682.042a.632.632,0,0,0-.37,1.14l3.763,2.786L5.612,18.305a.632.632,0,0,0,.97.7l3.812-2.718,3.813,2.718a.632.632,0,0,0,.97-.7L13.77,13.839l3.763-2.786a.632.632,0,0,0-.371-1.14l-4.682-.042-1.487-4.44a.632.632,0,0,0-.6-.431" transform="translate(-3 -5)" fill="#fe9554" fill-rule="evenodd"/></g></g></g></g></g><g transform="translate(-57 -431)"><g transform="translate(93 431)" clip-path="url(#b)"><g transform="translate(-93 -431)"><g transform="translate(93 431)"><g transform="translate(0 0)"><path d="M10.395,5a.632.632,0,0,0-.6.431L8.308,9.871l-4.682.042a.632.632,0,0,0-.37,1.14l3.763,2.786L5.612,18.305a.632.632,0,0,0,.97.7l3.812-2.718,3.813,2.718a.632.632,0,0,0,.97-.7L13.77,13.839l3.763-2.786a.632.632,0,0,0-.371-1.14l-4.682-.042-1.487-4.44a.632.632,0,0,0-.6-.431" transform="translate(-3 -5)" fill="#fe9554" fill-rule="evenodd"/></g></g></g></g><g transform="translate(93 431)" clip-path="url(#b)"><g transform="translate(-93 -431)"><g transform="translate(93 431)"><g transform="translate(0 0)"><path d="M10.395,5a.632.632,0,0,0-.6.431L8.308,9.871l-4.682.042a.632.632,0,0,0-.37,1.14l3.763,2.786L5.612,18.305a.632.632,0,0,0,.97.7l3.812-2.718,3.813,2.718a.632.632,0,0,0,.97-.7L13.77,13.839l3.763-2.786a.632.632,0,0,0-.371-1.14l-4.682-.042-1.487-4.44a.632.632,0,0,0-.6-.431" transform="translate(-3 -5)" fill="#fe9554" fill-rule="evenodd"/></g></g></g></g></g><g transform="translate(-39 -431)"><g transform="translate(93 431)" clip-path="url(#b)"><g transform="translate(-93 -431)"><g transform="translate(93 431)"><g transform="translate(0 0)"><path d="M10.395,5a.632.632,0,0,0-.6.431L8.308,9.871l-4.682.042a.632.632,0,0,0-.37,1.14l3.763,2.786L5.612,18.305a.632.632,0,0,0,.97.7l3.812-2.718,3.813,2.718a.632.632,0,0,0,.97-.7L13.77,13.839l3.763-2.786a.632.632,0,0,0-.371-1.14l-4.682-.042-1.487-4.44a.632.632,0,0,0-.6-.431" transform="translate(-3 -5)" fill="#fe9554" fill-rule="evenodd"/></g></g></g></g><g transform="translate(93 431)" clip-path="url(#b)"><g transform="translate(-93 -431)"><g transform="translate(93 431)"><g transform="translate(0 0)"><path d="M10.395,5a.632.632,0,0,0-.6.431L8.308,9.871l-4.682.042a.632.632,0,0,0-.37,1.14l3.763,2.786L5.612,18.305a.632.632,0,0,0,.97.7l3.812-2.718,3.813,2.718a.632.632,0,0,0,.97-.7L13.77,13.839l3.763-2.786a.632.632,0,0,0-.371-1.14l-4.682-.042-1.487-4.44a.632.632,0,0,0-.6-.431" transform="translate(-3 -5)" fill="#fe9554" fill-rule="evenodd"/></g></g></g></g></g><g transform="translate(-21 -431)"><g transform="translate(93 431)" clip-path="url(#b)"><g transform="translate(-93 -431)"><g transform="translate(93 431)"><g transform="translate(0 0)"><path d="M10.395,5a.632.632,0,0,0-.6.431L8.308,9.871l-4.682.042a.632.632,0,0,0-.37,1.14l3.763,2.786L5.612,18.305a.632.632,0,0,0,.97.7l3.812-2.718,3.813,2.718a.632.632,0,0,0,.97-.7L13.77,13.839l3.763-2.786a.632.632,0,0,0-.371-1.14l-4.682-.042-1.487-4.44a.632.632,0,0,0-.6-.431" transform="translate(-3 -5)" fill="#a4a4a4" fill-rule="evenodd"/></g></g></g></g><g transform="translate(93 431)" clip-path="url(#b)"><g transform="translate(-93 -431)"><g transform="translate(93 431)"><g transform="translate(0 0)"><path d="M10.395,5a.632.632,0,0,0-.6.431L8.308,9.871l-4.682.042a.632.632,0,0,0-.37,1.14l3.763,2.786L5.612,18.305a.632.632,0,0,0,.97.7l3.812-2.718,3.813,2.718a.632.632,0,0,0,.97-.7L13.77,13.839l3.763-2.786a.632.632,0,0,0-.371-1.14l-4.682-.042-1.487-4.44a.632.632,0,0,0-.6-.431" transform="translate(-3 -5)" fill="#fe9554" fill-rule="evenodd"/></g></g></g></g></g></g></svg>