<svg xmlns="http://www.w3.org/2000/svg" xmlns:xlink="http://www.w3.org/1999/xlink" width="40" height="40" viewBox="0 0 40 40">
  <defs>
    <clipPath id="clip-path">
      <rect width="40" height="40" fill="none"/>
    </clipPath>
  </defs>
  <g id="ic_next" clip-path="url(#clip-path)">
    <g id="Path_317" data-name="Path 317" fill="#fff">
      <path d="M20,0A20,20,0,1,1,0,20,20,20,0,0,1,20,0Z" stroke="none"/>
      <path d="M 20 1 C 17.4345703125 1 14.94642066955566 1.502220153808594 12.60465049743652 2.492698669433594 C 10.34226036071777 3.449611663818359 8.310220718383789 4.819721221923828 6.564968109130859 6.564968109130859 C 4.819721221923828 8.310220718383789 3.449611663818359 10.34226036071777 2.492698669433594 12.60465049743652 C 1.502220153808594 14.94642066955566 1 17.4345703125 1 20 C 1 22.5654296875 1.502220153808594 25.05358123779297 2.492698669433594 27.39535140991211 C 3.449611663818359 29.65773963928223 4.819721221923828 31.68978118896484 6.564968109130859 33.43502807617188 C 8.310220718383789 35.18027877807617 10.34226036071777 36.55038833618164 12.60465049743652 37.50730133056641 C 14.94642066955566 38.49777984619141 17.4345703125 39 20 39 C 22.5654296875 39 25.05358123779297 38.49777984619141 27.39535140991211 37.50730133056641 C 29.65773963928223 36.55038833618164 31.68978118896484 35.18027877807617 33.43502807617188 33.43502807617188 C 35.18027877807617 31.68978118896484 36.55038833618164 29.65773963928223 37.50730133056641 27.39535140991211 C 38.49777984619141 25.05358123779297 39 22.5654296875 39 20 C 39 17.4345703125 38.49777984619141 14.94642066955566 37.50730133056641 12.60465049743652 C 36.55038833618164 10.34226036071777 35.18027877807617 8.310220718383789 33.43502807617188 6.564968109130859 C 31.68978118896484 4.819721221923828 29.65773963928223 3.449611663818359 27.39535140991211 2.492698669433594 C 25.05358123779297 1.502220153808594 22.5654296875 1 20 1 M 20 0 C 31.04570007324219 0 40 8.954299926757813 40 20 C 40 31.04570007324219 31.04570007324219 40 20 40 C 8.954299926757813 40 0 31.04570007324219 0 20 C 0 8.954299926757813 8.954299926757813 0 20 0 Z" stroke="none" fill="rgba(0,0,0,0.38)"/>
    </g>
    <g id="noun_down_2367385" transform="translate(-223.082 49.022) rotate(-90)">
      <g id="Group_7" data-name="Group 7" transform="translate(21.356 239.082)">
        <g id="Group_6" data-name="Group 6" transform="translate(0 0)">
          <path id="Path_18" data-name="Path 18" d="M35.116,236.733l-.673.673-1.61,1.611-1.947,1.947L29.2,242.645c-.272.272-.549.542-.819.819l-.011.011H29.7l-.673-.673-1.61-1.611-1.947-1.947-1.682-1.682c-.272-.272-.543-.548-.819-.819l-.011-.011a.967.967,0,0,0-.664-.275.941.941,0,0,0-.939.939.977.977,0,0,0,.275.664l.673.673,1.61,1.611,1.947,1.947,1.682,1.682c.272.272.543.548.819.819l.011.011a.954.954,0,0,0,1.329,0l.673-.673,1.61-1.611,1.947-1.947,1.682-1.682c.272-.272.548-.543.819-.819l.011-.011a.967.967,0,0,0,.275-.664.941.941,0,0,0-.939-.939.983.983,0,0,0-.667.275Z" transform="translate(-21.356 -236.456)" fill="#323c4f"/>
        </g>
      </g>
    </g>
  </g>
</svg>
