<svg xmlns="http://www.w3.org/2000/svg" xmlns:xlink="http://www.w3.org/1999/xlink" width="63" height="62.897" viewBox="0 0 63 62.897"><defs><clipPath id="a"><rect width="63" height="62.897" fill="none"/></clipPath></defs><g clip-path="url(#a)"><path d="M98.9,68.509l4.024,4.61,6.018-2.562a1.8,1.8,0,0,1,2.409,1.129l1.836,5.941,6.528.116a1.8,1.8,0,0,1,1.751,2.009l-.726,6.183,5.918,2.771a1.8,1.8,0,0,1,.864,2.391c-.807,1.677-2.267,3.839-3.255,5.5l4.286,4.953a1.811,1.811,0,0,1-.324,2.649l-5.063,3.591,1.908,6.271a1.8,1.8,0,0,1-1.372,2.286l-6.072,1.214-.8,6.5a1.8,1.8,0,0,1-2.31,1.507l-5.92-1.347-3.364,5.614a1.794,1.794,0,0,1-2.612.519l-4.973-3.725-5.35,3.757a1.788,1.788,0,0,1-2.592-.6l-3.025-5.424-6.419,1.251A1.8,1.8,0,0,1,78.14,123.9l-.555-6.086-6.362-1.476a1.8,1.8,0,0,1-1.3-2.334l1.995-5.891L66.7,104.17a1.807,1.807,0,0,1-.133-2.766l4.111-4.46L67.516,91.21a1.8,1.8,0,0,1,.865-2.53l5.688-2.451L73.5,79.7a1.809,1.809,0,0,1,1.971-1.951l6.04.082,2.129-6.2a1.8,1.8,0,0,1,2.542-1.008l5.539,2.565,4.454-4.79A1.792,1.792,0,0,1,98.9,68.509ZM82.785,99.955c-2.382-2.39,1.24-6.026,3.623-3.636l8.023,8.053,14.05-15.629c2.247-2.506,6.051.927,3.8,3.435L96.513,109.721a2.556,2.556,0,0,1-3.8.2Z" transform="translate(-65.989 -67.821)" fill="#21c179" fill-rule="evenodd"/></g></svg>