<svg xmlns="http://www.w3.org/2000/svg" xmlns:xlink="http://www.w3.org/1999/xlink" width="331.89" height="174.151" viewBox="0 0 331.89 174.151"><defs><linearGradient id="a" x1="0.5" y1="1" x2="0.5" gradientUnits="objectBoundingBox"><stop offset="0" stop-color="gray" stop-opacity="0.251"/><stop offset="0.54" stop-color="gray" stop-opacity="0.122"/><stop offset="1" stop-color="gray" stop-opacity="0.102"/></linearGradient><linearGradient id="b" x1="0.5" y1="1" x2="0.5" y2="-0.001" xlink:href="#a"/></defs><g transform="translate(0 0.359)"><g transform="translate(128.743 11.754)" opacity="0.1"><ellipse cx="3.446" cy="4.512" rx="3.446" ry="4.512" transform="translate(12.988 93.141)" fill="#3f3d56"/><path d="M526.186,444.261a5.451,5.451,0,0,0,.721-2.759c0-2.492-1.544-4.512-3.449-4.512S520,439.016,520,441.508a5.451,5.451,0,0,0,.721,2.759,5.635,5.635,0,0,0,0,5.514,5.635,5.635,0,0,0,0,5.514,5.432,5.432,0,0,0-.721,2.759c0,2.489,1.544,4.512,3.446,4.512s3.449-2.023,3.449-4.512a5.433,5.433,0,0,0-.721-2.759,5.636,5.636,0,0,0,0-5.514,5.636,5.636,0,0,0,0-5.514Z" transform="translate(-507.023 -365.913)" fill="#3f3d56"/><ellipse cx="3.446" cy="4.512" rx="3.446" ry="4.512" transform="translate(12.988 65.569)" fill="#3f3d56"/><ellipse cx="3.446" cy="4.512" rx="3.446" ry="4.512" transform="translate(12.988 60.055)" fill="#3f3d56"/><path d="M480.683,229.1a16.074,16.074,0,0,1-1.284-1.89l9.054-1.487-9.793.073a16.54,16.54,0,0,1-.3-13.082l13.139,6.816-12.113-8.909a16.513,16.513,0,1,1,27.254,18.472,16.514,16.514,0,0,1,1.883,3.01l-11.758,6.123,12.534-4.206a16.513,16.513,0,0,1-2.662,15.5,16.51,16.51,0,1,1-25.952,0,16.51,16.51,0,0,1,0-20.416Z" transform="translate(-477.149 -202.271)" fill="#fe9554"/><path d="M510.169,324.01a16.434,16.434,0,0,1-3.534,10.208,16.51,16.51,0,1,1-25.952,0C478.47,331.408,510.169,322.156,510.169,324.01Z" transform="translate(-477.149 -286.975)" opacity="0.1"/></g><g transform="translate(173.128 26.844)" opacity="0.1"><ellipse cx="2.577" cy="3.37" rx="2.577" ry="3.37" transform="translate(9.705 69.545)" fill="#3f3d56"/><path d="M660.374,432.753a4.066,4.066,0,0,0,.536-2.059c0-1.862-1.154-3.373-2.574-3.373s-2.577,1.514-2.577,3.373a4.036,4.036,0,0,0,.539,2.059,4.209,4.209,0,0,0,0,4.121,4.209,4.209,0,0,0,0,4.121,4.036,4.036,0,0,0-.539,2.059c0,1.862,1.154,3.373,2.577,3.373s2.574-1.514,2.574-3.373a4.066,4.066,0,0,0-.536-2.059,4.239,4.239,0,0,0,0-4.121A4.239,4.239,0,0,0,660.374,432.753Z" transform="translate(-646.057 -374.261)" fill="#3f3d56"/><ellipse cx="2.577" cy="3.37" rx="2.577" ry="3.37" transform="translate(9.705 48.941)" fill="#3f3d56"/><ellipse cx="2.577" cy="3.37" rx="2.577" ry="3.37" transform="translate(9.705 44.819)" fill="#3f3d56"/><path d="M626.361,272.091a11.8,11.8,0,0,1-.96-1.411l6.768-1.111-7.319.054a12.367,12.367,0,0,1-.236-9.778l9.82,5.1-9.057-6.662a12.34,12.34,0,1,1,20.377,13.809,12.475,12.475,0,0,1,1.408,2.25L638.38,278.9l9.366-3.143a12.343,12.343,0,0,1-1.99,11.586,12.337,12.337,0,1,1-19.38,0,12.337,12.337,0,0,1,0-15.256Z" transform="translate(-623.72 -252.103)" fill="#fe9554"/><path d="M648.407,342.882a12.286,12.286,0,0,1-2.641,7.628,12.337,12.337,0,1,1-19.38,0C624.727,348.411,648.407,341.5,648.407,342.882Z" transform="translate(-623.734 -315.266)" opacity="0.1"/></g><g transform="translate(297.835 -0.359)" opacity="0.1"><ellipse cx="3.446" cy="4.512" rx="3.446" ry="4.512" transform="translate(13.221 93.141)" fill="#3f3d56"/><path d="M1079.91,404.261a5.451,5.451,0,0,1-.721-2.759c0-2.492,1.544-4.512,3.449-4.512s3.446,2.02,3.446,4.512a5.451,5.451,0,0,1-.721,2.759,5.636,5.636,0,0,1,0,5.514,5.636,5.636,0,0,1,0,5.514,5.432,5.432,0,0,1,.721,2.759c0,2.489-1.544,4.512-3.446,4.512s-3.449-2.023-3.449-4.512a5.432,5.432,0,0,1,.721-2.759,5.635,5.635,0,0,1,0-5.514A5.635,5.635,0,0,1,1079.91,404.261Z" transform="translate(-1065.972 -325.913)" fill="#3f3d56"/><ellipse cx="3.446" cy="4.512" rx="3.446" ry="4.512" transform="translate(13.221 65.569)" fill="#3f3d56"/><ellipse cx="3.446" cy="4.512" rx="3.446" ry="4.512" transform="translate(13.221 60.055)" fill="#3f3d56"/><path d="M1065.108,189.1a16.048,16.048,0,0,0,1.284-1.89l-9.054-1.487,9.793.073a16.54,16.54,0,0,0,.3-13.082l-13.139,6.816,12.113-8.909a16.513,16.513,0,1,0-27.254,18.472,16.517,16.517,0,0,0-1.883,3.01l11.758,6.123-12.534-4.206a16.512,16.512,0,0,0,2.662,15.5,16.51,16.51,0,1,0,25.952,0,16.51,16.51,0,0,0,0-20.416Z" transform="translate(-1035.541 -162.271)" fill="#fe9554"/><path d="M1035.809,284.01a16.436,16.436,0,0,0,3.534,10.208,16.51,16.51,0,1,0,25.952,0C1067.509,291.408,1035.809,282.157,1035.809,284.01Z" transform="translate(-1035.728 -246.975)" opacity="0.1"/></g><g transform="translate(268.83 25.027)" opacity="0.1"><ellipse cx="2.577" cy="3.37" rx="2.577" ry="3.37" transform="translate(9.828 69.545)" fill="#3f3d56"/><path d="M972.765,426.753a4.067,4.067,0,0,1-.536-2.059c0-1.862,1.154-3.373,2.574-3.373s2.577,1.514,2.577,3.373a4.036,4.036,0,0,1-.539,2.059,4.209,4.209,0,0,1,0,4.121,4.209,4.209,0,0,1,0,4.121,4.036,4.036,0,0,1,.539,2.059c0,1.862-1.154,3.373-2.577,3.373s-2.574-1.514-2.574-3.373a4.067,4.067,0,0,1,.536-2.059,4.239,4.239,0,0,1,0-4.121,4.239,4.239,0,0,1,0-4.121Z" transform="translate(-962.396 -368.261)" fill="#3f3d56"/><ellipse cx="2.577" cy="3.37" rx="2.577" ry="3.37" transform="translate(9.828 48.941)" fill="#3f3d56"/><ellipse cx="2.577" cy="3.37" rx="2.577" ry="3.37" transform="translate(9.828 44.819)" fill="#3f3d56"/><path d="M961.8,266.091a11.8,11.8,0,0,0,.96-1.411l-6.768-1.111,7.319.055a12.367,12.367,0,0,0,.236-9.778l-9.82,5.1,9.057-6.662a12.34,12.34,0,1,0-20.377,13.809,12.473,12.473,0,0,0-1.408,2.25l8.782,4.564-9.348-3.14a12.343,12.343,0,0,0,1.99,11.586,12.337,12.337,0,1,0,19.38,0,12.337,12.337,0,0,0,0-15.256Z" transform="translate(-939.756 -246.103)" fill="#fe9554"/><path d="M939.786,336.882a12.285,12.285,0,0,0,2.641,7.628,12.337,12.337,0,1,0,19.38,0C963.466,342.411,939.786,335.5,939.786,336.882Z" transform="translate(-939.772 -309.266)" opacity="0.1"/></g><g transform="translate(2.213 -0.308)" opacity="0.1"><ellipse cx="3.446" cy="4.512" rx="3.446" ry="4.512" transform="translate(12.991 93.09)" fill="#3f3d56"/><path d="M108.381,404.261a5.451,5.451,0,0,0,.721-2.759c0-2.492-1.544-4.512-3.446-4.512s-3.446,2.02-3.446,4.512a5.451,5.451,0,0,0,.718,2.759,5.654,5.654,0,0,0,0,5.514,5.654,5.654,0,0,0,0,5.514,5.43,5.43,0,0,0-.718,2.759c0,2.489,1.541,4.512,3.446,4.512s3.455-2.017,3.455-4.506a5.433,5.433,0,0,0-.721-2.759,5.636,5.636,0,0,0,0-5.514,5.635,5.635,0,0,0,0-5.514Z" transform="translate(-89.218 -325.963)" fill="#3f3d56"/><ellipse cx="3.446" cy="4.512" rx="3.446" ry="4.512" transform="translate(12.991 65.518)" fill="#3f3d56"/><ellipse cx="3.446" cy="4.512" rx="3.446" ry="4.512" transform="translate(12.991 60.004)" fill="#3f3d56"/><path d="M62.849,189.214a16.454,16.454,0,0,1-1.284-1.89l9.057-1.487-9.8.088a16.54,16.54,0,0,1-.3-13.082L73.66,179.66l-12.113-8.909A16.51,16.51,0,1,1,88.8,189.223a16.517,16.517,0,0,1,1.884,3.01l-11.761,6.108,12.537-4.206a16.531,16.531,0,0,1-2.665,15.5,16.51,16.51,0,1,1-25.952,0,16.51,16.51,0,0,1,0-20.416Z" transform="translate(-59.309 -162.439)" fill="#fe9554"/><path d="M92.329,284.01a16.434,16.434,0,0,1-3.534,10.208,16.51,16.51,0,1,1-25.952,0C60.63,291.408,92.329,282.157,92.329,284.01Z" transform="translate(-59.309 -247.026)" opacity="0.1"/></g><g transform="translate(39.633 25.027)" opacity="0.1"><ellipse cx="2.577" cy="3.37" rx="2.577" ry="3.37" transform="translate(9.705 69.545)" fill="#3f3d56"/><path d="M219.545,426.753a4.067,4.067,0,0,0,.536-2.059c0-1.862-1.151-3.373-2.574-3.373s-2.577,1.514-2.577,3.373a4.067,4.067,0,0,0,.539,2.059,4.209,4.209,0,0,0,0,4.121,4.209,4.209,0,0,0,0,4.121,4.067,4.067,0,0,0-.539,2.059c0,1.862,1.154,3.373,2.577,3.373s2.574-1.514,2.574-3.373a4.067,4.067,0,0,0-.536-2.059,4.239,4.239,0,0,0,0-4.121,4.239,4.239,0,0,0,0-4.121Z" transform="translate(-205.224 -368.261)" fill="#3f3d56"/><ellipse cx="2.577" cy="3.37" rx="2.577" ry="3.37" transform="translate(9.705 48.941)" fill="#3f3d56"/><ellipse cx="2.577" cy="3.37" rx="2.577" ry="3.37" transform="translate(9.705 44.819)" fill="#3f3d56"/><path d="M185.521,266.091a12.175,12.175,0,0,1-.96-1.411l6.768-1.111-7.319.054a12.367,12.367,0,0,1-.236-9.778l9.82,5.1-9.057-6.662a12.34,12.34,0,1,1,20.377,13.809,12.15,12.15,0,0,1,1.408,2.25L197.54,272.9l9.366-3.143a12.343,12.343,0,0,1-1.99,11.586,12.337,12.337,0,1,1-19.38,0,12.337,12.337,0,0,1,0-15.256Z" transform="translate(-182.88 -246.103)" fill="#fe9554"/><path d="M207.567,336.882a12.285,12.285,0,0,1-2.641,7.628,12.337,12.337,0,1,1-19.38,0C183.881,342.411,207.567,335.5,207.567,336.882Z" transform="translate(-182.894 -309.266)" opacity="0.1"/></g><ellipse cx="165.945" cy="2.683" rx="165.945" ry="2.683" transform="translate(0 146.396)" fill="#fe9554" opacity="0.1"/><ellipse cx="165.945" cy="2.683" rx="165.945" ry="2.683" transform="translate(0 168.426)" fill="#fe9554" opacity="0.1"/><ellipse cx="165.945" cy="2.683" rx="165.945" ry="2.683" transform="translate(0 100.419)" fill="#fe9554" opacity="0.1"/><ellipse cx="165.945" cy="2.683" rx="165.945" ry="2.683" transform="translate(0 123.406)" fill="#fe9554" opacity="0.1"/><path d="M822.564,256.017a5.542,5.542,0,0,0-3.21.351,4.739,4.739,0,0,1-3.858,0,5.414,5.414,0,0,0-4.542.088,2.8,2.8,0,0,1-1.305.327c-1.841,0-3.37-1.853-3.688-4.3a3.6,3.6,0,0,0,.909-.99,5.168,5.168,0,0,1,9.227-.033,3.537,3.537,0,0,0,3.055,1.678h.048C820.68,253.125,821.949,254.3,822.564,256.017Z" transform="translate(-577.646 -222.845)" fill="#fe9554" opacity="0.1"/><path d="M828.155,232.6l-2.974,1.884L827,231.2a2.937,2.937,0,0,0-1.8-.639h-.048a3.437,3.437,0,0,1-.606-.045l-1.023.639.433-.787a3.571,3.571,0,0,1-1.765-1.338l-1.817,1.145,1.139-2.071a5.277,5.277,0,0,0-4.04-2.041,5.541,5.541,0,0,0-4.627,2.853,3.455,3.455,0,0,1-3.056,1.647h-.1c-2.071,0-3.749,2.347-3.749,5.242s1.678,5.245,3.749,5.245a2.844,2.844,0,0,0,1.305-.327,5.408,5.408,0,0,1,4.542-.091,4.709,4.709,0,0,0,3.858,0,5.427,5.427,0,0,1,4.5.088,2.816,2.816,0,0,0,1.29.321c2.071,0,3.749-2.35,3.749-5.245A6.64,6.64,0,0,0,828.155,232.6Z" transform="translate(-577.632 -207.102)" fill="#fe9554" opacity="0.1"/><path d="M416.516,255.7a3.888,3.888,0,0,0-2.25.245,3.306,3.306,0,0,1-2.7,0,3.779,3.779,0,0,0-3.177.064,2,2,0,0,1-.908.227c-1.287,0-2.359-1.3-2.583-3.007a2.52,2.52,0,0,0,.645-.693,3.619,3.619,0,0,1,6.459-.024,2.48,2.48,0,0,0,2.141,1.175h.033A2.684,2.684,0,0,1,416.516,255.7Z" transform="translate(-298.035 -224.169)" fill="#fe9554" opacity="0.1"/><path d="M420.424,239.319l-2.08,1.32,1.263-2.3a2.044,2.044,0,0,0-1.257-.448h-.036a2.267,2.267,0,0,1-.43-.033l-.706.448.3-.551a2.513,2.513,0,0,1-1.236-.936l-1.263.8.8-1.447a3.7,3.7,0,0,0-2.828-1.432,3.873,3.873,0,0,0-3.237,2,2.422,2.422,0,0,1-2.141,1.154h-.07c-1.451,0-2.625,1.641-2.625,3.67s1.175,3.67,2.625,3.67a1.968,1.968,0,0,0,.908-.23,3.785,3.785,0,0,1,3.174-.061,3.252,3.252,0,0,0,2.7.018,3.8,3.8,0,0,1,3.149.061,1.963,1.963,0,0,0,.908.224c1.447,0,2.622-1.644,2.622-3.67A4.643,4.643,0,0,0,420.424,239.319Z" transform="translate(-298.021 -213.154)" fill="#fe9554" opacity="0.1"/><path d="M321.59,334.113a3.882,3.882,0,0,1,2.247.245,3.313,3.313,0,0,0,2.7,0,3.791,3.791,0,0,1,3.177.061,1.961,1.961,0,0,0,.909.23c1.287,0,2.359-1.3,2.58-3.01a2.468,2.468,0,0,1-.642-.693,3.622,3.622,0,0,0-6.462-.021,2.48,2.48,0,0,1-2.138,1.175h-.033A2.7,2.7,0,0,0,321.59,334.113Z" transform="translate(-239.953 -278.835)" fill="#fe9554" opacity="0.1"/><path d="M307.394,317.766l2.083,1.32-1.266-2.3a2.056,2.056,0,0,1,1.26-.451h.033a2.58,2.58,0,0,0,.433-.03l.706.445-.3-.548a2.51,2.51,0,0,0,1.232-.936l1.263.8-.787-1.45a3.694,3.694,0,0,1,2.828-1.429,3.877,3.877,0,0,1,3.237,2,2.423,2.423,0,0,0,2.138,1.154h.073c1.447,0,2.622,1.644,2.622,3.67s-1.175,3.67-2.622,3.67a1.966,1.966,0,0,1-.908-.227,3.779,3.779,0,0,0-3.177-.064,3.289,3.289,0,0,1-1.357.3,3.33,3.33,0,0,1-1.345-.285,3.791,3.791,0,0,0-3.146.061,1.962,1.962,0,0,1-.908.224c-1.451,0-2.625-1.641-2.625-3.67A4.676,4.676,0,0,1,307.394,317.766Z" transform="translate(-229.682 -267.848)" fill="#fe9554" opacity="0.1"/><path d="M708.487,578.654c.79-1.466-.106-3.258-1.136-4.563s-2.289-2.665-2.262-4.327c.039-2.389,2.577-3.8,4.6-5.069a22.5,22.5,0,0,0,4.134-3.331,6.1,6.1,0,0,0,1.269-1.7,6.882,6.882,0,0,0,.382-3.028q-.13-5.115-.506-10.223" transform="translate(-507.321 -430.444)" fill="none" stroke="#3f3d56" stroke-miterlimit="10" stroke-width="4"/><path d="M733.295,537.664a3.728,3.728,0,0,0-1.862-3.055l-.836,1.65.027-2a3.728,3.728,0,1,0,2.671,3.4Z" transform="translate(-521.79 -421.867)" fill="#fe9554"/><path d="M712.275,616.735a3.728,3.728,0,0,1-7.037-1.514,3.635,3.635,0,0,1,.242-1.514,3.731,3.731,0,0,1,6.965.039l-2.329,1.9,2.562-.606A3.707,3.707,0,0,1,712.275,616.735Z" transform="translate(-507.421 -475.708)" fill="#fe9554"/><path d="M713.423,588.11a3.728,3.728,0,0,1-1.181-7.313l-.021,1.535.845-1.672h0a3.729,3.729,0,0,1,.348,7.449Z" transform="translate(-510.41 -454.32)" fill="#fe9554"/><path d="M743.274,568.227a3.728,3.728,0,1,1,1.647-6.965l-.657,1.817,1.341-1.326a3.728,3.728,0,0,1-2.344,6.471Z" transform="translate(-531.21 -440.46)" fill="#fe9554"/><path d="M732.779,543.364c-.86.094-1.7.36-2.562.415a2.772,2.772,0,0,1-2.356-.824,11.958,11.958,0,0,1-.69-1.211,2.653,2.653,0,0,0-.939-.884,3.728,3.728,0,1,0,6.965,2.477C733.06,543.34,732.918,543.349,732.779,543.364Z" transform="translate(-521.777 -426.575)" opacity="0.1"/><path d="M743.312,573.138a3.728,3.728,0,0,1-3.546-5.318,2.757,2.757,0,0,1,.748.751,12.644,12.644,0,0,0,.739,1.233,3.041,3.041,0,0,0,2.474.863c.9-.045,1.768-.3,2.665-.378.124,0,.248-.018.376-.021A3.728,3.728,0,0,1,743.312,573.138Z" transform="translate(-531.247 -445.371)" opacity="0.1"/><path d="M713.426,593.188a3.728,3.728,0,0,1-3.576-5.248,3.026,3.026,0,0,1,.79.757,12.505,12.505,0,0,0,.809,1.257,3.376,3.376,0,0,0,2.638.908c.951-.039,1.817-.245,2.725-.3a3.734,3.734,0,0,1-3.385,2.628Z" transform="translate(-510.413 -459.398)" opacity="0.1"/><path d="M712.275,622.2a3.728,3.728,0,0,1-7.037-1.514,3.635,3.635,0,0,1,.242-1.514,3.72,3.72,0,0,1,.818.73c.354.43.587.909,1,1.323a4.658,4.658,0,0,0,3.086,1.084A15.652,15.652,0,0,0,712.275,622.2Z" transform="translate(-507.421 -481.171)" opacity="0.1"/><path d="M98.487,506.654c.79-1.466-.106-3.258-1.136-4.563s-2.289-2.671-2.262-4.327c.039-2.389,2.577-3.8,4.6-5.069a22.5,22.5,0,0,0,4.133-3.331,6.1,6.1,0,0,0,1.269-1.7,6.883,6.883,0,0,0,.382-3.028q-.133-5.115-.506-10.223" transform="translate(-82.041 -380.247)" fill="none" stroke="#3f3d56" stroke-miterlimit="10" stroke-width="4"/><path d="M123.295,465.664a3.728,3.728,0,0,0-1.862-3.055l-.836,1.65.027-2a3.728,3.728,0,1,0,2.671,3.4Z" transform="translate(-96.51 -371.67)" fill="#fe9554"/><path d="M102.275,544.735a3.728,3.728,0,0,1-7.038-1.514,3.633,3.633,0,0,1,.242-1.514,3.731,3.731,0,0,1,6.965.039l-2.329,1.9,2.562-.606a3.707,3.707,0,0,1-.4,1.7Z" transform="translate(-82.141 -425.511)" fill="#fe9554"/><path d="M103.423,516.11a3.728,3.728,0,0,1-1.181-7.313l-.021,1.535.845-1.672h0a3.729,3.729,0,1,1,.348,7.449Z" transform="translate(-85.13 -404.123)" fill="#fe9554"/><path d="M133.274,496.227a3.728,3.728,0,1,1,1.647-6.965l-.657,1.817,1.341-1.326a3.728,3.728,0,0,1-2.344,6.471Z" transform="translate(-105.93 -390.263)" fill="#fe9554"/><path d="M122.779,471.364c-.86.094-1.7.36-2.562.415a2.772,2.772,0,0,1-2.356-.824,11.963,11.963,0,0,1-.69-1.211,2.652,2.652,0,0,0-.939-.884,3.728,3.728,0,1,0,6.965,2.477C123.06,471.34,122.918,471.349,122.779,471.364Z" transform="translate(-96.497 -376.378)" opacity="0.1"/><path d="M133.312,501.138a3.728,3.728,0,0,1-3.546-5.318,2.759,2.759,0,0,1,.748.751,12.624,12.624,0,0,0,.739,1.232,3.041,3.041,0,0,0,2.474.863c.9-.045,1.768-.3,2.665-.379.124,0,.248-.018.376-.021A3.728,3.728,0,0,1,133.312,501.138Z" transform="translate(-105.967 -395.174)" opacity="0.1"/><path d="M103.426,521.188a3.728,3.728,0,0,1-3.576-5.248,3.027,3.027,0,0,1,.79.757,12.487,12.487,0,0,0,.809,1.257,3.376,3.376,0,0,0,2.638.908c.951-.039,1.817-.245,2.725-.3A3.734,3.734,0,0,1,103.426,521.188Z" transform="translate(-85.133 -409.201)" opacity="0.1"/><path d="M102.275,550.2a3.728,3.728,0,0,1-7.038-1.514,3.634,3.634,0,0,1,.242-1.514,3.723,3.723,0,0,1,.818.73c.354.43.587.909,1,1.323a4.658,4.658,0,0,0,3.086,1.084,15.641,15.641,0,0,0,1.893-.109Z" transform="translate(-82.141 -430.974)" opacity="0.1"/><path d="M496.407,424.3c-.79-1.463.106-3.255,1.139-4.56s2.286-2.665,2.259-4.327c-.036-2.392-2.574-3.8-4.6-5.069a22.41,22.41,0,0,1-4.13-3.331,5.991,5.991,0,0,1-1.272-1.7,6.978,6.978,0,0,1-.382-3.028q.136-5.115.506-10.223" transform="translate(-356.952 -322.834)" fill="none" stroke="#3f3d56" stroke-miterlimit="10" stroke-width="4"/><path d="M478.381,383.3a3.725,3.725,0,0,1,1.859-3.055l.836,1.65-.024-2a3.823,3.823,0,0,1,1.226-.148,3.728,3.728,0,1,1-3.9,3.552Z" transform="translate(-349.262 -314.251)" fill="#fe9554"/><path d="M499.392,462.306a3.728,3.728,0,1,0-.179-3l2.329,1.9-2.562-.606A3.707,3.707,0,0,0,499.392,462.306Z" transform="translate(-363.626 -368.022)" fill="#fe9554"/><path d="M498.239,433.749a3.728,3.728,0,0,0,1.184-7.313l.018,1.535L498.6,426.3h0a3.728,3.728,0,0,0-3.906,3.54,3.683,3.683,0,0,0,.16,1.272,3.725,3.725,0,0,0,3.389,2.638Z" transform="translate(-360.632 -346.702)" fill="#fe9554"/><path d="M468.337,413.846a3.728,3.728,0,1,0-1.65-6.965l.66,1.817-1.357-1.3a3.7,3.7,0,0,0-1.211,2.574,3.608,3.608,0,0,0,.094,1.027A3.725,3.725,0,0,0,468.337,413.846Z" transform="translate(-339.778 -332.829)" fill="#fe9554"/><path d="M479.088,389c.86.094,1.7.36,2.559.415a2.784,2.784,0,0,0,2.359-.824,11.912,11.912,0,0,0,.687-1.211,2.662,2.662,0,0,1,.942-.884,3.728,3.728,0,1,1-6.965,2.474C478.806,388.977,478.945,388.989,479.088,389Z" transform="translate(-349.466 -318.958)" opacity="0.1"/><path d="M468.585,418.758a3.731,3.731,0,0,0,3.546-5.318,2.77,2.77,0,0,0-.751.751,12.648,12.648,0,0,1-.739,1.232,3.031,3.031,0,0,1-2.471.863c-.9-.045-1.768-.3-2.665-.379-.124,0-.251-.018-.375-.021A3.725,3.725,0,0,0,468.585,418.758Z" transform="translate(-340.026 -337.74)" opacity="0.1"/><path d="M498.626,438.828a3.725,3.725,0,0,0,3.576-5.248,2.977,2.977,0,0,0-.787.757,12.48,12.48,0,0,1-.809,1.257,3.383,3.383,0,0,1-2.641.908c-.954-.039-1.817-.245-2.725-.3A3.725,3.725,0,0,0,498.626,438.828Z" transform="translate(-361.018 -351.781)" opacity="0.1"/><path d="M500.34,467.838a3.728,3.728,0,0,0,6.8-3.028,3.578,3.578,0,0,0-.818.73c-.354.43-.606.908-1,1.323a4.666,4.666,0,0,1-3.089,1.084,16.336,16.336,0,0,1-1.893-.109Z" transform="translate(-364.574 -373.554)" opacity="0.1"/><path d="M812.961,376.852a22.931,22.931,0,0,0-4.845-3.237c-1.451-.7-1.983-.684-3.01.058-.854.606-1.408,1.19-2.389.975s-2.925-1.681-4.806-3.555-3.34-3.806-3.549-4.8.366-1.538.978-2.392c.739-1.027.76-1.56.058-3.01a23.229,23.229,0,0,0-3.24-4.845c-1.063-1.06-1.293-.827-1.874-.606a10.836,10.836,0,0,0-1.717.908,5.18,5.18,0,0,0-2.059,2.177c-.415.884-.884,2.526,1.529,6.823a38.058,38.058,0,0,0,6.692,8.924h0a38.118,38.118,0,0,0,8.954,6.7c4.294,2.423,5.938,1.941,6.822,1.529a5.084,5.084,0,0,0,2.174-2.059,10.709,10.709,0,0,0,.908-1.717C813.787,378.145,814.023,377.909,812.961,376.852Z" transform="translate(-563.849 -297.17)" fill="#fe9554"/><path d="M578.97,522.292l-9.063,9.221a.163.163,0,0,0,0,.236l6.359,6.762a1.094,1.094,0,1,1-1.547,1.547l-6.326-6.738a.173.173,0,0,0-.242,0l-1.541,1.556a6.774,6.774,0,0,1-4.845,2.038,6.923,6.923,0,0,1-4.93-2.1l-1.481-1.514a.173.173,0,0,0-.242,0l-6.311,6.723a1.094,1.094,0,1,1-1.547-1.547l6.335-6.747a.182.182,0,0,0,0-.236l-9.063-9.221a.167.167,0,0,0-.285.118v18.451a2.7,2.7,0,0,0,2.692,2.692h29.637a2.7,2.7,0,0,0,2.692-2.692V522.41a.167.167,0,0,0-.291-.118Z" transform="translate(-395.18 -413.585)" fill="#fe9554"/><path d="M564.132,528.034a4.585,4.585,0,0,0,3.307-1.363l13.2-13.436a2.634,2.634,0,0,0-1.666-.606H549.315a2.616,2.616,0,0,0-1.665.606l13.2,13.436A4.567,4.567,0,0,0,564.132,528.034Z" transform="translate(-397.558 -406.893)" fill="#fe9554"/><path d="M337.067,430.16,325,458l1.126,1.126L337.07,454.3l10.944,4.827L349.141,458Z" transform="translate(-242.33 -349.397)" fill="#fe9554"/><path d="M807.651,573.608q-.412-1.005-.845-2a5.949,5.949,0,0,0-1.033-1.784,1.89,1.89,0,0,0-.606-.454,2.583,2.583,0,0,0-.79-.158,6.314,6.314,0,0,0-1.242-.033c-.16-.048-.342-.112-.521-.185a4.324,4.324,0,0,0,3.222-4.012v-.185a4.315,4.315,0,0,0-4.3-4.333,4.239,4.239,0,0,0-2.256.645,4.049,4.049,0,0,0-4.542,2.189,5.006,5.006,0,0,0-1.544,3.725v.191c.079,2.353,1.6,4.24,3.519,4.43a2.017,2.017,0,0,0-.557.372,3.446,3.446,0,0,0-.748,2.283l-.045.606-1.018.363a.188.188,0,0,0-.045.33l.972.693v.173a.761.761,0,0,0,.018.2,1.391,1.391,0,0,0-.375.536,2.475,2.475,0,0,0-.088.981l.036.845a6.632,6.632,0,0,0,.257,1.88c.127.376.678,1.281,1.075,1.287a39.174,39.174,0,0,0-.463,5.178c-.045.045.082.088.3.124.218,1.672.93,6.359,2.192,8.421a17.731,17.731,0,0,1,.475,2.047,39.22,39.22,0,0,0,.836,5.778,29.416,29.416,0,0,1,.815,4.712.463.463,0,0,0-.336.345c-.239.721-1.79,1.817-1.79,1.817a7.491,7.491,0,0,0-1.338.857c-.488.439-.469.836,1.7.587,4.179-.481,4.894-1.817,4.894-1.817s-.067-.224-.167-.515a5.585,5.585,0,0,0-.548-1.293c-.061-.058-.121.039-.194.191a25.921,25.921,0,0,1-.285-5.847,9.49,9.49,0,0,0-.478-3.492,6.609,6.609,0,0,1,0-2.286c.239-.963-.954-5.66-.954-5.66l-.684-3.458a.993.993,0,0,1,.191.4l.018.07.018.1a.187.187,0,0,0,.048.094c.466,1.938,1.744,7.307,1.744,8.094a12.843,12.843,0,0,0,1.193,3.37s.475,3.973,1.311,5.536a8.026,8.026,0,0,1,.621,3.7h0a3.43,3.43,0,0,1-.382,1.229,2.931,2.931,0,0,0-.451.784l-.027.058s-.357.724-.118.845a5.865,5.865,0,0,0,2.865.36s.479-.606.479-.842a3.8,3.8,0,0,0-.054-.43c-.088-.569-.251-1.466-.254-1.475a4.135,4.135,0,0,0-.3-1.466l-.121-3.37a15.561,15.561,0,0,0-.836-6.744,11.189,11.189,0,0,1-.475-2.768c.13-.6-.239-6.983-.239-6.983l-.036-.091A6.91,6.91,0,0,1,805.4,587a17.983,17.983,0,0,0-.478-4.573,3.966,3.966,0,0,1-.17-1c.027-.251.109-.987.221-1.9a34.146,34.146,0,0,0,3.519-.3.439.439,0,0,0,.3-.121.424.424,0,0,0,.07-.245A11.746,11.746,0,0,0,807.651,573.608Zm-2.4,3.819c.124-.863.257-1.7.391-2.32l.018.055a16.89,16.89,0,0,1,.575,1.908A6.508,6.508,0,0,1,805.25,577.427Z" transform="translate(-568.748 -440.24)" fill="url(#a)"/><path d="M802.37,648.136s.715,6.429,2.262,8.927a17.353,17.353,0,0,1,.476,2.023,38.22,38.22,0,0,0,.833,5.711,31.51,31.51,0,0,1,.833,4.881s1.665,1.9,2.262.357a25.082,25.082,0,0,1-.357-6.19,9.32,9.32,0,0,0-.475-3.452,6.457,6.457,0,0,1,0-2.259c.236-.954-.954-5.593-.954-5.593L806.3,647.9Z" transform="translate(-575.143 -501.201)" fill="#be6f72"/><path d="M811.41,720.775s-.715,1.308-4.878,1.784c-2.162.245-2.177-.145-1.69-.581a7.533,7.533,0,0,1,1.332-.848s1.547-1.069,1.784-1.784,1.072-.118,1.072-.118c1.19,1.784,1.429-.478,1.666-.239a5.375,5.375,0,0,1,.548,1.275C811.344,720.551,811.41,720.775,811.41,720.775Z" transform="translate(-576.686 -550.75)" fill="#ff6f61"/><path d="M811.41,723.752s-.715,1.308-4.878,1.784c-2.162.245-2.177-.145-1.69-.581.339.215,1.024.3,2.4-.251,1.983-.811,3.422-1.281,4-1.463C811.344,723.528,811.41,723.752,811.41,723.752Z" transform="translate(-576.686 -553.727)" opacity="0.1"/><path d="M815.824,663.846a9.324,9.324,0,0,0-.475-3.452,6.448,6.448,0,0,1,0-2.259c.236-.954-.954-5.593-.954-5.593l-.951-4.642-.824.048.942,4.594s1.19,4.639.954,5.593a6.454,6.454,0,0,0,0,2.259,9.049,9.049,0,0,1,.475,3.452,25.083,25.083,0,0,0,.357,6.19,1.044,1.044,0,0,1-.345.491.778.778,0,0,0,1.178-.491A25.082,25.082,0,0,1,815.824,663.846Z" transform="translate(-582.289 -501.201)" opacity="0.1"/><path d="M801.458,562.42a4.239,4.239,0,0,0-2.247.639,4.043,4.043,0,0,0-4.542,2.165,4.93,4.93,0,0,0-1.541,3.682c0,2.532,1.7,4.582,3.807,4.582a3.844,3.844,0,0,0,3.449-2.638,4.175,4.175,0,0,0,1.072.139,4.285,4.285,0,0,0,0-8.57Z" transform="translate(-568.699 -441.606)" fill="#3f3d56"/><path d="M821.238,650.65l.357.951s.357,6.308.236,6.9a11.249,11.249,0,0,0,.479,2.725,15.236,15.236,0,0,1,.833,6.662l.118,3.331s.475,1.308.239,1.547-2.032-.212-2.032-.212a8.487,8.487,0,0,0-.606-4.046c-.845-1.547-1.308-5.475-1.308-5.475a12.632,12.632,0,0,1-1.19-3.331c0-.951-1.9-8.688-1.9-8.688Z" transform="translate(-584.967 -503.118)" fill="#be6f72"/><path d="M801.559,633.012a30.014,30.014,0,0,1,.606-5.593,8.885,8.885,0,0,0,.53-1.9s7.2,1.3,7.8.827a10.329,10.329,0,0,0,.239,1.784,17.113,17.113,0,0,1,.475,4.524c-.13,1.429,0,1.426,0,1.426s-4.881.715-5,0-.476-.712-.476-.712S801.323,633.236,801.559,633.012Z" transform="translate(-574.572 -485.598)" fill="#3f3d56"/><g transform="translate(226.987 140.749)" opacity="0.1"><path d="M805.507,649.7s-3.01-.082-3.918-.245v.245c-.236.236,4.167.357,4.167.357a.3.3,0,0,1,.164.067C805.759,649.7,805.507,649.7,805.507,649.7Z" transform="translate(-801.58 -643.03)"/><path d="M821.35,630.034a10.336,10.336,0,0,1-.239-1.784.512.512,0,0,1-.2.073,6.013,6.013,0,0,0,.2,1.354,18.9,18.9,0,0,1,.475,4.524c-.13,1.429,0,1.426,0,1.426s-3.861.566-4.8.188a1.45,1.45,0,0,0,.036.17c.118.715,5,0,5,0s-.121,0,0-1.426A17.688,17.688,0,0,0,821.35,630.034Z" transform="translate(-812.184 -628.25)"/><path d="M805.507,649.7s-3.01-.082-3.918-.245v.245c-.236.236,4.167.357,4.167.357a.3.3,0,0,1,.164.067C805.759,649.7,805.507,649.7,805.507,649.7Z" transform="translate(-801.58 -643.03)"/><path d="M821.35,630.034a10.336,10.336,0,0,1-.239-1.784.512.512,0,0,1-.2.073,6.013,6.013,0,0,0,.2,1.354,18.9,18.9,0,0,1,.475,4.524c-.13,1.429,0,1.426,0,1.426s-3.861.566-4.8.188a1.45,1.45,0,0,0,.036.17c.118.715,5,0,5,0s-.121,0,0-1.426A17.688,17.688,0,0,0,821.35,630.034Z" transform="translate(-812.184 -628.25)"/></g><path d="M813,584.363a1.577,1.577,0,0,0,.454.587,1.017,1.017,0,0,0,.427.185c-.266.154-.557.27-.824.424a14.644,14.644,0,0,0-1.211.909,2.465,2.465,0,0,1-1.39.539,1.7,1.7,0,0,0,.194-1.693,1.579,1.579,0,0,1-.212-.587,1.055,1.055,0,0,1,.584-.787c.227-.154.46-.3.7-.451.185-.115.463-.357.7-.348s.26.215.3.427A3.361,3.361,0,0,0,813,584.363Z" transform="translate(-580.77 -456.051)" fill="#be6f72"/><path d="M813,584.363a1.577,1.577,0,0,0,.454.587,1.017,1.017,0,0,0,.427.185c-.266.154-.557.27-.824.424a14.644,14.644,0,0,0-1.211.909,2.465,2.465,0,0,1-1.39.539,1.7,1.7,0,0,0,.194-1.693,1.579,1.579,0,0,1-.212-.587,1.055,1.055,0,0,1,.584-.787c.227-.154.46-.3.7-.451.185-.115.463-.357.7-.348s.26.215.3.427A3.361,3.361,0,0,0,813,584.363Z" transform="translate(-580.77 -456.051)" opacity="0.1"/><circle cx="2.737" cy="2.737" r="2.737" transform="translate(232.284 129.859)" fill="#be6f72"/><path d="M833.021,723.122c0,.239-.475.833-.475.833a5.893,5.893,0,0,1-2.856-.357c-.239-.118.118-.833.118-.833l.027-.058a2.893,2.893,0,0,1,.451-.775,3.388,3.388,0,0,0,.379-1.211c.739-1.211,2.05.524,2.05.524s.167.908.254,1.46A4.139,4.139,0,0,1,833.021,723.122Z" transform="translate(-594.133 -551.671)" fill="#ff6f61"/><path d="M833.021,728.664c0,.239-.475.833-.475.833a5.893,5.893,0,0,1-2.856-.357c-.239-.118.118-.833.118-.833l.027-.057a5.754,5.754,0,0,0,2.592.533l.542-.542C833,728.443,833.021,728.6,833.021,728.664Z" transform="translate(-594.133 -557.213)" opacity="0.1"/><circle cx="2.677" cy="2.677" r="2.677" transform="translate(226.869 124.206)" fill="#be6f72"/><path d="M800.9,598.491a3.361,3.361,0,0,0-.745,2.256l-.091,1.184a5.974,5.974,0,0,0-.021.96c0,.2.048.4.067.606s.024.472.027.712v1.75a2.065,2.065,0,0,0,.194,1.051.715.715,0,0,0,.908.327,1.035,1.035,0,0,0,.375-.581,9.028,9.028,0,0,0,.606-2.217c.024-.263.027-.527.052-.79s.07-.539.109-.806c.17-1.114.245-2.241.321-3.364.021-.333.321-1.644-.115-1.79-.212-.07-.651.148-.854.221A2.4,2.4,0,0,0,800.9,598.491Z" transform="translate(-573.517 -466.255)" fill="#be6f72"/><path d="M800.9,598.491a3.361,3.361,0,0,0-.745,2.256l-.091,1.184a5.974,5.974,0,0,0-.021.96c0,.2.048.4.067.606s.024.472.027.712v1.75a2.065,2.065,0,0,0,.194,1.051.715.715,0,0,0,.908.327,1.035,1.035,0,0,0,.375-.581,9.028,9.028,0,0,0,.606-2.217c.024-.263.027-.527.052-.79s.07-.539.109-.806c.17-1.114.245-2.241.321-3.364.021-.333.321-1.644-.115-1.79-.212-.07-.651.148-.854.221A2.4,2.4,0,0,0,800.9,598.491Z" transform="translate(-573.517 -466.255)" opacity="0.1"/><path d="M809.545,588.16a14.681,14.681,0,0,1-3.213,1.9s-.706.805-.827,1-.363,2.332-.606,2.81a2.274,2.274,0,0,0,0,2.616,4.539,4.539,0,0,1,.118,1.429c-.118.357-.551,1.666-.157,1.726s1.587.89,2.656.654,5.06.908,5.06.908.66-6.132,1.139-7.216l-1.072-.357s-2.974-1.784-1.19-4.521C811.45,589.114,809.778,588.757,809.545,588.16Z" transform="translate(-576.607 -459.551)" fill="#ff6f61"/><path d="M796.665,610.055l2.459,1.741a.182.182,0,0,0,.215,0l.666-.5a.188.188,0,0,0,0-.285l-1.893-1.681a.182.182,0,0,0-.185-.036l-1.214.436a.185.185,0,0,0-.048.324Z" transform="translate(-571.113 -474.278)" fill="#3f3d56"/><path d="M798.859,618.362a6.592,6.592,0,0,1-.257-1.856l-.036-.839a2.425,2.425,0,0,1,.088-.969,1.584,1.584,0,0,1,1.021-.893,3.523,3.523,0,0,1,1.39-.1.356.356,0,0,1,.179.048.333.333,0,0,1,.1.164,1.1,1.1,0,0,1,.055.875.907.907,0,0,1-.279.288c-.33.236-.715.394-1.027.651a.373.373,0,0,0-.139.176.408.408,0,0,0,0,.191,3.046,3.046,0,0,0,.157.488.482.482,0,0,0,.136.206c.057.048.133.067.194.112.13.106.4.245.388.412a13.573,13.573,0,0,1-.551,1.884C800,620.369,799.035,618.873,798.859,618.362Z" transform="translate(-572.48 -477.341)" fill="#be6f72"/><g transform="translate(230.137 134.262)" opacity="0.1"><path d="M812.047,628.184h-.067a2.039,2.039,0,0,0,.778,0h.076a2.727,2.727,0,0,0-.787,0Z" transform="translate(-811.98 -621.698)"/><path d="M830.139,606.83a54.933,54.933,0,0,0-1.169,7.192c.418.109.693.188.693.188s.654-6.117,1.133-7.2Z" transform="translate(-823.825 -606.83)"/></g><path d="M816.908,594.094a.908.908,0,0,0,.391.591,5.248,5.248,0,0,1,.693.7,4.977,4.977,0,0,1,.687,1.378,16.874,16.874,0,0,1,.572,1.883c-1.514.7-3.234.669-4.845,1.133a3.867,3.867,0,0,0-1.817,1.075,2.5,2.5,0,0,0-.669,1.971.206.206,0,0,0,.248.2,1.817,1.817,0,0,0,1.111-.382,5.289,5.289,0,0,0,.851-.836,1.369,1.369,0,0,1,.606-.448,9.909,9.909,0,0,1,2.725-.267,34.326,34.326,0,0,0,4.061-.321.327.327,0,0,0,.363-.363,11.647,11.647,0,0,0-1.211-5.187q-.409-1-.842-1.984a5.876,5.876,0,0,0-1.03-1.762,1.816,1.816,0,0,0-.606-.448,2.561,2.561,0,0,0-.812-.151,5.755,5.755,0,0,0-1.329-.024,2.83,2.83,0,0,0-.127.687,5.957,5.957,0,0,0,.733,2.323C816.708,593.979,816.838,593.985,816.908,594.094Z" transform="translate(-581.793 -461.413)" fill="#be6f72"/><path d="M811.712,606.67a2.22,2.22,0,0,0-.3,1.157,1.562,1.562,0,0,0,.076.472,1.532,1.532,0,0,0,.966.908" transform="translate(-581.445 -472.456)" fill="none" stroke="#000" stroke-miterlimit="10" stroke-width="1" opacity="0.1"/><path d="M804.881,571.624a1.39,1.39,0,0,0-.439.07,2.9,2.9,0,0,0-2.423-1.023c-1.448,0-2.619.748-2.619,1.669S800.572,574,802.019,574a3.685,3.685,0,0,0,1.572-.333,1.426,1.426,0,1,0,1.284-2.047Z" transform="translate(-573.073 -447.358)" fill="#3f3d56"/><path d="M804.985,576.757a1.423,1.423,0,0,1-1.284-.809,3.687,3.687,0,0,1-1.571.333c-1.444,0-2.616-.745-2.616-1.666a1,1,0,0,1,0-.167,1.128,1.128,0,0,0-.133.524c0,.909,1.172,1.666,2.619,1.666a3.687,3.687,0,0,0,1.572-.333,1.426,1.426,0,0,0,2.686-.354A1.42,1.42,0,0,1,804.985,576.757Z" transform="translate(-573.059 -449.993)" opacity="0.1"/><path d="M794.644,565.927a4.043,4.043,0,0,1,4.542-2.165,4.282,4.282,0,0,1,6.517,3.289v-.357a4.282,4.282,0,0,0-6.532-3.634,4.043,4.043,0,0,0-4.542,2.165,4.93,4.93,0,0,0-1.541,3.682v.357A4.845,4.845,0,0,1,794.644,565.927Z" transform="translate(-568.671 -441.606)" opacity="0.1"/><path d="M880.567,502.771c.79-1.463-.106-3.258-1.139-4.563s-2.286-2.662-2.259-4.327c.036-2.389,2.574-3.8,4.6-5.069a22.375,22.375,0,0,0,4.13-3.331,6.033,6.033,0,0,0,1.272-1.7,6.977,6.977,0,0,0,.382-3.028q-.133-5.118-.506-10.223" transform="translate(-627.291 -377.542)" fill="none" stroke="#3f3d56" stroke-miterlimit="10" stroke-width="4"/><path d="M905.365,461.749a3.722,3.722,0,0,0-1.859-3.052l-.836,1.65.024-2a3.659,3.659,0,0,0-1.226-.148,3.728,3.728,0,1,0,3.9,3.549Z" transform="translate(-641.754 -368.943)" fill="#fe9554"/><path d="M884.355,540.753a3.728,3.728,0,1,1,.179-3l-2.329,1.9,2.562-.606A3.706,3.706,0,0,1,884.355,540.753Z" transform="translate(-627.392 -422.713)" fill="#fe9554"/><path d="M885.495,512.2a3.728,3.728,0,0,1-1.184-7.313l-.018,1.535.845-1.669h0a3.729,3.729,0,1,1,.348,7.449Z" transform="translate(-630.372 -401.397)" fill="#fe9554"/><path d="M915.351,492.316a3.728,3.728,0,1,1,1.65-6.965l-.66,1.817,1.357-1.3a3.706,3.706,0,0,1,1.211,2.574,3.6,3.6,0,0,1-.094,1.027A3.728,3.728,0,0,1,915.351,492.316Z" transform="translate(-651.18 -387.537)" fill="#fe9554"/><path d="M904.856,467.444c-.86.1-1.7.363-2.562.418a2.777,2.777,0,0,1-2.359-.827,11.558,11.558,0,0,1-.687-1.211,2.68,2.68,0,0,0-.939-.884,3.728,3.728,0,1,0,6.965,2.474C905.134,467.42,905,467.429,904.856,467.444Z" transform="translate(-641.745 -373.645)" opacity="0.1"/><path d="M915.386,497.228a3.731,3.731,0,0,1-3.546-5.318,2.758,2.758,0,0,1,.751.748,11.928,11.928,0,0,0,.739,1.233,3.033,3.033,0,0,0,2.471.866c.9-.042,1.769-.3,2.665-.379.124,0,.251-.021.375-.024A3.728,3.728,0,0,1,915.386,497.228Z" transform="translate(-651.216 -392.448)" opacity="0.1"/><path d="M885.5,517.254A3.725,3.725,0,0,1,881.919,512a3.074,3.074,0,0,1,.787.757c.3.409.469.881.809,1.257a3.451,3.451,0,0,0,2.641.927c.954-.021,1.817-.248,2.725-.318a3.728,3.728,0,0,1-3.385,2.631Z" transform="translate(-630.373 -406.454)" opacity="0.1"/><path d="M884.4,546.288a3.731,3.731,0,0,1-6.8-3.028,3.654,3.654,0,0,1,.818.73c.357.433.591.908,1,1.326a4.682,4.682,0,0,0,3.089,1.084A16.317,16.317,0,0,0,884.4,546.288Z" transform="translate(-627.44 -428.248)" opacity="0.1"/><path d="M1039.567,654.771c.79-1.463-.106-3.258-1.139-4.563s-2.286-2.662-2.259-4.327c.036-2.389,2.574-3.8,4.6-5.069a22.381,22.381,0,0,0,4.13-3.331,6.036,6.036,0,0,0,1.272-1.7,6.976,6.976,0,0,0,.382-3.028q-.13-5.118-.506-10.223" transform="translate(-738.143 -483.513)" fill="none" stroke="#3f3d56" stroke-miterlimit="10" stroke-width="4"/><path d="M1064.4,613.75a3.721,3.721,0,0,0-1.859-3.052l-.836,1.65.024-2a3.656,3.656,0,0,0-1.211-.148,3.728,3.728,0,1,0,3.9,3.549Z" transform="translate(-752.641 -474.915)" fill="#fe9554"/><path d="M1043.355,692.753a3.728,3.728,0,1,1,.179-3l-2.329,1.9,2.562-.606A3.705,3.705,0,0,1,1043.355,692.753Z" transform="translate(-738.243 -528.684)" fill="#fe9554"/><path d="M1044.494,664.2a3.728,3.728,0,0,1-1.184-7.313l-.018,1.535.845-1.669h0a3.729,3.729,0,1,1,.348,7.449Z" transform="translate(-741.224 -507.369)" fill="#fe9554"/><path d="M1074.351,644.316a3.728,3.728,0,1,1,1.65-6.965l-.66,1.817,1.357-1.3a3.707,3.707,0,0,1,1.211,2.574,3.6,3.6,0,0,1-.094,1.026A3.728,3.728,0,0,1,1074.351,644.316Z" transform="translate(-762.032 -493.508)" fill="#fe9554"/><path d="M1063.856,619.444c-.86.1-1.7.363-2.562.418a2.777,2.777,0,0,1-2.359-.827,11.572,11.572,0,0,1-.687-1.211,2.678,2.678,0,0,0-.939-.884,3.728,3.728,0,1,0,6.965,2.474C1064.135,619.42,1064,619.429,1063.856,619.444Z" transform="translate(-752.597 -479.616)" opacity="0.1"/><path d="M1074.386,649.227a3.731,3.731,0,0,1-3.546-5.318,2.759,2.759,0,0,1,.751.748,11.95,11.95,0,0,0,.739,1.232,3.033,3.033,0,0,0,2.471.866c.9-.042,1.768-.3,2.665-.379.124,0,.251-.021.375-.024A3.727,3.727,0,0,1,1074.386,649.227Z" transform="translate(-762.067 -498.419)" opacity="0.1"/><path d="M1044.5,669.254a3.725,3.725,0,0,1-3.576-5.254,3.075,3.075,0,0,1,.787.757c.3.409.469.881.808,1.257a3.451,3.451,0,0,0,2.641.927c.954-.021,1.817-.248,2.725-.318A3.728,3.728,0,0,1,1044.5,669.254Z" transform="translate(-741.225 -512.426)" opacity="0.1"/><path d="M1043.4,698.288a3.731,3.731,0,0,1-6.8-3.028,3.654,3.654,0,0,1,.818.73c.357.433.606.909,1,1.326a4.682,4.682,0,0,0,3.089,1.084A16.357,16.357,0,0,0,1043.4,698.288Z" transform="translate(-738.292 -534.219)" opacity="0.1"/><path d="M436.525,568.333a2.971,2.971,0,0,0-1.184-2.4,163.909,163.909,0,0,0-5.227-6h0a2.964,2.964,0,0,0-.43-.1h-.512a3.41,3.41,0,0,0-3.295,2.913c-1.063-.245-2.035.073-2.214.745a.909.909,0,0,0,.03.539,2.343,2.343,0,0,0,1.563,1.266l.1.03.154.039h.033a2.678,2.678,0,0,0-.254,1.148,2.647,2.647,0,0,0,1.426,2.362l-.07.042a.944.944,0,0,0-.23.321,4.8,4.8,0,0,0-.445,1.072c-.076.321-.088.654-.182.972-.176.584-.624,1.078-.675,1.687-.024.273.021.606-.173.781a.935.935,0,0,1-.154.109,1.25,1.25,0,0,0-.336.354,1.174,1.174,0,0,1-.236.339c-.176.13-.463.118-.548.321s.136.442.085.663-.239.263-.375.388a1.347,1.347,0,0,0-.324.606,1.986,1.986,0,0,1-1.635-.418,3.061,3.061,0,0,1,.17.606,2.653,2.653,0,0,0-.881-.442,2.783,2.783,0,0,1-.939-.7l.5-.07-2.22-3.389-.657-.136.587,1.129a.36.36,0,0,0-.2.239,1.027,1.027,0,0,0-.021.385,6.877,6.877,0,0,0,.151.908l.17.793c.015.073.033.148.054.221a2.083,2.083,0,0,0-.657.073,5.715,5.715,0,0,0-1.366-.324.755.755,0,0,0-.3,0,.783.783,0,0,0-.288.233,9.313,9.313,0,0,0-1.014,1.429,49.894,49.894,0,0,1-4.282,5.769c-1.03.418-2.068.815-3.107,1.211l-2.235.854a3.387,3.387,0,0,1-1.387.3c-.212,0-.475-.045-.606.136a1.274,1.274,0,0,0-.136.3l-.23.024h0a2.647,2.647,0,0,0-.536-.987.339.339,0,0,0-.251.194c-.055.1-.088.209-.151.3-.118.176-.327.26-.475.409s-.242.378-.406.53a1.605,1.605,0,0,1-.76.3,4.8,4.8,0,0,0-1.19.451,1.916,1.916,0,0,1-.439.2,1.649,1.649,0,0,1-.518.018L396.62,587a.931.931,0,0,0-.318.015.606.606,0,0,0-.376.606.954.954,0,0,0,.376.651,2.4,2.4,0,0,0,.672.348,19.732,19.732,0,0,0,3.149.933v.239a5.375,5.375,0,0,0,2.423.575.375.375,0,0,0,.182-.033.4.4,0,0,0,.151-.236,9.742,9.742,0,0,0,.472-2.32h0a1.211,1.211,0,0,0,.427-.109c.406-.112.812.167,1.232.212a3.367,3.367,0,0,0,1.487-.43l.212-.07a2.328,2.328,0,0,1-.491.469c-.2.145-.43.254-.627.406a4.342,4.342,0,0,1-.533.412,3.355,3.355,0,0,1-.409.157,2.691,2.691,0,0,0-.584.3,1.183,1.183,0,0,0-.4.388.581.581,0,0,0-.033.545.575.575,0,0,0,.391.273,1.6,1.6,0,0,0,.481,0c.642-.048,1.281-.106,1.92-.164a5.127,5.127,0,0,0,.8-.115c.139-.033.279-.079.418-.118a3.732,3.732,0,0,1,.73-.109.609.609,0,0,1,.212.021c.148.048.254.2.406.23a.6.6,0,0,0,.3-.039,6.761,6.761,0,0,1,1.42-.151.586.586,0,0,0,.551-.245c.1-.194-.079-.506-.157-.763a2.334,2.334,0,0,1-.067-.5,3.147,3.147,0,0,0-.351-1.193,3.114,3.114,0,0,1-.263-.545,13.772,13.772,0,0,0,2.613-1.326,4.674,4.674,0,0,1,1.49-.718,4.053,4.053,0,0,1,1.871.218,42.556,42.556,0,0,1,4.291,1.5c.669.276,1.335.566,2.026.775a3.159,3.159,0,0,0,.721.7,3.33,3.33,0,0,0,1.56.427,20.435,20.435,0,0,0,2.2.082,3.7,3.7,0,0,0,1.635-.3,1.681,1.681,0,0,0,.342-.227,1.357,1.357,0,0,0,1.078-.4,2.613,2.613,0,0,0,.821-1.3c.179-.69.042-1.514.466-2.065.112-.151.26-.273.372-.424a1.193,1.193,0,0,0,.194-.7.137.137,0,0,1,.018-.027,2.566,2.566,0,0,0,.182-.7,3.975,3.975,0,0,1,.2-.551,17.005,17.005,0,0,0,.563-1.632,9.533,9.533,0,0,0,.26-1.12c.045-.3.073-.606.1-.908a5.641,5.641,0,0,1,.276-1.4,11.412,11.412,0,0,0,.636-3.355v-.067a2.25,2.25,0,0,0,1.993-2.289,2.389,2.389,0,0,0-.209-.978A3.027,3.027,0,0,0,436.525,568.333ZM425.69,581.5c.033.118.073.233.112.348-.179-.173-.351-.351-.53-.527.07.024.142.045.209.073a1.137,1.137,0,0,1,.2.106Zm-.857-.581c-1.048-.908-2.259-1.614-3.331-2.5.584.288,1.154.624,1.717.945q1,.572,2.032,1.1a1.663,1.663,0,0,1-.427.451Zm.445-2.289.051-.052v.36l-.282-.1a2.513,2.513,0,0,0,.221-.212Zm-9.215,2.453a8.666,8.666,0,0,0,1.114-1.59,10.706,10.706,0,0,0,1.662,1.856C417.917,581.227,416.99,581.127,416.064,581.079Z" transform="translate(-291.777 -439.8)" fill="url(#b)"/><path d="M415.35,438.25l.66.133,2.25,3.328-.99.133Z" transform="translate(-289.574 -305.79)" fill="#2f2e41"/><path d="M414.49,645.384a12.953,12.953,0,0,0,.66,1.717,16.335,16.335,0,0,0,2.2-.627,6.914,6.914,0,0,0-.457-.606,2.258,2.258,0,0,0-.621-.475,1.707,1.707,0,0,0-.754,0C415.174,645.384,414.832,645.39,414.49,645.384Z" transform="translate(-304.721 -499.424)" fill="#fbbebe"/><path d="M403.247,644.074a1.368,1.368,0,0,1-.751-.854,2.749,2.749,0,0,0-.572-1.021.327.327,0,0,0-.254.191c-.054.1-.088.206-.148.3-.121.173-.333.257-.484.4s-.242.372-.406.521a1.61,1.61,0,0,1-.766.3,4.965,4.965,0,0,0-1.211.445,2.092,2.092,0,0,1-.445.2,1.765,1.765,0,0,1-.521,0l-1.193-.085a.934.934,0,0,0-.3,0,.578.578,0,0,0-.379.606.909.909,0,0,0,.379.642,2.512,2.512,0,0,0,.678.345,19.964,19.964,0,0,0,3.2.908v.236a5.537,5.537,0,0,0,2.438.566.413.413,0,0,0,.182-.03.4.4,0,0,0,.151-.236,9.448,9.448,0,0,0,.5-2.592,2.064,2.064,0,0,0-.051-.669c-.067-.215.157-.124-.048-.209" transform="translate(-291.697 -497.227)" fill="#2f2e41"/><path d="M441.858,631.367c-3.537.212-7.031-.824-10.574-.933a5.158,5.158,0,0,0-1.314.082,6.614,6.614,0,0,0-1.3.506c-1.9.884-3.864,1.617-5.826,2.347l-2.256.839a3.417,3.417,0,0,1-1.4.3c-.215,0-.478-.045-.606.133a2.209,2.209,0,0,0,.048,1.953c.079.2.212.412.424.433a1.231,1.231,0,0,0,.43-.109c.409-.109.818.167,1.242.212a3.488,3.488,0,0,0,1.5-.424,13.01,13.01,0,0,1,2.568-.436,11.5,11.5,0,0,0,4.021-1.669,4.7,4.7,0,0,1,1.5-.709,4.15,4.15,0,0,1,1.887.215,43.26,43.26,0,0,1,4.327,1.472,20.19,20.19,0,0,0,2.259.827,8.177,8.177,0,0,0,5.066-.3c.566-.224,1.181-.606,1.211-1.229.021-.348-.251-.654-.43-.954-.115-.191-.233-.382-.357-.566C443.672,632.478,442.933,631.3,441.858,631.367Z" transform="translate(-307.428 -489.016)" fill="#2f2e41"/><path d="M441.858,631.367c-3.537.212-7.031-.824-10.574-.933a5.158,5.158,0,0,0-1.314.082,6.614,6.614,0,0,0-1.3.506c-1.9.884-3.864,1.617-5.826,2.347l-2.256.839a3.417,3.417,0,0,1-1.4.3c-.215,0-.478-.045-.606.133a2.209,2.209,0,0,0,.048,1.953c.079.2.212.412.424.433a1.231,1.231,0,0,0,.43-.109c.409-.109.818.167,1.242.212a3.488,3.488,0,0,0,1.5-.424,13.01,13.01,0,0,1,2.568-.436,11.5,11.5,0,0,0,4.021-1.669,4.7,4.7,0,0,1,1.5-.709,4.15,4.15,0,0,1,1.887.215,43.26,43.26,0,0,1,4.327,1.472,20.19,20.19,0,0,0,2.259.827,8.177,8.177,0,0,0,5.066-.3c.566-.224,1.181-.606,1.211-1.229.021-.348-.251-.654-.43-.954-.115-.191-.233-.382-.357-.566C443.672,632.478,442.933,631.3,441.858,631.367Z" transform="translate(-307.428 -489.016)" opacity="0.1"/><path d="M436.92,642.61q.83.282,1.675.521c.3-.518.908-.878,1.039-1.472a.139.139,0,0,0,0-.079.146.146,0,0,0-.064-.058,3.173,3.173,0,0,0-1.314-.385c-.363-.021-.53.357-.693.624C437.5,641.88,437.068,642.667,436.92,642.61Z" transform="translate(-320.359 -496.486)" fill="#fbbebe"/><path d="M426.888,642.846a1.211,1.211,0,0,1-.815-.536c-.076-.136-.16-.321-.318-.3s-.209.182-.242.324a9.081,9.081,0,0,1-.457,1.572,2.949,2.949,0,0,1-.978,1.287c-.206.142-.433.248-.636.4a4.364,4.364,0,0,1-.536.406,3.174,3.174,0,0,1-.412.151,2.849,2.849,0,0,0-.587.3,1.166,1.166,0,0,0-.4.385.554.554,0,0,0-.03.536.573.573,0,0,0,.391.266,1.652,1.652,0,0,0,.488,0c.645-.045,1.29-.1,1.935-.161a5.587,5.587,0,0,0,.809-.112l.421-.115a3.354,3.354,0,0,1,.736-.109.57.57,0,0,1,.215.021c.148.048.254.2.409.227a.684.684,0,0,0,.3-.039,6.693,6.693,0,0,1,1.432-.148.6.6,0,0,0,.557-.242c.121-.236-.079-.5-.16-.754a2.421,2.421,0,0,1-.067-.494,3.009,3.009,0,0,0-.354-1.175c-.164-.3-.388-.636-.272-.957a.908.908,0,0,0,.109-.33C428.378,642.728,427.185,642.913,426.888,642.846Z" transform="translate(-309.551 -497.092)" fill="#2f2e41"/><path d="M471.56,607.64a2.762,2.762,0,0,1-1.411-1.4c-.058-.133-.106-.276-.163-.409a3.108,3.108,0,0,0-.842-1.172.415.415,0,0,0-.3-.13.33.33,0,0,0-.227.245.936.936,0,0,0-.024.379,6.735,6.735,0,0,0,.151.884l.173.781a1.719,1.719,0,0,0,.106.348,1.212,1.212,0,0,0,.288.342c.157.145.318.285.478.424a1.639,1.639,0,0,0,.3.209,1.756,1.756,0,0,0,.536.158,4.561,4.561,0,0,1,2.011.775v-.581a.768.768,0,0,0-.151-.421A2.685,2.685,0,0,0,471.56,607.64Z" transform="translate(-342.431 -470.964)" fill="#fbbebe"/><path d="M471.56,607.64a2.762,2.762,0,0,1-1.411-1.4c-.058-.133-.106-.276-.163-.409a3.108,3.108,0,0,0-.842-1.172.415.415,0,0,0-.3-.13.33.33,0,0,0-.227.245.936.936,0,0,0-.024.379,6.735,6.735,0,0,0,.151.884l.173.781a1.719,1.719,0,0,0,.106.348,1.212,1.212,0,0,0,.288.342c.157.145.318.285.478.424a1.639,1.639,0,0,0,.3.209,1.756,1.756,0,0,0,.536.158,4.561,4.561,0,0,1,2.011.775v-.581a.768.768,0,0,0-.151-.421A2.685,2.685,0,0,0,471.56,607.64Z" transform="translate(-342.431 -470.964)" opacity="0.1"/><ellipse cx="0.86" cy="0.866" rx="0.86" ry="0.866" transform="translate(135.469 128.966)" fill="#2f2e41"/><path d="M486.74,590.421a.929.929,0,0,0-.678.1.941.941,0,0,0-.233.318,4.617,4.617,0,0,0-.448,1.054c-.076.3-.088.645-.185.957-.176.575-.627,1.063-.678,1.662-.024.27.021.584-.176.766a1.115,1.115,0,0,1-.154.112,1.164,1.164,0,0,0-.339.348,1.142,1.142,0,0,1-.239.33c-.176.13-.466.118-.551.3s.136.436.085.654-.242.26-.379.382a1.324,1.324,0,0,0-.327.606,2.02,2.02,0,0,1-1.647-.409,5.245,5.245,0,0,1,.257,1.884.769.769,0,0,1-.151.581,10.49,10.49,0,0,1,2.02.351,1.393,1.393,0,0,0,.881,0,1.47,1.47,0,0,0,.406-.321,2.587,2.587,0,0,0,.833-1.284,7.54,7.54,0,0,0,.015-.869,4.9,4.9,0,0,1,.221-1.057,12.578,12.578,0,0,0,.385-2.174c.039-.454.433-.818.639-1.211a5.932,5.932,0,0,0,.815-2.423C487.122,590.8,487.025,590.451,486.74,590.421Z" transform="translate(-350.944 -461.11)" fill="#2f2e41"/><path d="M486.74,590.421a.929.929,0,0,0-.678.1.941.941,0,0,0-.233.318,4.617,4.617,0,0,0-.448,1.054c-.076.3-.088.645-.185.957-.176.575-.627,1.063-.678,1.662-.024.27.021.584-.176.766a1.115,1.115,0,0,1-.154.112,1.164,1.164,0,0,0-.339.348,1.142,1.142,0,0,1-.239.33c-.176.13-.466.118-.551.3s.136.436.085.654-.242.26-.379.382a1.324,1.324,0,0,0-.327.606,2.02,2.02,0,0,1-1.647-.409,5.245,5.245,0,0,1,.257,1.884.769.769,0,0,1-.151.581,10.49,10.49,0,0,1,2.02.351,1.393,1.393,0,0,0,.881,0,1.47,1.47,0,0,0,.406-.321,2.587,2.587,0,0,0,.833-1.284,7.54,7.54,0,0,0,.015-.869,4.9,4.9,0,0,1,.221-1.057,12.578,12.578,0,0,0,.385-2.174c.039-.454.433-.818.639-1.211a5.932,5.932,0,0,0,.815-2.423C487.122,590.8,487.025,590.451,486.74,590.421Z" transform="translate(-350.944 -461.11)" opacity="0.1"/><path d="M457.117,619.228a7.98,7.98,0,0,1-1.871-1.563c-1.136-1.069-2.526-1.817-3.722-2.825a26.227,26.227,0,0,0-2.371-1.993,5.926,5.926,0,0,0-2.541-.887.676.676,0,0,0-.3,0,.7.7,0,0,0-.288.227A9.154,9.154,0,0,0,445,613.6c-1.514,2.574-3.667,4.736-5.451,7.128a.453.453,0,0,0-.088.17.421.421,0,0,0,.067.263l.363.709c.2.4.53.863.966.784a1.056,1.056,0,0,0,.506-.324l1.629-1.56,1.708-1.632a13.1,13.1,0,0,0,2.671-3.155,23.53,23.53,0,0,0,2.032,2.271c.236.3.43.645.642.972.336.521.721,1.011,1.1,1.514l1.959,2.5a3.748,3.748,0,0,0,.908.908,3.466,3.466,0,0,0,1.572.421,20.773,20.773,0,0,0,2.214.079,3.817,3.817,0,0,0,1.65-.3,1.5,1.5,0,0,0,.893-1.329,1.951,1.951,0,0,0-.282-.827A6.749,6.749,0,0,0,457.117,619.228Z" transform="translate(-322.126 -476.133)" fill="#2f2e41"/><ellipse cx="0.663" cy="0.666" rx="0.663" ry="0.666" transform="translate(136.196 129.765)" fill="#e8e8f0"/><path d="M501.378,587.74a1.275,1.275,0,0,1,.073.957,3.881,3.881,0,0,1-.427.881,4.193,4.193,0,0,1-.554.787,5.7,5.7,0,0,0,2.913-.836,4.229,4.229,0,0,0,1.838-1.6.847.847,0,0,1-.678-.127,2.423,2.423,0,0,1-.518-.481l-.512-.575a2.308,2.308,0,0,1-.3-.415,1.145,1.145,0,0,1-.136-.669,3.9,3.9,0,0,1-.678.563c-.366.239-.769.412-1.139.648-.127.085-.418.218-.342.388S501.275,587.559,501.378,587.74Z" transform="translate(-364.665 -457.808)" fill="#fbbebe"/><path d="M501.378,587.74a1.275,1.275,0,0,1,.073.957,3.881,3.881,0,0,1-.427.881,4.193,4.193,0,0,1-.554.787,5.7,5.7,0,0,0,2.913-.836,4.229,4.229,0,0,0,1.838-1.6.847.847,0,0,1-.678-.127,2.423,2.423,0,0,1-.518-.481l-.512-.575a2.308,2.308,0,0,1-.3-.415,1.145,1.145,0,0,1-.136-.669,3.9,3.9,0,0,1-.678.563c-.366.239-.769.412-1.139.648-.127.085-.418.218-.342.388S501.275,587.559,501.378,587.74Z" transform="translate(-364.665 -457.808)" opacity="0.1"/><path d="M494.23,592.613a.863.863,0,0,0,0,1c.03.036.139.263.185.266a.166.166,0,0,0,.115-.061,7.6,7.6,0,0,0,.648-.772,1.441,1.441,0,0,1,.824-.539,1.781,1.781,0,0,1,1.136.354,1.079,1.079,0,0,1,.391.3,1.058,1.058,0,0,1,.127.433,20.871,20.871,0,0,1,.115,2.753,10.854,10.854,0,0,1-.13,1.983c-.067.336-.164.666-.209,1.008a6.436,6.436,0,0,0-.042.909v1.266a3.337,3.337,0,0,0,.048.693c.061.276.191.533.279.8a5.252,5.252,0,0,1,.185.948l.173,1.308a1.654,1.654,0,0,1-.154,1.211c-.112.148-.26.269-.375.418-.427.557-.3,1.354-.469,2.035a2.538,2.538,0,0,1-.83,1.272,1.372,1.372,0,0,1-1.093.391,1.5,1.5,0,0,1-1-1.178,4.71,4.71,0,0,0-.512-1.535,4.072,4.072,0,0,0-1.011-.845,1.747,1.747,0,0,1-.79-1.027c-.033-.191,0-.388-.033-.581a1.372,1.372,0,0,0-.845-1.111c-.273-.106-.606-.145-.763-.394a1.838,1.838,0,0,0,.8-1.069,5.491,5.491,0,0,0,.194-1.351l.091-1.514a5.057,5.057,0,0,1,.36-1.965c.133-.273.3-.53.439-.8a8.669,8.669,0,0,0,.469-1.172c.218-.624.436-1.248.63-1.878a3.539,3.539,0,0,1,.345-.875C493.688,593.016,493.925,592.673,494.23,592.613Z" transform="translate(-357.505 -462.581)" fill="#e8e8f0"/><path d="M492.261,601.865h.4l.085-.606a1.262,1.262,0,0,1,.085-.354,2.112,2.112,0,0,1,.233-.339,4.427,4.427,0,0,0,.463-1.983,10.093,10.093,0,0,1,.884-2.592l.781-1.741a2.4,2.4,0,0,0,.17-.445,2.668,2.668,0,0,0,.048-.515c0-.27.085-1.251.094-1.514,0-.1-.221-.045-.266-.133-.1-.194-.23.33-.415.445a1.017,1.017,0,0,0-.36.527c-.17.436-.273.908-.43,1.341a2.74,2.74,0,0,1-.73,1.187c-.161.139-.345.251-.5.4a2.718,2.718,0,0,0-.548,1.923C492.248,597.886,492.17,601.865,492.261,601.865Z" transform="translate(-358.911 -461.949)" fill="#2f2e41"/><path d="M503.043,590.375a1.375,1.375,0,0,0-.718.984,4.98,4.98,0,0,1-.363,1.211c-.491.854-1.741,1.1-2.089,2.026a3.725,3.725,0,0,0-.139.954c-.061.663-.279,1.3-.345,1.962a8.742,8.742,0,0,0,.036,1.541l.439,5.214a6.967,6.967,0,0,1-.13,2.3,2.21,2.21,0,0,0,1.314-.218c.409-.188.784-.445,1.181-.663a12.168,12.168,0,0,0,2.026-1.139,1.242,1.242,0,0,0,.273-.3,2.621,2.621,0,0,0,.182-.684,3.7,3.7,0,0,1,.2-.539,15.884,15.884,0,0,0,.569-1.611,9.245,9.245,0,0,0,.26-1.1c.048-.3.076-.606.1-.908a5.33,5.33,0,0,1,.279-1.378,11.1,11.1,0,0,0,.639-3.307,1.729,1.729,0,0,0-.033-.484,2.593,2.593,0,0,0-.266-.554c-.182-.342-.3-.718-.46-1.066a5.241,5.241,0,0,0-1.79-1.88A1.363,1.363,0,0,0,503.043,590.375Z" transform="translate(-363.897 -461.067)" fill="#2f2e41"/><path d="M470.374,614.522a3.159,3.159,0,0,1-.833-.633c-.109-.127-.2-.27-.3-.4a2.061,2.061,0,0,0-1.048-.606,5.117,5.117,0,0,0-1.211-.118,2.2,2.2,0,0,0-.809.1.824.824,0,0,0-.536.575.954.954,0,0,0,.409.848,1.926,1.926,0,0,0,.815.394,6.522,6.522,0,0,0,.736.088,10.713,10.713,0,0,1,4.009,1.656q1.672.951,3.41,1.768a7.083,7.083,0,0,0,.058-1.045c0-.26-.021-.66-.267-.815a5.349,5.349,0,0,0-1.084-.324,17.057,17.057,0,0,1-2.183-.884A10.871,10.871,0,0,1,470.374,614.522Z" transform="translate(-340.377 -476.705)" fill="#fbbebe"/><ellipse cx="2.58" cy="2.595" rx="2.58" ry="2.595" transform="translate(133.749 124.445)" fill="#fbbebe"/><path d="M499.284,599.423a4.139,4.139,0,0,0-.5.936c-.3.654-.818,1.211-1.069,1.9s-.254,1.584-.772,2.15a.755.755,0,0,0-.227.327,1.56,1.56,0,0,1-.024.236c-.076.206-.412.215-.475.427-.018.061,0,.127-.03.188-.051.136-.233.158-.351.239-.251.17-.2.563-.379.808a.681.681,0,0,1-.645.227,2.271,2.271,0,0,1-.669-.251.647.647,0,0,0-.242-.076.5.5,0,0,0-.279.1,1.717,1.717,0,0,0-.7,1.469,4.8,4.8,0,0,0,.4,1.644.66.66,0,0,0,.13.245.578.578,0,0,0,.642.048,3.03,3.03,0,0,1,.627-.282c.4-.073.79.2,1.2.179a1.662,1.662,0,0,0,.805-.354,4.453,4.453,0,0,0,1.084-.908c.176-.233.3-.5.46-.745a9.568,9.568,0,0,1,.651-.869l1.49-1.817a4.188,4.188,0,0,0,.4-.551,3.886,3.886,0,0,0,.3-.833,6.379,6.379,0,0,0,.3-1.481,5.688,5.688,0,0,0-.109-1.242,4.386,4.386,0,0,0-.3-1.184C500.68,599.271,499.893,598.714,499.284,599.423Z" transform="translate(-359.403 -467.174)" fill="#2f2e41"/><path d="M501.144,569.615a2.907,2.907,0,0,0-1.193-2.362,3.455,3.455,0,0,0-2.934-3.364,3.352,3.352,0,0,0-6.6.179c-1.072-.242-2.053.073-2.232.733s.578,1.514,1.708,1.817a3.183,3.183,0,0,0,1.1.109,3.355,3.355,0,0,0,2.307,1.438,3.443,3.443,0,0,0,2.52,2.6,2.891,2.891,0,0,0,.778,1.075v.251a2.183,2.183,0,1,0,4.367,0,2.332,2.332,0,0,0-.209-.966A2.919,2.919,0,0,0,501.144,569.615Z" transform="translate(-356.078 -440.752)" fill="#f86d70"/><path d="M488.9,564.936c.179-.66,1.16-.975,2.232-.733a3.41,3.41,0,0,1,3.331-2.871h.221a3.281,3.281,0,0,0-.951-.142,3.41,3.41,0,0,0-3.331,2.871c-1.072-.242-2.053.073-2.232.733s.578,1.514,1.708,1.817a3.328,3.328,0,0,0,.648.112C489.445,566.4,488.721,565.611,488.9,564.936Z" transform="translate(-356.071 -440.749)" opacity="0.1"/><path d="M503.973,585.208a2.262,2.262,0,0,1,0-.248,2.828,2.828,0,0,1-.778-1.075,3.434,3.434,0,0,1-2.519-2.6,3.346,3.346,0,0,1-2.311-1.435,2.908,2.908,0,0,1-.645-.018,3.364,3.364,0,0,0,2.226,1.323,3.443,3.443,0,0,0,2.519,2.6,2.891,2.891,0,0,0,.778,1.075v.251a2.223,2.223,0,0,0,2.171,2.259A2.259,2.259,0,0,1,503.973,585.208Z" transform="translate(-362.747 -453.744)" opacity="0.1"/><ellipse cx="0.397" cy="0.53" rx="0.397" ry="0.53" transform="translate(136.556 127.388) rotate(-37.22)" fill="#fbbebe"/></g></svg>