<svg xmlns="http://www.w3.org/2000/svg" width="24.65" height="24" viewBox="0 0 24.65 24"><rect width="24" height="24" fill="none"/><g transform="translate(0 -1.654)"><path d="M26.6,21.162l6.279-2.471.1.159-5.281,4.3Z" transform="translate(-13.333 -7.652)" fill="#3a466b"/><path d="M22.917,24a1.917,1.917,0,1,0,1.917,1.917A1.916,1.916,0,0,0,22.917,24Z" transform="translate(-10.417 -10.417)" fill="none" stroke="#3a466b" stroke-linecap="round" stroke-linejoin="round" stroke-miterlimit="10" stroke-width="1.5"/><path d="M22.064,21.891a11.5,11.5,0,1,0-19.129,0" transform="translate(0 0)" fill="none" stroke="#3a466b" stroke-linecap="round" stroke-linejoin="round" stroke-miterlimit="10" stroke-width="1.3"/><line x1="1.437" transform="translate(21.744 15.5)" stroke-width="1" stroke="#3a466b" stroke-linecap="round" stroke-linejoin="round" stroke-miterlimit="10" fill="none"/><line x2="1.437" transform="translate(1 15.5)" stroke-width="1" stroke="#3a466b" stroke-linecap="round" stroke-linejoin="round" stroke-miterlimit="10" fill="none"/><line y2="1.437" transform="translate(12.5 4)" stroke-width="1" stroke="#3a466b" stroke-linecap="round" stroke-linejoin="round" stroke-miterlimit="10" fill="none"/><line x2="0.719" y2="1.245" transform="translate(6.75 5.541)" stroke-width="1" stroke="#3a466b" stroke-linecap="round" stroke-linejoin="round" stroke-miterlimit="10" fill="none"/><line x1="1.245" y1="0.719" transform="translate(21.215 20.531)" stroke-width="1" stroke="#3a466b" stroke-linecap="round" stroke-linejoin="round" stroke-miterlimit="10" fill="none"/><line x2="1.245" y2="0.719" transform="translate(2.541 9.75)" stroke-width="1" stroke="#3a466b" stroke-linecap="round" stroke-linejoin="round" stroke-miterlimit="10" fill="none"/><line y1="0.719" x2="1.245" transform="translate(2.541 20.531)" stroke-width="1" stroke="#3a466b" stroke-linecap="round" stroke-linejoin="round" stroke-miterlimit="10" fill="none"/><line x1="1.244" y2="0.719" transform="translate(21.215 9.75)" stroke-width="1" stroke="#3a466b" stroke-linecap="round" stroke-linejoin="round" stroke-miterlimit="10" fill="none"/><line x1="0.719" y2="1.245" transform="translate(17.531 5.54)" stroke-width="1" stroke="#3a466b" stroke-linecap="round" stroke-linejoin="round" stroke-miterlimit="10" fill="none"/><rect width="9.374" height="2.083" transform="translate(7.77 21.825)" stroke-width="1" stroke="#3a466b" stroke-linecap="round" stroke-linejoin="round" stroke-miterlimit="10" fill="none"/></g></svg>