<svg xmlns="http://www.w3.org/2000/svg" width="32" height="32" viewBox="0 0 32 32"><g transform="translate(-208 -448)"><path d="M16,0A16,16,0,1,1,0,16,16,16,0,0,1,16,0Z" transform="translate(208 448)" fill="#3a55a0"/><g transform="translate(-517.563 -27.857)"><path d="M4201.32,2785.229l.4-2.648h-2.539v-1.718a1.323,1.323,0,0,1,1.492-1.43h1.156v-2.254a14.092,14.092,0,0,0-2.05-.179,3.232,3.232,0,0,0-3.458,3.564v2.018H4194v2.648h2.325v6.4c.181.028,2.576.044,2.861,0v-6.4Z" transform="translate(-3456.438 -2292.143)" fill="#fefefe"/></g></g></svg>