<svg xmlns="http://www.w3.org/2000/svg" width="72" height="72" viewBox="0 0 72 72"><g transform="translate(-151 -256)"><g transform="translate(154 259)" fill="#fff" stroke="#ff7249" stroke-width="3"><circle cx="33" cy="33" r="33" stroke="none"/><circle cx="33" cy="33" r="34.5" fill="none"/></g><g transform="translate(170.37 271)"><path d="M14.416,38.908a3.046,3.046,0,1,1-3.046,3.046,3.046,3.046,0,0,1,3.046-3.046Zm6.459,3.046a3.046,3.046,0,1,0,3.046-3.046,3.046,3.046,0,0,0-3.046,3.046Zm9.5,0a3.046,3.046,0,1,0,3.046-3.046,3.046,3.046,0,0,0-3.046,3.046Zm9.491,0a3.046,3.046,0,1,0,3.046-3.046A3.046,3.046,0,0,0,39.871,41.954ZM33.018,14.465v-2.24a4.479,4.479,0,0,0-3.9-4.524,4.6,4.6,0,0,0-.52-.031,4.327,4.327,0,0,0-2.907,1.12,4.4,4.4,0,0,0-1.129,1.586,2.8,2.8,0,0,1-2.593,1.684,2.831,2.831,0,0,1-2.656-3.866A10.109,10.109,0,0,1,28.673,2H28.9A10.257,10.257,0,0,1,38.68,12.271v2.24h-.058a3.256,3.256,0,0,1,2.719,3.207V29.542a3.261,3.261,0,0,1-3.261,3.274H19.267a3.261,3.261,0,0,1-3.261-3.261V17.731a3.261,3.261,0,0,1,3.261-3.265Zm-4.927,4.354a2.979,2.979,0,0,0-.99,5.451v2.688a1.572,1.572,0,0,0,1.572,1.559h0a1.572,1.572,0,0,0,1.572-1.572V24.257a2.979,2.979,0,0,0-2.154-5.438Z" transform="translate(-11.37 -2)" fill="#ff7249"/></g></g></svg>