<svg xmlns="http://www.w3.org/2000/svg" width="127" height="36" viewBox="0 0 127 36"><g transform="translate(-725 -634)"><rect width="127" height="36" rx="18" transform="translate(725 634)" fill="#de4a3e"/><text transform="translate(818 657)" fill="#fff" font-size="13" font-family="SegoeUI, Segoe UI"><tspan x="-41.755" y="0">Google</tspan></text><g transform="translate(745 645)"><path d="M0,0H14.657V14.657H0Z" fill="none"/><path d="M2.65,5.365A6.1,6.1,0,0,1,8.107,2a5.864,5.864,0,0,1,4.086,1.591L10.442,5.342a3.3,3.3,0,0,0-2.335-.914A3.679,3.679,0,1,0,10.175,11.2a2.809,2.809,0,0,0,1.219-1.843H8.107V7h5.752a7.022,7.022,0,0,1,.111,1.249,5.952,5.952,0,0,1-1.821,4.489,5.828,5.828,0,0,1-4.042,1.48A6.108,6.108,0,0,1,2.65,5.365Z" transform="translate(-0.779 -0.779)" fill="#fff"/></g></g></svg>