<svg xmlns="http://www.w3.org/2000/svg" width="8.13" height="14.5" viewBox="0 0 8.13 14.5"><g transform="translate(0 14.5) rotate(-90)" opacity="0.7"><g transform="translate(0 0)"><path d="M12.985.261,12.35.9l-1.52,1.52L8.992,4.253,7.4,5.841c-.257.257-.518.511-.772.772l-.01.01H7.876l-.635-.635-1.52-1.52L3.884,2.631,2.3,1.043C2.039.786,1.783.526,1.523.271l-.01-.01A.912.912,0,0,0,.887,0,.888.888,0,0,0,0,.887a.922.922,0,0,0,.26.626L.9,2.148l1.52,1.52L4.253,5.506,5.841,7.093c.257.257.513.517.772.772l.01.01a.9.9,0,0,0,1.254,0l.635-.635,1.52-1.52L11.87,3.884,13.457,2.3c.257-.257.517-.513.772-.772l.01-.01A.913.913,0,0,0,14.5.887.888.888,0,0,0,13.614,0a.927.927,0,0,0-.629.26Z" fill="#fff"/></g></g></svg>