<svg fill="#fd8041" xmlns="http://www.w3.org/2000/svg" xmlns:xlink="http://www.w3.org/1999/xlink" xmlns:svgjs="http://svgjs.com/svgjs" version="1.1" width="512" height="512" x="0" y="0" viewBox="0 0 480 480" style="enable-background:new 0 0 512 512" xml:space="preserve" class=""><g>
<g xmlns="http://www.w3.org/2000/svg">
	<g>
		<path d="M440,160h-16.888C433.52,149.824,440,135.664,440,120c0-30.872-25.12-56-56-56s-56,25.128-56,56    c0,15.664,6.48,29.824,16.888,40h-6.464l-77.912-51.944C281.256,99.848,296,79.632,296,56c0-30.872-25.12-56-56-56    s-56,25.128-56,56c0,23.632,14.744,43.848,35.496,52.056L141.576,160h-6.464C145.52,149.824,152,135.664,152,120    c0-30.872-25.12-56-56-56s-56,25.128-56,56c0,15.664,6.48,29.824,16.888,40H40c-22.056,0-40,17.944-40,40v120c0,4.424,3.584,8,8,8    h32v144c0,4.424,3.584,8,8,8h48h48c4.416,0,8-3.576,8-8V228.28l88-58.664l88,58.664V472c0,4.424,3.584,8,8,8h48h48    c4.416,0,8-3.576,8-8V328h32c4.416,0,8-3.576,8-8V200C480,177.944,462.056,160,440,160z M344,120c0-22.056,17.944-40,40-40    c22.056,0,40,17.944,40,40c0,22.056-17.944,40-40,40c-6.088,0-11.8-1.472-16.976-3.92C377.072,150.68,384,140.192,384,128h-16    c0,8.752-7.072,15.88-15.808,15.984C347.12,137.28,344,129.032,344,120z M56,120c0-22.056,17.944-40,40-40    c22.056,0,40,17.944,40,40c0,9.032-3.12,17.28-8.192,23.984C119.072,143.88,112,136.752,112,128H96    c0,12.192,6.928,22.68,16.976,28.08C107.8,158.528,102.088,160,96,160C73.944,160,56,142.056,56,120z M107.056,176L96,198.112    L84.944,176H107.056z M232,155.72l-92.44,61.624c-2.224,1.488-3.56,3.984-3.56,6.656v240h-32V312H88v152H56V216H40v96H16V200    c0-13.232,10.768-24,24-24h27.056l21.792,43.576C90.2,222.288,92.968,224,96,224s5.8-1.712,7.16-4.424L124.944,176H144    c1.576,0,3.128-0.472,4.44-1.344L232,118.944V155.72z M200,56c0-22.056,17.944-40,40-40c22.056,0,40,17.944,40,40    c0,22.056-17.944,40-40,40C217.944,96,200,78.056,200,56z M464,312h-24v-96h-16v248h-32V312h-16v152h-32V224    c0-2.672-1.336-5.168-3.56-6.656L248,155.72v-36.776l83.56,55.712c1.312,0.872,2.864,1.344,4.44,1.344h40v88h16v-88h48    c13.232,0,24,10.768,24,24V312z" fill="#fd8041" data-original="#000000" style="" class=""/>
	</g>
</g>
<g xmlns="http://www.w3.org/2000/svg">
	<g>
		<polygon points="248,48 248,32 232,32 232,48 216,48 216,64 232,64 232,80 248,80 248,64 264,64 264,48   " fill="#fd8041" data-original="#000000" style="" class=""/>
	</g>
</g>
<g xmlns="http://www.w3.org/2000/svg">
</g>
<g xmlns="http://www.w3.org/2000/svg">
</g>
<g xmlns="http://www.w3.org/2000/svg">
</g>
<g xmlns="http://www.w3.org/2000/svg">
</g>
<g xmlns="http://www.w3.org/2000/svg">
</g>
<g xmlns="http://www.w3.org/2000/svg">
</g>
<g xmlns="http://www.w3.org/2000/svg">
</g>
<g xmlns="http://www.w3.org/2000/svg">
</g>
<g xmlns="http://www.w3.org/2000/svg">
</g>
<g xmlns="http://www.w3.org/2000/svg">
</g>
<g xmlns="http://www.w3.org/2000/svg">
</g>
<g xmlns="http://www.w3.org/2000/svg">
</g>
<g xmlns="http://www.w3.org/2000/svg">
</g>
<g xmlns="http://www.w3.org/2000/svg">
</g>
<g xmlns="http://www.w3.org/2000/svg">
</g>
</g></svg>
