<svg xmlns="http://www.w3.org/2000/svg" width="24" height="15.467" viewBox="0 0 24 15.467"><path d="M9.267,30.6H14.6a.535.535,0,0,0,.533-.533V24.733A.535.535,0,0,0,14.6,24.2H9.267a.535.535,0,0,0-.533.533v5.333A.535.535,0,0,0,9.267,30.6ZM9.8,25.267h4.267v4.267H9.8Zm15.467-.533a.535.535,0,0,1-.533.533H17.267a.533.533,0,0,1,0-1.067h7.467A.535.535,0,0,1,25.267,24.733Zm0,2.667a.535.535,0,0,1-.533.533H17.267a.533.533,0,1,1,0-1.067h7.467A.535.535,0,0,1,25.267,27.4Zm0,2.667a.535.535,0,0,1-.533.533H17.267a.533.533,0,0,1,0-1.067h7.467A.535.535,0,0,1,25.267,30.067Zm0,2.667a.535.535,0,0,1-.533.533H9.267a.533.533,0,1,1,0-1.067H24.733A.535.535,0,0,1,25.267,32.733ZM27.933,25.8h.533A.535.535,0,0,0,29,25.267V22.6a.535.535,0,0,0-.533-.533h-.533a.535.535,0,0,1-.533-.533A.535.535,0,0,0,26.867,21H7.133a.535.535,0,0,0-.533.533.535.535,0,0,1-.533.533H5.533A.535.535,0,0,0,5,22.6v2.667a.535.535,0,0,0,.533.533h.533a.533.533,0,0,1,0,1.067H5.533A.535.535,0,0,0,5,27.4v2.667a.535.535,0,0,0,.533.533h.533a.533.533,0,1,1,0,1.067H5.533A.535.535,0,0,0,5,32.2v2.667a.535.535,0,0,0,.533.533h.533a.535.535,0,0,1,.533.533.535.535,0,0,0,.533.533H26.867a.535.535,0,0,0,.533-.533.535.535,0,0,1,.533-.533h.533A.535.535,0,0,0,29,34.867V32.2a.535.535,0,0,0-.533-.533h-.533a.533.533,0,0,1,0-1.067h.533A.535.535,0,0,0,29,30.067V27.4a.535.535,0,0,0-.533-.533h-.533a.533.533,0,0,1,0-1.067Zm0,2.133v1.6a1.6,1.6,0,1,0,0,3.2v1.6A1.6,1.6,0,0,0,26.424,35.4H7.576a1.6,1.6,0,0,0-1.509-1.067v-1.6a1.6,1.6,0,1,0,0-3.2v-1.6a1.6,1.6,0,1,0,0-3.2v-1.6a1.6,1.6,0,0,0,1.509-1.067H26.427a1.6,1.6,0,0,0,1.509,1.067v1.6a1.6,1.6,0,0,0,0,3.2Z" transform="translate(-5 -21)" fill="#3a466b"/></svg>