<svg xmlns="http://www.w3.org/2000/svg" width="24" height="24" viewBox="0 0 24 24"><rect width="24" height="24" fill="none"/><g transform="translate(3 0.648)"><path d="M69.989,0H52.815a.443.443,0,0,0-.443.443V19.138a.45.45,0,0,0,.128.312l3.094,3.125a.448.448,0,0,0,.316.131H69.989a.443.443,0,0,0,.443-.443V.443A.443.443,0,0,0,69.989,0ZM55.466,21.176l-.778-.792-.793-.8h1.571Zm14.079.643H68.517V14.564a.443.443,0,1,0-.887,0v7.255H56.353V19.138a.443.443,0,0,0-.443-.443H53.259V.887H67.63v9.778a.443.443,0,1,0,.887,0V.887h1.028Z" transform="translate(-52.372)" fill="#3a466b" stroke="#3a466b" stroke-width="0.5"/><path d="M116.872,69.305l.46-1.107h1.538l.45,1.1a.443.443,0,0,0,.821-.335l-.564-1.384v0L118.523,65a.443.443,0,0,0-.409-.276h0a.443.443,0,0,0-.41.273l-1.075,2.588v0l-.574,1.381a.443.443,0,1,0,.819.34Zm1.236-2.977.4.983H117.7Z" transform="translate(-113.196 -61.849)" fill="#3a466b" stroke="#3a466b" stroke-width="0.5"/><path d="M202.124,62.649h.14v.14a.443.443,0,0,0,.887,0v-.14h.14a.443.443,0,0,0,0-.887h-.14v-.14a.443.443,0,0,0-.887,0v.14h-.14a.443.443,0,1,0,0,.887Z" transform="translate(-195.06 -58.465)" fill="#3a466b" stroke="#3a466b" stroke-width="0.5"/><path d="M131.841,209.221h-9.246a.443.443,0,1,0,0,.887h9.246a.443.443,0,1,0,0-.887Z" transform="translate(-119.056 -199.943)" fill="#3a466b" stroke="#3a466b" stroke-width="0.5"/><path d="M131.841,276.66h-9.246a.443.443,0,1,0,0,.887h9.246a.443.443,0,1,0,0-.887Z" transform="translate(-119.056 -264.391)" fill="#3a466b" stroke="#3a466b" stroke-width="0.5"/><path d="M131.841,344.1h-9.246a.443.443,0,1,0,0,.887h9.246a.443.443,0,1,0,0-.887Z" transform="translate(-119.056 -328.839)" fill="#3a466b" stroke="#3a466b" stroke-width="0.5"/><path d="M183.272,411.538h-6.86a.443.443,0,1,0,0,.887h6.86a.443.443,0,1,0,0-.887Z" transform="translate(-170.488 -393.287)" fill="#3a466b" stroke="#3a466b" stroke-width="0.5"/><path d="M276.453,74.343h-2.536a.443.443,0,1,0,0,.887h2.536a.443.443,0,1,0,0-.887Z" transform="translate(-263.669 -71.046)" fill="#3a466b" stroke="#3a466b" stroke-width="0.5"/><path d="M260.941,141.782h-3.256a.443.443,0,1,0,0,.887h3.256a.443.443,0,1,0,0-.887Z" transform="translate(-248.157 -135.494)" fill="#3a466b" stroke="#3a466b" stroke-width="0.5"/><path d="M397.319,274.964a.443.443,0,1,0-.24.579A.448.448,0,0,0,397.319,274.964Z" transform="translate(-381.207 -262.509)" fill="#3a466b" stroke="#3a466b" stroke-width="0.5"/></g></svg>