<svg xmlns="http://www.w3.org/2000/svg" width="24" height="24" viewBox="0 0 24 24"><rect width="24" height="24" fill="none"/><g transform="translate(0 1)"><path d="M36.645,28.891A4.345,4.345,0,1,0,32.3,24.545,4.345,4.345,0,0,0,36.645,28.891Zm0-7.528a3.183,3.183,0,1,1-3.183,3.183A3.186,3.186,0,0,1,36.645,21.362Z" transform="translate(-24.772 -17.017)" fill="#3a466b"/><path d="M43.165,34.983a.52.52,0,0,0,.429.177.717.717,0,0,0,.429-.177l1.617-1.743a.572.572,0,1,0-.834-.783l-1.213,1.288-.429-.48a.572.572,0,0,0-.834.783Z" transform="translate(-32.15 -26.04)" fill="#3a466b"/><path d="M25.439,21.444H21.6V8.636A1.04,1.04,0,0,0,20.563,7.6H4.673A1.063,1.063,0,0,0,3.612,8.636v2.754H3.081a.581.581,0,1,0,0,1.162h.556v3.082H3.081a.581.581,0,0,0,0,1.162h.556v3.082H3.081a.581.581,0,0,0,0,1.162h.556v3.082H3.081a.581.581,0,0,0,0,1.162h.556v2.728A1.067,1.067,0,0,0,4.7,29.074H20.563A1.046,1.046,0,0,0,21.6,28.013V25.865h3.84A1.067,1.067,0,0,0,26.5,24.8V22.531A1.073,1.073,0,0,0,25.439,21.444Zm-12.2,3.234-1.642-1.036,1.617-1.036h.859v2.1h-.834Zm2-2.1,7.554-.051v2.147H15.233ZM4.774,25.234h.556a.581.581,0,1,0,0-1.162H4.774V21.015h.556a.581.581,0,1,0,0-1.162H4.774V16.771h.556a.581.581,0,1,0,0-1.162H4.774V12.526h.556a.581.581,0,0,0,0-1.162H4.774V8.737H7.148V27.861H4.774Zm15.688,2.653H8.336V8.737H20.462V21.444H13.212a1.019,1.019,0,0,0-.556.152l-1.794,1.137a1.094,1.094,0,0,0-.505.909,1.037,1.037,0,0,0,.505.909l1.794,1.137h0a1.082,1.082,0,0,0,.556.152h7.225v2.046Zm3.486-3.208V22.505h1.389l.1,2.173Z" transform="translate(-2.5 -7.6)" fill="#3a466b"/></g></svg>