<svg xmlns="http://www.w3.org/2000/svg" xmlns:xlink="http://www.w3.org/1999/xlink" width="295.928" height="228.333" viewBox="0 0 295.928 228.333"><defs><linearGradient id="a" x1="0.5" y1="1" x2="0.5" gradientUnits="objectBoundingBox"><stop offset="0" stop-color="gray" stop-opacity="0.251"/><stop offset="0.54" stop-color="gray" stop-opacity="0.122"/><stop offset="1" stop-color="gray" stop-opacity="0.102"/></linearGradient><linearGradient id="b" x1="0.5" y1="1" x2="0.5" y2="0" xlink:href="#a"/><linearGradient id="c" x1="0.5" y1="1" x2="0.5" gradientUnits="objectBoundingBox"><stop offset="0" stop-opacity="0.122"/><stop offset="0.55" stop-opacity="0.09"/><stop offset="1" stop-opacity="0.02"/></linearGradient><linearGradient id="d" x1="0.5" y1="1.001" x2="0.5" y2="0.001" xlink:href="#c"/><linearGradient id="e" x1="0.5" y1="1" x2="0.5" y2="0" xlink:href="#c"/><linearGradient id="g" x1="0.5" y1="1" x2="0.5" y2="0" xlink:href="#c"/><linearGradient id="i" x1="0.501" y1="1" x2="0.501" y2="-0.04" xlink:href="#a"/><linearGradient id="j" x1="0.5" y1="1" x2="0.5" y2="0" xlink:href="#a"/><linearGradient id="k" x1="246.583" y1="-1170.459" x2="246.583" y2="-1171.347" xlink:href="#a"/><linearGradient id="l" x1="1.415" y1="-0.941" x2="1.415" y2="-1.927" xlink:href="#a"/></defs><g transform="translate(0.03)"><path d="M538.514,643.107c-.167-.164-.342-.342-.465-.482a2.05,2.05,0,0,1-.482-.926h.123l.058-.263a25.259,25.259,0,0,0-7.578-23.892.28.28,0,0,0,.034-.062,26.37,26.37,0,0,0,.3-15.668,45.423,45.423,0,0,0,4.054-6.084c4.18-3.2,8.521-7.82,9.858-13.829a17.4,17.4,0,0,0,.342-1.976,2.112,2.112,0,0,0,.314-2.434,2.311,2.311,0,0,0-.15-.318.8.8,0,0,0-.058-.089,2.012,2.012,0,0,0-.12-.174l-.079-.089q-.06-.066-.126-.126l-.089-.075-.137-.1-.1-.058-.147-.072-.092-.041-.164-.055-.082-.024a2.082,2.082,0,0,0-.232-.048h0a3.656,3.656,0,0,0-1.548.154s-1.23,2.133-.749,2.946c-.372.472-1.367,1.733-2.734,3.353a18.46,18.46,0,0,0-.407-4.04,17.425,17.425,0,0,0-.5-1.941,2.09,2.09,0,0,0-.718-2.345,2.332,2.332,0,0,0-.267-.229l-.089-.058a2.019,2.019,0,0,0-.181-.109l-.106-.048a1.674,1.674,0,0,0-.167-.065l-.109-.031-.164-.034h-.376l-.174.017h-.085a1.909,1.909,0,0,0-.232.055h0a3.656,3.656,0,0,0-1.347.779s-.239,2.451.533,2.994a118.061,118.061,0,0,1-4.56,14.345A27.38,27.38,0,0,1,527,593.905v-.526a2.715,2.715,0,0,0,0-.291h0a2.689,2.689,0,0,0-.044-.277l.044-.024.185-.1.267-.164.171-.109q.192-.133.369-.277l.14-.12c.085-.072.164-.147.246-.222l.116-.164q.147-.15.284-.314l.1-.12a3.8,3.8,0,0,0,.246-.342l.1-.147q.106-.164.2-.342l.062-.109c.079-.147.15-.3.219-.451l.055-.137q.075-.185.137-.379a.507.507,0,0,1,.045-.133c.051-.164.1-.342.13-.506a.217.217,0,0,1,.017-.1q.041-.219.068-.441v-.15c0-.181.027-.362.027-.55a6,6,0,0,0-.773-2.946l.284-.075.208-.065c.079-.027.116-.051.106-.068-.147-.2-.3-.386-.451-.571l-.15-.171a2.488,2.488,0,0,0-.342-.342l-.174-.178c-.109-.106-.219-.212-.342-.311l-.171-.154c-.137-.12-.273-.229-.414-.342l-.089-.072c-.167-.123-.342-.239-.5-.342l-.191-.116c-.109-.068-.222-.133-.342-.195l-.222-.116-.311-.15-.229-.1c-.109-.045-.222-.089-.342-.127l-.208-.075c-.167-.055-.342-.1-.5-.147l-.26-.058-.277-.058-.28-.044-.256-.031-.287-.024h-.537a4.71,4.71,0,0,0-.475.024h0c-3.719.3-6.973,3.551-6.973,8.709v4.286h5.811v1.941a6.026,6.026,0,0,0-3.5,5.469v16.533l-4.877,22.661h-.024v.061h0l-.957,4.266,7.25,1.159a.373.373,0,0,0,.229-.427,1.343,1.343,0,0,0-.085-.342,5.742,5.742,0,0,0-.414-.813c-.256-.441-.561-.913-.766-1.34a2.992,2.992,0,0,1-.236-.684,2.664,2.664,0,0,1-.048-.369l5.336-17.534h-.024l.126-.414s6.809,2.919,8.545,8.754c1.418,4.73.537,7.8.154,8.788h-.024v.058c-.075.188-.13.294-.13.294h.13v3.209h7.359C540.093,644.529,539.238,643.815,538.514,643.107Z" transform="translate(-394.218 -417.3)" fill="url(#a)"/><path d="M543.266,624.945s12.695-13.347,8.545-26.175l-3.329.684s-4.467,18.8-9.229,21.5S543.266,624.945,543.266,624.945Z" transform="translate(-411.139 -433.748)" fill="#ff7249"/><path d="M543.266,624.945s12.695-13.347,8.545-26.175l-3.329.684s-4.467,18.8-9.229,21.5S543.266,624.945,543.266,624.945Z" transform="translate(-411.139 -433.748)" opacity="0.05"/><path d="M561.1,599.423l.554-.113c4.136,12.828-8.545,26.175-8.545,26.175l-.39-.065C554.183,623.814,564.96,611.386,561.1,599.423Z" transform="translate(-420.934 -434.104)" fill="#fff" opacity="0.2"/><path d="M571.012,593.656s.923-1.148-.523-2.587-3.216.267-3.216.267-.253,2.553.6,2.957S571.012,593.656,571.012,593.656Z" transform="translate(-430.49 -428.3)" fill="#985454"/><path d="M573.214,593.754s.923-1.148-.523-2.587a1.809,1.809,0,0,0-1.542-.564,1.832,1.832,0,0,1,1.911.489c1.446,1.439.523,2.587.523,2.587a10.23,10.23,0,0,1-2.126.684A11.174,11.174,0,0,0,573.214,593.754Z" transform="translate(-433.065 -428.313)" fill="#fff" opacity="0.2"/><rect width="274.268" height="166.73" rx="27.5" transform="translate(8.187)" fill="url(#b)"/><rect width="267.165" height="160.674" rx="27.5" transform="translate(11.301 1.699)" fill="#fff"/><rect width="7.786" height="22.108" transform="translate(32.164 26.92)" fill="#e0e0e0"/><rect width="7.786" height="22.108" transform="translate(42.128 26.92)" fill="#e0e0e0"/><rect width="7.786" height="22.108" transform="translate(52.091 26.92)" fill="#e0e0e0"/><rect width="7.786" height="22.108" transform="translate(69.53 26.92)" fill="#e0e0e0"/><rect width="7.786" height="22.108" transform="translate(79.493 26.92)" fill="#e0e0e0"/><rect width="7.786" height="22.108" transform="translate(89.457 26.92)" fill="#e0e0e0"/><rect width="7.786" height="22.108" transform="translate(106.896 26.92)" fill="#e0e0e0"/><rect width="7.786" height="22.108" transform="translate(116.859 26.92)" fill="#e0e0e0"/><rect width="7.786" height="22.108" transform="translate(126.823 26.92)" fill="#e0e0e0"/><rect width="7.786" height="22.108" transform="translate(144.261 26.92)" fill="#e0e0e0"/><rect width="7.786" height="22.108" transform="translate(154.225 26.92)" fill="#e0e0e0"/><rect width="7.786" height="22.108" transform="translate(164.188 26.92)" fill="#e0e0e0"/><rect width="67.882" height="9.963" transform="translate(32.164 138.395)" fill="#bdbdbd"/><rect width="117.703" height="9.963" transform="translate(32.164 121.582)" fill="#e0e0e0"/><path d="M794.791,331a1.641,1.641,0,0,1,1.579-1.709h2.348V315.28H777.8v16.133h16.994Z" transform="translate(-569.082 -247.156)" fill="url(#c)"/><path d="M796.363,401.5a1.641,1.641,0,0,1-1.579-1.709v-.41H777.79v16.133h20.922V401.5Z" transform="translate(-569.075 -302.51)" fill="url(#d)"/><rect width="16.994" height="8.419" transform="translate(208.715 86.363)" fill="url(#e)"/><path d="M848.651,399.83a1.641,1.641,0,0,1-1.579,1.709H844.73v14.014h20.918V399.42h-17Z" transform="translate(-613.135 -302.537)" fill="url(#c)"/><path d="M844.72,315.28v14.014h2.341A1.641,1.641,0,0,1,848.64,331v.41h16.994V315.28Z" transform="translate(-613.129 -247.156)" fill="url(#g)"/><rect width="16.994" height="8.419" transform="translate(235.515 86.363)" fill="url(#e)"/><path d="M796.5,334.869a1.507,1.507,0,0,1,1.507-1.5h2.235V320.91H780.29v14.325H796.5Z" transform="translate(-570.721 -250.861)" fill="#ff7249"/><path d="M798.009,397.476a1.507,1.507,0,0,1-1.507-1.5v-.362H780.29v14.325h19.951V397.476Z" transform="translate(-570.721 -300.029)" fill="#ff7249"/><rect width="16.212" height="7.472" transform="translate(209.569 86.24)" fill="#ff7249"/><path d="M847.873,395.972a1.507,1.507,0,0,1-1.507,1.5H844.13v12.455h19.951V395.61H847.873Z" transform="translate(-612.74 -300.029)" fill="#ff7249"/><path d="M844.14,320.91v12.455h2.235a1.507,1.507,0,0,1,1.507,1.5v.362h16.212V320.91Z" transform="translate(-612.747 -250.861)" fill="#ff7249"/><rect width="16.212" height="7.472" transform="translate(235.132 86.24)" fill="#ff7249"/><g transform="translate(7.739 150.106)" opacity="0.2"><path d="M189.946,555.245l.031-.1S189.6,555.088,189.946,555.245Z" transform="translate(-189.799 -555.133)" fill="url(#i)"/></g><g transform="translate(-0.03 147.996)" opacity="0.2"><path d="M210.257,557.457a2.467,2.467,0,0,0-.133-.342c0-.034-.038-.065-.055-.1a2.1,2.1,0,0,0-.113-.191c-.024-.034-.051-.065-.075-.1q-.058-.075-.123-.143l-.089-.085a1.416,1.416,0,0,0-.137-.113l-.1-.068-.15-.089-.1-.051-.171-.072-.085-.034q-.123-.041-.243-.068h0a3.866,3.866,0,0,0-1.644.044s-1.569,2.314-.964,3.144l-.2-.061s-11.652,12.989-18.225,15.415q-.253-.171-.523-.321v-2.43a2.882,2.882,0,0,0,0-.3h0a2.845,2.845,0,0,0-.048-.291l.048-.027.195-.109.284-.171.181-.116q.2-.14.393-.294l.147-.126c.089-.075.174-.154.26-.236l.15-.147a4.346,4.346,0,0,0,.3-.342l.106-.13q.137-.168.26-.342l.106-.157q.113-.171.215-.342l.065-.116c.082-.154.161-.314.229-.479l.058-.143q.079-.2.147-.4a.455.455,0,0,1,.048-.14,4.855,4.855,0,0,0,.137-.533.215.215,0,0,1,.02-.109q.044-.229.072-.465v-.157c.017-.191.031-.386.031-.581a6.344,6.344,0,0,0-1.415-4c.5-.779.824-1.237.824-1.237-.3-.205-.595-.4-.889-.574l-.284-.167c-.195-.116-.393-.232-.585-.342l-.342-.174c-.174-.092-.342-.181-.523-.267l-.342-.154c-.167-.075-.342-.15-.5-.215l-.342-.13c-.164-.065-.342-.123-.492-.178l-.308-.1c-.167-.055-.342-.1-.5-.143l-.273-.075c-.188-.044-.373-.085-.557-.12l-.2-.041c-.25-.044-.5-.079-.745-.1h0a8.887,8.887,0,0,0-4.474.684,8.282,8.282,0,0,1,1-4.177l-.154-.051-.055.051s-.185.041-.468.092a3.91,3.91,0,0,0-.243.455,5.205,5.205,0,0,1,.714-1.781l-.154-.051c.222-.226,1.025-1.213-.055-2.827-1.234-1.849-3.5-.41-3.5-.41a9.57,9.57,0,0,0-.342,1.866c-.174-.068-.294-.123-.376-.164a46.6,46.6,0,0,0-1.757,11.737c-4.074,5.787-5.763,14.328-6.091,16.171h0l-.024.147h0c-.024.133-.034.205-.034.205l10.6.246v16.885l-7.732,16.3s2.922.106,7.366.684l-1.22,8.723h0l-.407,2.447h7.342c.817-1.63-3.264-2.447-3.264-2.447h-.092l1.593-8.138q1.056.178,2.17.39a21.256,21.256,0,0,0,3.305.373h0a17.571,17.571,0,0,0,2.752-.12,19.267,19.267,0,0,1-.3,7.5h-.044l-.407,2.447h7.342c.711-1.422-2.3-2.225-3.076-2.393l.034-.239a40.955,40.955,0,0,0,.291-8.309,10.056,10.056,0,0,0,2.611-1.559h0l.1-.089h0l.031-.031-5.469-15.336c1.025-4.341-2.536-8.887-.636-11.18s.735-5.189.526-5.684c5.127-2.242,15.514-7.861,18.426-17.592a18.411,18.411,0,0,0,.52-2.085S210.9,559.586,210.257,557.457Z" transform="translate(-167.07 -548.959)" fill="url(#j)"/></g><path d="M190.465,563.772s-5.568,17.558,3.76,27.279l2.7-2.051s-5.517-19.165-2.43-23.666C189.05,563.5,190.465,563.772,190.465,563.772Z" transform="translate(-181.413 -410.704)" fill="#ff5252"/><path d="M198.08,561.574s1.131-.943,0-2.642-3.206-.376-3.206-.376-.755,2.451,0,3.018S198.08,561.574,198.08,561.574Z" transform="translate(-185.179 -406.956)" fill="#f6b9ad"/><rect width="5.281" height="7.827" rx="2.64" transform="translate(20.16 177.255) rotate(180)" fill="#f6b9ad"/><path d="M204.968,595.208s-5.448-18.929-2.481-23.584c.263-.048.431-.085.431-.085l.048-.048.14.048c-3.076,4.5,2.43,23.666,2.43,23.666l-2.7,2.051L202.6,597Z" transform="translate(-189.829 -415.793)" fill="#fff" opacity="0.2"/><circle cx="5.848" cy="5.848" r="5.848" transform="translate(11.578 160.465)" fill="#f6b9ad"/><path d="M219.576,599.607V597.06a2.623,2.623,0,0,0-.062-.554,5.848,5.848,0,0,0-2.345-11.037h.342a5.848,5.848,0,0,1,2.676,11.037,2.621,2.621,0,0,1,.061.554v2.546a2.622,2.622,0,0,1-2.97,2.618,2.649,2.649,0,0,0,2.3-2.618Z" transform="translate(-200.076 -424.994)" fill="#fff" opacity="0.2"/><path d="M200.76,645.679s11.279,1.275,11.7,0c1.347-4.126-2.263-8.569-.451-10.743,1.873-2.246.451-5.288.451-5.288a5.848,5.848,0,0,0-5.848-5.848h0a5.848,5.848,0,0,0-5.848,5.848Z" transform="translate(-189.275 -450.223)" fill="#ff5252"/><path d="M222.583,634.936c1.873-2.246.451-5.288.451-5.288a5.848,5.848,0,0,0-5.848-5.848,2.312,2.312,0,0,0-.376.021,5.841,5.841,0,0,1,5.469,5.828s1.422,3.042-.451,5.288c-1.815,2.177,1.794,6.621.451,10.743-.13.393-1.292.543-2.837.564,1.907.02,3.438-.109,3.585-.564C224.395,641.553,220.771,637.11,222.583,634.936Z" transform="translate(-199.839 -450.223)" fill="#fff" opacity="0.2"/><path d="M207.221,686.72h0c4.126,5.838,5.937,14.653,4.761,23.137l-.034.253h-3.524s1.09-3.206,0-8.866a14.014,14.014,0,0,0-5.332-8.487L199.7,710.109H196.43L199.7,686.72Z" transform="translate(-186.425 -491.637)" fill="#f6b9ad"/><path d="M279.845,580.731s1.367-.571.772-2.526-2.957-1.3-2.957-1.3-1.439,2.123-.885,2.885S279.845,580.731,279.845,580.731Z" transform="translate(-239.225 -419.288)" fill="#f6b9ad"/><path d="M220.4,605.307s17.521-5.677,20.016-18.922l-3.247-.995s-12.9,14.4-18.351,14.5S220.4,605.307,220.4,605.307Z" transform="translate(-199.797 -424.942)" fill="#ff5252"/><path d="M246.137,588.34l.54.167c-2.481,13.248-20.006,18.926-20.006,18.926l-.311-.243C228.421,606.466,243.823,600.7,246.137,588.34Z" transform="translate(-206.125 -426.884)" fill="#fff" opacity="0.2"/><g transform="translate(12.524 195.083)" opacity="0.2"><path d="M207.194,704.37,203.8,721.723h.752l3.295-16.847A8.1,8.1,0,0,0,207.194,704.37Z" transform="translate(-203.8 -698.337)" fill="#fff"/><path d="M226.559,686.72h-.749c4.126,5.838,5.937,14.653,4.761,23.137l-.034.253h.749l.034-.253C232.489,701.373,230.66,692.555,226.559,686.72Z" transform="translate(-218.287 -686.72)" fill="#fff"/></g><path d="M281.382,580.76s1.367-.571.772-2.526A1.808,1.808,0,0,0,281.071,577a1.832,1.832,0,0,1,1.446,1.34c.584,1.955-.772,2.526-.772,2.526a10.218,10.218,0,0,1-2.194-.414A11.158,11.158,0,0,0,281.382,580.76Z" transform="translate(-241.134 -419.42)" fill="#fff" opacity="0.2"/><path d="M187.1,685.94,180,700.914a87.954,87.954,0,0,1,12.353,1.5c7.861,1.5,11.6-2.246,11.6-2.246l-5.069-14.222Z" transform="translate(-175.611 -491.124)" fill="#263238"/><path d="M199.073,754.94s3.76.749,2.994,2.246H195.33l.376-2.246Z" transform="translate(-185.701 -536.539)" fill="#ff5252"/><path d="M234.113,754.94s3.76.749,2.994,2.246H230.37l.376-2.246Z" transform="translate(-208.764 -536.539)" fill="#ff5252"/><path d="M193.293,583.477s-8.986,12.725-4.867,17.951l-16.1-.376S176.821,572.249,193.293,583.477Z" transform="translate(-170.562 -421.973)" fill="#fccc63"/><path d="M193.3,583.563a13.662,13.662,0,0,0-6.269-2.553,15.848,15.848,0,0,1,4.4,2.181s-8.983,12.725-4.867,17.968l-14.168-.342c-.038.212-.055.342-.055.342l16.1.376C184.313,596.289,193.3,583.563,193.3,583.563Z" transform="translate(-170.569 -422.059)" fill="#fff" opacity="0.2"/><path d="M228.53,685.94h-1.111l5.069,14.222s-2.42,2.413-7.448,2.588c5.79.184,8.569-2.588,8.569-2.588Z" transform="translate(-205.256 -491.124)" fill="#fff" opacity="0.2"/><path d="M204.839,754.94h-.749s3.76.749,2.994,2.246h.735C208.581,755.689,204.839,754.94,204.839,754.94Z" transform="translate(-191.467 -536.539)" fill="#fff" opacity="0.2"/><path d="M239.879,754.94h-.749s3.76.749,2.994,2.246h.749C243.621,755.689,239.879,754.94,239.879,754.94Z" transform="translate(-214.53 -536.539)" fill="#fff" opacity="0.2"/><g transform="translate(281.84 154.916)" opacity="0.2"><path d="M991.73,569.23l.034.082C992.038,569.135,991.73,569.23,991.73,569.23Z" transform="translate(-991.73 -569.205)" fill="url(#k)"/></g><g transform="translate(256.507 153.411)" opacity="0.2"><path d="M947.25,629.127l5.937-1.709-1.261-3.582h0l-.017-.051h-.021l-6.617-19.2-1.709-14.373a5.353,5.353,0,0,0-.092-.543c5.4-9.256,0-22.138-.482-23.26-.061.041-.157.1-.294.171a7.881,7.881,0,0,0-.472-1.5s-2-.964-2.833.684c-.728,1.432.024,2.167.232,2.331l-.12.058a4.314,4.314,0,0,1,.759,1.395,3.233,3.233,0,0,0-.246-.342,2.281,2.281,0,0,1-.4-.031l-.048-.038-.12.058a8.406,8.406,0,0,1,1.367,4.474,6.483,6.483,0,0,0-.837-.773,6.606,6.606,0,0,0-4.563-1.3h0l-.3.034h0q-.253.034-.5.092l-.123.027-.208.055-.239.075-.171.058-.294.116-.109.048a3.537,3.537,0,0,0-.342.174,6.462,6.462,0,0,1-1.22.612c-.058.017-.12.027-.178.041h0a2.143,2.143,0,0,1-1.442-.232l-.147-.089a1.98,1.98,0,0,1-.164-.12.951.951,0,0,0,0,.414,1.255,1.255,0,0,0,.533.793,1.186,1.186,0,0,0,.246.13,1,1,0,0,0,.407.065.909.909,0,0,0,.14-.017l-.034.021a2.547,2.547,0,0,1-.25.14h-.017q-.138.067-.277.123h0a3.247,3.247,0,0,1-1.487.2h0l-.164-.021a.98.98,0,0,1-.243-.044,1.787,1.787,0,0,0,.1.154l.038.044.079.1.044.048.085.085.048.044.1.082.041.031.15.1.051.027.109.058.072.031.1.041.079.027.1.031.079.024.109.024.133.024h.738a1.866,1.866,0,0,0,.54-.2,3.194,3.194,0,0,1-.342.181h0l-.164.082-.171.082-.167.075-.174.072-.167.065-.181.065-.167.055-.191.058-.161.044-.208.051-.15.034-.239.044-.126.021-.362.048h0a1.576,1.576,0,0,1,.6.229,1.506,1.506,0,0,0,.369.143,1.353,1.353,0,0,0,.171,0h.352l.181-.024h.3a2.449,2.449,0,0,1,1,.195,1.74,1.74,0,0,1,.455.311c-.041.089-.082.181-.12.273s-.062.161-.089.239q-.082.243-.144.492a5.266,5.266,0,0,0-.106,1.839,2.017,2.017,0,0,0,.051.342l.017.092q.027.133.062.263v.068q.044.161.1.318l.024.062q.044.13.1.256l.031.075a5.247,5.247,0,0,0,.3.591l.034.058q.079.13.164.253v.024q.1.14.205.273v.021q.1.123.205.239l.024.027a5.28,5.28,0,0,0,.5.475h0a5.293,5.293,0,0,0,1.524.885,2.363,2.363,0,0,0,0,.246h0a2.364,2.364,0,0,0,0,.253l.232,1.962q-.157.109-.308.229c-4.9-1.565-13.617-15.747-13.617-15.747l-.167.021c.615-.588-.321-2.707-.321-2.707a3.2,3.2,0,0,0-1.367-.28h-.479l-.068.021h-.044l-.072.031h-.038l-.106.055h0l-.1.062-.034.024-.068.051-.038.031-.058.055-.038.038-.055.058-.038.041-.055.068-.034.044-.055.085-.027.041c-.027.044-.051.089-.079.137-.834,1.641.28,2.369.28,2.369a15.241,15.241,0,0,0,.116,1.774c1.22,10.962,13.942,18.061,14.592,18.416a22.692,22.692,0,0,0,1.709,14.3.254.254,0,0,0,.034.048,22.115,22.115,0,0,0-4.132,21.551l.075.222h.109a1.483,1.483,0,0,1-.021.154,1.694,1.694,0,0,1-.078.27,2.054,2.054,0,0,1-.226.431h0c-.1.147-.219.3-.342.451l-.13.161c-.526.636-1.056,1.255-.588,1.425h0l.342-.041,6.111-.6-.342-2.789h.113s-.055-.082-.144-.239v-.051h-.021c-.438-.824-1.518-3.4-.769-7.656.923-5.254,6.542-8.49,6.542-8.49l.15.342h-.02l6.443,14.7v.185a2.505,2.505,0,0,1-.051.438,2.717,2.717,0,0,1-.089.342c-.215.625-.629,1.367-.783,1.924a1.781,1.781,0,0,0-.051.229.684.684,0,0,0,0,.263.3.3,0,0,0,.226.226h0l.082-.024.178-.051Zm-6.918-43.169q-.188-.079-.379-.14l-.215-1.836a2.359,2.359,0,0,0-.089-.414,5.278,5.278,0,0,0,1.025-.851C940.572,583.893,940.449,584.994,940.332,585.958Z" transform="translate(-917.614 -564.8)" fill="url(#l)"/></g><path d="M918.471,581.615s-1.234-.8-.311-2.622,3.141-.752,3.141-.752,1.025,2.348.342,3S918.471,581.615,918.471,581.615Z" transform="translate(-661.241 -420.032)" fill="#ca7070"/><path d="M962.013,768.13l-5.164.608a1.709,1.709,0,0,1-.342,1.367c-.6.885-1.883,2.02-1.186,2.273l7.086-.837Z" transform="translate(-685.793 -545.221)" fill="#00695c"/><path d="M956.913,771.2a1.71,1.71,0,0,0,.342-1.367l-.376.044a1.709,1.709,0,0,1-.342,1.367c-.6.885-1.883,2.02-1.186,2.273l.376-.044C955.033,773.217,956.315,772.082,956.913,771.2Z" transform="translate(-685.812 -546.34)" fill="#fff" opacity="0.2"/><path d="M1017.73,758.65l-4.748,1.367a2.478,2.478,0,0,1-.017,1.726c-.4,1.159-1.419,2.711-.684,2.926l6.863-1.958Z" transform="translate(-723.247 -538.981)" fill="#00695c"/><path d="M992.355,572.415s7.588,16.782-.54,27.532l-2.919-1.733s3.23-19.681-.366-23.786C993.729,571.987,992.355,572.415,992.355,572.415Z" transform="translate(-707.784 -416.383)" fill="#00695c"/><path d="M987.821,571.2s-1.234-.8-.311-2.622,3.141-.752,3.141-.752,1.025,2.348.342,3S987.821,571.2,987.821,571.2Z" transform="translate(-706.888 -413.174)" fill="#ca7070"/><path d="M1013.341,761.706a2.478,2.478,0,0,0,.017-1.726l4.392-1.261-.021-.058-4.748,1.367a2.478,2.478,0,0,1-.017,1.726c-.4,1.159-1.419,2.71-.684,2.926l.287-.082C1012.015,764.276,1012.958,762.813,1013.341,761.706Z" transform="translate(-723.247 -538.988)" fill="#fff" opacity="0.2"/><rect width="5.281" height="7.827" rx="2.64" transform="matrix(0.993, -0.117, 0.117, 0.993, 275.462, 173.572)" fill="#ca7070"/><path d="M989.3,605.313s3.189-19.438-.3-23.707a2.459,2.459,0,0,1-.437-.034l-.055-.041-.133.062c3.6,4.1.366,23.786.366,23.786l2.919,1.733c.068-.092.137-.185.2-.28Z" transform="translate(-707.679 -422.401)" fill="#fff" opacity="0.2"/><circle cx="5.848" cy="5.848" r="5.848" transform="matrix(0.993, -0.117, 0.117, 0.993, 271.318, 165.038)" fill="#ca7070"/><path d="M967.579,611.072l-.3-2.529a2.623,2.623,0,0,1,0-.557,5.848,5.848,0,0,1,1.025-11.235l-.342.027a5.848,5.848,0,0,0-1.367,11.279,2.625,2.625,0,0,0,0,.557l.3,2.529a2.622,2.622,0,0,0,3.257,2.253A2.649,2.649,0,0,1,967.579,611.072Z" transform="translate(-690.857 -432.419)" fill="#fff" opacity="0.2"/><path d="M980.154,655.849s-11.05,2.587-11.621,1.367a24.928,24.928,0,0,1-1.88-15.921,5.848,5.848,0,0,1,5.127-6.494h0a5.848,5.848,0,0,1,6.494,5.127Z" transform="translate(-693.027 -457.437)" fill="#00695c"/><path d="M973.353,696.46l7.793,22.631-5.059.6-7.281-16.615s-6.224,3.585-7.246,9.4,1.025,8.8,1.025,8.8l-5.407.656-.085-.246a24.319,24.319,0,0,1,4.645-23.844h0" transform="translate(-686.226 -498.048)" fill="#263238"/><path d="M969.018,657.2a24.928,24.928,0,0,1-1.88-15.921,5.848,5.848,0,0,1,4.748-6.436,1.55,1.55,0,0,0-.376.031h0a5.848,5.848,0,0,0-5.127,6.494,24.924,24.924,0,0,0,1.88,15.921c.2.434,1.747.383,3.65.137C970.375,657.583,969.192,657.573,969.018,657.2Z" transform="translate(-692.849 -457.49)" fill="#fff" opacity="0.2"/><path d="M936.037,610.137s-16.225-8.719-16.3-22.2l3.37-.4s10.114,16.468,15.463,17.548S936.037,610.137,936.037,610.137Z" transform="translate(-662.507 -426.357)" fill="#00695c"/><g transform="translate(269.564 199.789)" opacity="0.2"><path d="M994.35,716.243l7.147,16.311.749-.089-7.28-16.615S994.733,715.977,994.35,716.243Z" transform="translate(-981.179 -710.6)" fill="#fff"/><path d="M962.527,700.49h0l-.748.089h0a24.319,24.319,0,0,0-4.645,23.844l.085.246.748-.089-.085-.246a24.319,24.319,0,0,1,4.645-23.844Z" transform="translate(-955.817 -700.49)" fill="#fff"/></g><path d="M920.361,589.06l-.561.065c.072,13.477,16.3,22.2,16.3,22.2l.342-.185C934.566,610.064,920.429,601.631,920.361,589.06Z" transform="translate(-662.546 -427.357)" fill="#fff" opacity="0.2"/><path d="M957.473,595.7a9.443,9.443,0,0,1,.954,2.256,6.315,6.315,0,0,0,3.141,3.78,5.936,5.936,0,0,0,2.693.4,5.012,5.012,0,0,0,3.722-1.617,4.817,4.817,0,0,0,.9-2.516,8.094,8.094,0,0,0-2.987-7.14,7.185,7.185,0,0,0-7.612-.684,7.149,7.149,0,0,1-1.35.684,2.362,2.362,0,0,1-2.136-.441,1.306,1.306,0,0,0,1.453,1.531,3.643,3.643,0,0,1-2.758.479,2.369,2.369,0,0,0,3.1.837,7.978,7.978,0,0,1-3.278,1.08c.243-.024.766.362,1.07.414a6.429,6.429,0,0,0,1.121-.051A2.177,2.177,0,0,1,957.473,595.7Z" transform="translate(-684.602 -427.578)" fill="#263238"/><g transform="translate(268.704 161.846)" opacity="0.2"><path d="M959.068,593.941a3.605,3.605,0,0,1-1.333.513,3.631,3.631,0,0,0,1.709-.557,1.323,1.323,0,0,1-1.483-1.258,2.227,2.227,0,0,1-.342-.229,1.306,1.306,0,0,0,1.449,1.531Z" transform="translate(-956.128 -591.409)" fill="#fff"/><path d="M963.9,590.878a7.148,7.148,0,0,0,1.35-.684,6.492,6.492,0,0,1,2.184-.714,6.576,6.576,0,0,0-2.557.755,7.143,7.143,0,0,1-1.35.684c-.065.021-.133.031-.2.044A2.254,2.254,0,0,0,963.9,590.878Z" transform="translate(-959.902 -589.48)" fill="#fff"/><path d="M954.746,602.124c-.3-.051-.827-.438-1.07-.414a7.977,7.977,0,0,0,3.278-1.08,2.088,2.088,0,0,1-.735.246,7.981,7.981,0,0,1-2.919.878c.243-.024.766.362,1.07.414a2.511,2.511,0,0,0,.786-.031A1.642,1.642,0,0,1,954.746,602.124Z" transform="translate(-953.3 -596.819)" fill="#fff"/><path d="M968.5,612.244a5.936,5.936,0,0,1-2.693-.4,6.355,6.355,0,0,1-3.141-3.78,9.543,9.543,0,0,0-.953-2.256,2.177,2.177,0,0,0-1.976-.984,3.77,3.77,0,0,0-.557.051h.185a2.177,2.177,0,0,1,1.976.984,9.435,9.435,0,0,1,.954,2.256,6.315,6.315,0,0,0,3.141,3.78,5.938,5.938,0,0,0,2.693.4,4.744,4.744,0,0,0,.653-.065Z" transform="translate(-957.17 -599.573)" fill="#fff"/><path d="M956.322,599.35a2.392,2.392,0,0,1-2.051-.991,3.483,3.483,0,0,1-.451-.068A2.393,2.393,0,0,0,956.322,599.35Z" transform="translate(-953.642 -595.279)" fill="#fff"/></g><path d="M918.851,581.557s-1.234-.8-.311-2.622a1.808,1.808,0,0,1,1.289-1.025,1.832,1.832,0,0,0-1.661,1.059c-.926,1.819.311,2.622.311,2.622a10.235,10.235,0,0,0,2.232,0A11.161,11.161,0,0,1,918.851,581.557Z" transform="translate(-661.245 -420.018)" fill="#fff" opacity="0.2"/><path d="M570.49,768.38h5.2a1.709,1.709,0,0,0,.492,1.336c.7.81,2.105,1.784,1.446,2.119H570.49Z" transform="translate(-432.631 -545.386)" fill="#ff7249"/><path d="M585.042,769.716a1.709,1.709,0,0,1-.492-1.336h.376a1.709,1.709,0,0,0,.492,1.336c.7.81,2.105,1.784,1.446,2.119h-.376C587.158,771.5,585.753,770.527,585.042,769.716Z" transform="translate(-441.882 -545.386)" fill="#fff" opacity="0.2"/><path d="M514.5,765.24l4.874.8a2.478,2.478,0,0,0,.222,1.709c.53,1.1,1.709,2.523,1.008,2.827l-7.044-1.138Z" transform="translate(-395.159 -543.319)" fill="#ff7249"/><path d="M521,767.766a2.478,2.478,0,0,1-.222-1.709l-4.512-.738v-.058l4.874.8a2.478,2.478,0,0,0,.222,1.709c.53,1.1,1.709,2.522,1.008,2.827l-.294-.048C522.624,770.161,521.51,768.818,521,767.766Z" transform="translate(-396.943 -543.332)" fill="#fff" opacity="0.2"/><rect width="5.281" height="7.827" rx="2.64" transform="translate(132.828 181.746) rotate(180)" fill="#985454"/><circle cx="5.848" cy="5.848" r="5.848" transform="translate(124.245 164.957)" fill="#985454"/><path d="M549.206,612.777V610.23a2.619,2.619,0,0,0-.062-.554A5.848,5.848,0,0,0,546.8,598.64h.342a5.848,5.848,0,0,1,2.676,11.047,2.628,2.628,0,0,1,.061.554v2.536a2.622,2.622,0,0,1-2.97,2.618A2.649,2.649,0,0,0,549.206,612.777Z" transform="translate(-417.038 -433.663)" fill="#fff" opacity="0.2"/><path d="M530.39,658.862s11.279,1.275,11.7,0a24.949,24.949,0,0,0,0-16.034,5.848,5.848,0,0,0-5.848-5.848h0a5.848,5.848,0,0,0-5.848,5.818Z" transform="translate(-406.237 -458.898)" fill="#ff7249"/><path d="M520.583,701l-5.093,23.389h5.093l5.281-17.353s6.6,2.83,8.3,8.487,0,8.866,0,8.866h5.469l.055-.253A24.319,24.319,0,0,0,532.276,701h0" transform="translate(-396.43 -501.036)" fill="#263238"/><path d="M552.141,658.888a24.95,24.95,0,0,0,0-16.034,5.848,5.848,0,0,0-5.468-5.834h.375a5.848,5.848,0,0,1,5.848,5.8,24.945,24.945,0,0,1,0,16.034c-.15.455-1.692.585-3.609.564C550.843,659.415,552.011,659.268,552.141,658.888Z" transform="translate(-416.955 -458.925)" fill="#fff" opacity="0.2"/><g transform="translate(123.394 200.042)" opacity="0.2"><path d="M534.11,719.208l-5.185,17.035h-.755l5.281-17.353S533.7,719,534.11,719.208Z" transform="translate(-528.17 -712.854)" fill="#fff"/><path d="M562.39,701.23h.755a24.319,24.319,0,0,1,7.41,23.137l-.055.253h-.755l.055-.253A24.319,24.319,0,0,0,562.39,701.23Z" transform="translate(-550.694 -701.23)" fill="#fff"/></g><path d="M544.145,613.182s17.069-6.921,18.594-20.313l-3.309-.759S547.6,607.4,542.166,607.888,544.145,613.182,544.145,613.182Z" transform="translate(-412.677 -429.365)" fill="#ff7249"/><path d="M569.045,594.5l.55.126C568.071,608.018,551,614.94,551,614.94l-.342-.222C552.677,613.853,567.624,606.976,569.045,594.5Z" transform="translate(-419.579 -430.938)" fill="#fff" opacity="0.2"/><path d="M599.006,587.617s1.313-.667.591-2.574-3.042-1.083-3.042-1.083-1.285,2.222-.684,2.943S599.006,587.617,599.006,587.617Z" transform="translate(-449.231 -423.884)" fill="#985454"/><path d="M600.7,587.612s1.313-.667.591-2.574a1.808,1.808,0,0,0-1.172-1.148,1.832,1.832,0,0,1,1.538,1.234c.725,1.907-.591,2.574-.591,2.574a10.226,10.226,0,0,1-2.218-.253A11.162,11.162,0,0,0,600.7,587.612Z" transform="translate(-451.297 -423.955)" fill="#fff" opacity="0.2"/><path d="M532.453,600.838l-.342,7.861H523.86V604.55c0-8.381,8.86-11.563,13.85-4.826A51.761,51.761,0,0,1,532.453,600.838Z" transform="translate(-401.939 -431.978)" fill="#263238"/><path d="M543.64,596.115a8.338,8.338,0,0,1,5.964,3.62,51.449,51.449,0,0,1-5.24,1.125l-.376,7.861h1.142l.376-7.861a50.544,50.544,0,0,0,5.24-1.125A8.078,8.078,0,0,0,543.64,596.115Z" transform="translate(-414.958 -431.986)" fill="#fff" opacity="0.2"/></g></svg>