<svg
      xmlns="http://www.w3.org/2000/svg"
      width="15.257"
      height="14.469"
      viewBox="0 0 15.257 14.469">
      <g transform="translate(0.1 0.1)">
        <path
          d="M12.777.256l-.625.625-1.5,1.5L8.849,4.185,7.286,5.747c-.253.253-.51.5-.76.76l-.01.01H7.75l-.625-.625L5.63,4.4,3.822,2.589,2.259,1.027c-.253-.253-.5-.509-.76-.76l-.01-.01A.9.9,0,0,0,.873,0,.873.873,0,0,0,0,.873a.907.907,0,0,0,.256.616l.625.625,1.5,1.5L4.185,5.417,5.747,6.98c.253.253.5.509.76.76l.01.01a.886.886,0,0,0,1.234,0l.625-.625,1.5-1.5L11.68,3.821l1.562-1.562c.253-.253.509-.5.76-.76l.01-.01a.9.9,0,0,0,.256-.616A.873.873,0,0,0,13.4,0a.913.913,0,0,0-.619.256Z"
          transform="translate(0 14.268) rotate(-90)"
          fill="#ff7249"
          stroke="#ff7249"
          strokeWidth="0.2"
        />
        <g transform="translate(8 13.268) rotate(-90)">
          <path
            d="M11.18.224l-.547.547L9.325,2.08,7.743,3.662,6.376,5.029c-.221.221-.446.44-.665.665L5.7,5.7h1.08l-.547-.547L4.926,3.847,3.344,2.265,1.977.9C1.756.677,1.536.453,1.312.233L1.3.224A.786.786,0,0,0,.764,0,.764.764,0,0,0,0,.764.794.794,0,0,0,.224,1.3l.547.547L2.08,3.158,3.662,4.74,5.029,6.107c.221.221.441.445.665.665l.009.009a.775.775,0,0,0,1.08,0l.547-.547L8.638,4.926,10.22,3.344l1.367-1.367c.221-.221.445-.441.665-.665l.009-.009a.786.786,0,0,0,.224-.539A.764.764,0,0,0,11.722,0a.8.8,0,0,0-.542.224Z"
            fill="#ff7249"
            stroke="#ff7249"
            strokeWidth="0.2"
          />
        </g>
      </g>
    </svg>