<svg xmlns="http://www.w3.org/2000/svg" width="19.901" height="23.599" viewBox="0 0 19.901 23.599">
  <g id="Group_6556" data-name="Group 6556" transform="translate(-1.75 0.25)">
    <g id="Group_5569" data-name="Group 5569" transform="translate(2)">
      <path id="Path_4882" data-name="Path 4882" d="M26.6,2.5H13.021A2.929,2.929,0,0,0,10.1,5.421V18.76a2.929,2.929,0,0,0,2.921,2.921h1.29a5.27,5.27,0,0,1-.389,1.241,1.9,1.9,0,0,0,.414,2.142,1.925,1.925,0,0,0,1.314.535A2.075,2.075,0,0,0,16.5,25.4a13.435,13.435,0,0,0,4.284-3.724h5.793A2.929,2.929,0,0,0,29.5,18.76V5.421A2.863,2.863,0,0,0,26.6,2.5Zm1.022,16.284A1.028,1.028,0,0,1,26.6,19.806H20.348a.983.983,0,0,0-.755.365,12.574,12.574,0,0,1-3.919,3.554,7.639,7.639,0,0,0,.657-2.945.956.956,0,0,0-.268-.682.884.884,0,0,0-.682-.292H13.021A1.028,1.028,0,0,1,12,18.784V5.421A1.028,1.028,0,0,1,13.021,4.4H26.627A1.028,1.028,0,0,1,27.65,5.421V18.784Z" transform="translate(-10.1 -2.5)" fill="#fff" stroke="#3a466b" stroke-width="0.5"/>
      <path id="Path_4883" data-name="Path 4883" d="M38.53,19.2a3.653,3.653,0,0,0-3.748,3.237.7.7,0,0,0,.146.535.685.685,0,0,0,.511.243h.852a.677.677,0,0,0,.657-.56,1.622,1.622,0,0,1,2.921-.56,1.12,1.12,0,0,1-.073,1.168,2.971,2.971,0,0,1-.779.706,2.975,2.975,0,0,0-1.46,2.58.657.657,0,0,0,.17.511.649.649,0,0,0,.487.219h.828a.686.686,0,0,0,.682-.609.921.921,0,0,1,.536-.9,5.169,5.169,0,0,0,1.29-1.217,3.331,3.331,0,0,0,.268-3.456A3.536,3.536,0,0,0,38.53,19.2Z" transform="translate(-28.769 -15.135)" fill="#fff" stroke="#3a466b" stroke-width="0.5"/>
      <circle id="Ellipse_263" data-name="Ellipse 263" cx="1.314" cy="1.314" r="1.314" transform="translate(8.544 12.925)" fill="#fff" stroke="#3a466b" stroke-width="0.5"/>
    </g>
  </g>
</svg>
