<svg xmlns="http://www.w3.org/2000/svg" xmlns:xlink="http://www.w3.org/1999/xlink" width="232.805" height="147" viewBox="0 0 232.805 147"><defs><linearGradient id="a" x1="1" y1="0.5" x2="0" y2="0.5" gradientUnits="objectBoundingBox"><stop offset="0" stop-color="#546a9a"/><stop offset="1" stop-color="#324262"/></linearGradient></defs><g transform="translate(1.805 11)"><g transform="translate(0 -8)"><rect width="231" height="144" rx="8" fill="url(#a)"/></g><ellipse cx="33.5" cy="25" rx="33.5" ry="25" transform="translate(23.195 -11) rotate(30)" fill="rgba(0,0,0,0.08)"/><g transform="translate(158.138 64.578)" opacity="0.5"><g transform="translate(0.061 0.223)"><path d="M26.052,280.29a7.632,7.632,0,1,0,7.633,7.628,7.639,7.639,0,0,0-7.633-7.628Zm0,1.635a6,6,0,1,1-5.994,5.993A5.983,5.983,0,0,1,26.052,281.926Zm0,15.263a12.731,12.731,0,0,0-7.71,2.66.819.819,0,0,0,0,1.157.885.885,0,0,0,1.181.025,10.76,10.76,0,0,1,13.056,0,.906.906,0,0,0,1.181-.025.819.819,0,0,0,0-1.157,12.725,12.725,0,0,0-7.708-2.66Zm-8.886,5.192a18.527,18.527,0,0,0-6.6,1.024,5.26,5.26,0,0,0-2,1.267,2.242,2.242,0,0,0-.562,2.05l.445,1.658A2.2,2.2,0,0,0,8,310.27l.321,1.2.6,2.24.771,2.877,1.245,4.645-2.738.74a.817.817,0,1,0,.423,1.578l5.8-1.564a1.341,1.341,0,0,1,1.026.231,1.817,1.817,0,0,1,.6,2.218,1.342,1.342,0,0,1-.772.713L3.754,328.232a1.569,1.569,0,0,1-1.72-.586,1.562,1.562,0,0,1-.113-1.809L7.77,315.7a.817.817,0,0,0-1.415-.817L.5,325.013a3.269,3.269,0,0,0,3.673,4.795l8.46-2.269.377,1.406a.817.817,0,0,0,.909.6,22.223,22.223,0,0,1,3.245-.23c3.579,0,6.879.8,8.418,1.758a.817.817,0,0,0,.865,0c1.54-.96,4.839-1.76,8.417-1.76a22.222,22.222,0,0,1,3.245.23.817.817,0,0,0,.909-.6l.377-1.4,8.458,2.267a3.269,3.269,0,0,0,3.673-4.795l-5.845-10.125a.816.816,0,1,0-1.414.817l5.848,10.129a1.636,1.636,0,0,1-1.84,2.395l-11.525-3.087a1.339,1.339,0,0,1-.772-.712,1.817,1.817,0,0,1,.6-2.219,1.333,1.333,0,0,1,1.024-.231l5.8,1.564a.817.817,0,1,0,.423-1.578q-1.369-.371-2.74-.739l1.245-4.645.774-2.89.6-2.227.321-1.2a2.2,2.2,0,0,0-.447-1.894l.445-1.655a2.242,2.242,0,0,0-.562-2.05,5.257,5.257,0,0,0-2-1.267,18.5,18.5,0,0,0-6.591-1.024A18.694,18.694,0,0,0,26.02,304.3a18.7,18.7,0,0,0-8.854-1.918Zm0,1.634c3.579,0,6.881.8,8.42,1.761a.817.817,0,0,0,.862,0c1.54-.959,4.84-1.761,8.418-1.761a17.241,17.241,0,0,1,5.988.911,3.933,3.933,0,0,1,1.395.844c.231.254.241.348.191.531l-.263.98c-.227-.117-.463-.227-.72-.329a18.5,18.5,0,0,0-6.593-1.026,19.069,19.069,0,0,0-8.851,1.846,19.07,19.07,0,0,0-8.849-1.846,18.514,18.514,0,0,0-6.594,1.026,7.979,7.979,0,0,0-.726.332l-.263-.983c-.049-.183-.032-.277.2-.531a3.924,3.924,0,0,1,1.393-.844,17.27,17.27,0,0,1,5.993-.911Zm0,3.545a22.232,22.232,0,0,1,6.4.9v20.074a22.732,22.732,0,0,0-6.4-.855,23.14,23.14,0,0,0-2.749.2l-.2-.756L15.4,326.8a3.234,3.234,0,0,0,2.111-1.634,3.45,3.45,0,0,0-1.158-4.324,3.252,3.252,0,0,0-2.647-.356H13.7l-1.176.316L9.585,309.846c-.049-.183-.039-.277.193-.531a3.934,3.934,0,0,1,1.395-.844,17.269,17.269,0,0,1,5.993-.911Zm17.7,0a17.26,17.26,0,0,1,5.991.911,3.934,3.934,0,0,1,1.395.844c.231.255.242.348.193.531L39.507,320.8l-1.176-.316h-.006a3.241,3.241,0,0,0-2.642.356,3.445,3.445,0,0,0-1.163,4.324,3.243,3.243,0,0,0,2.109,1.634l1.186.318-.2.756a23.205,23.205,0,0,0-2.749-.2,22.732,22.732,0,0,0-6.4.855v-20.07a22.2,22.2,0,0,1,6.4-.9ZM25.2,309.112c.131.069.273.136.386.206a.818.818,0,0,0,.865,0c.112-.07.253-.136.383-.2v20.005c-.288.128-.562.262-.817.4-.255-.142-.529-.276-.817-.4Z" transform="translate(-0.061 -280.29)" fill="#fff"/></g></g></g></svg>