<svg xmlns="http://www.w3.org/2000/svg" xmlns:xlink="http://www.w3.org/1999/xlink" width="232.805" height="147" viewBox="0 0 232.805 147"><defs><linearGradient id="a" x1="1" y1="0.5" x2="0" y2="0.5" gradientUnits="objectBoundingBox"><stop offset="0" stop-color="#546a9a"/><stop offset="1" stop-color="#324262"/></linearGradient></defs><g transform="translate(1.805 11)"><g transform="translate(0 -8)"><rect width="231" height="144" rx="8" fill="url(#a)"/></g><g transform="translate(163.329 70.5)" opacity="0.7"><path d="M16.618,5.451A7.5,7.5,0,0,0,10.626,2.5,7.58,7.58,0,0,0,5.769,15.937,20.422,20.422,0,0,1,16.618,5.451Z" fill="#fff"/><path d="M72.992,2.5A7.638,7.638,0,0,0,67,5.451,20.5,20.5,0,0,1,77.849,15.982,7.61,7.61,0,0,0,72.992,2.5Z" transform="translate(-34.947)" fill="#fff"/><path d="M53.771,37.409H49.5V32.052A1.966,1.966,0,0,0,47.552,30.1,1.938,1.938,0,0,0,45.6,32.052v7.263a1.966,1.966,0,0,0,1.952,1.952h6.174a1.966,1.966,0,0,0,1.952-1.952A1.862,1.862,0,0,0,53.771,37.409Z" transform="translate(-23.262 -15.071)" fill="#fff"/></g><ellipse cx="33.5" cy="25" rx="33.5" ry="25" transform="translate(23.195 -11) rotate(30)" fill="rgba(0,0,0,0.08)"/><path d="M29.2,12.3A17.27,17.27,0,0,0,16.848,41.67l-3.4,6.446a1.9,1.9,0,0,0,.817,2.587,2.066,2.066,0,0,0,.908.227,1.953,1.953,0,0,0,1.725-1.044l3.041-5.765a17.259,17.259,0,0,0,18.612,0l3.041,5.765a1.953,1.953,0,0,0,1.725,1.044,2.066,2.066,0,0,0,.908-.227,1.91,1.91,0,0,0,.817-2.587l-3.5-6.446A17.27,17.27,0,0,0,29.2,12.3ZM15.759,29.6A13.437,13.437,0,1,1,29.2,43.032,13.465,13.465,0,0,1,15.759,29.6Z" transform="translate(158.469 65.149)" fill="#fff"/></g></svg>