<svg xmlns="http://www.w3.org/2000/svg" width="30.301" height="30.301" viewBox="0 0 30.301 30.301"><g transform="translate(-341 -449)"><path d="M68.151-188A15.15,15.15,0,0,0,53-172.849a15.151,15.151,0,0,0,15.15,15.15,15.151,15.151,0,0,0,15.15-15.15A15.15,15.15,0,0,0,68.151-188" transform="translate(288 637)" fill="#a4a4a4" fill-rule="evenodd"/><g transform="translate(348.665 456)"><g transform="translate(-0.665 0)"><g transform="translate(0)"><rect width="16.239" height="15.427" transform="translate(0 0.406)" fill="none"/><path d="M14.167,19.84H7.6A1.969,1.969,0,0,0,5.63,21.808V30.46A1.969,1.969,0,0,0,7.6,32.427h6.571a1.969,1.969,0,0,0,1.96-1.968V21.808A1.969,1.969,0,0,0,14.167,19.84Zm.506,10.62a.506.506,0,0,1-.506.506H7.6a.506.506,0,0,1-.5-.506V21.808a.5.5,0,0,1,.5-.5h6.571a.506.506,0,0,1,.506.5Z" transform="translate(-4.209 -16.725)" fill="#fff"/><path d="M39.743,0H33.676A1.778,1.778,0,0,0,31.9,1.776a.732.732,0,0,0,1.462,0,.314.314,0,0,1,.314-.314h6.067a.506.506,0,0,1,.5.506v8.156a.314.314,0,0,1-.314.314H39.56a.732.732,0,1,0,0,1.463h.375a1.778,1.778,0,0,0,1.774-1.776V1.968A1.969,1.969,0,0,0,39.743,0Z" transform="translate(-26.354 0)" fill="#fff"/></g></g></g></g></svg>