<svg xmlns="http://www.w3.org/2000/svg" xmlns:xlink="http://www.w3.org/1999/xlink" width="380.001" height="217.999" viewBox="0 0 380.001 217.999"><defs><linearGradient id="a" y1="0.5" x2="1" y2="0.5" gradientUnits="objectBoundingBox"><stop offset="0" stop-color="#0465af"/><stop offset="1" stop-color="#069cdd"/></linearGradient><filter id="b" x="0" y="0" width="380.001" height="217.999" filterUnits="userSpaceOnUse"><feOffset dx="2" dy="3" input="SourceAlpha"/><feGaussianBlur stdDeviation="3" result="c"/><feFlood flood-opacity="0.161"/><feComposite operator="in" in2="c"/><feComposite in="SourceGraphic"/></filter><filter id="d" x="21" y="13" width="58" height="58" filterUnits="userSpaceOnUse"><feOffset input="SourceAlpha"/><feGaussianBlur stdDeviation="2" result="e"/><feFlood flood-opacity="0.161"/><feComposite operator="in" in2="e"/><feComposite in="SourceGraphic"/></filter><linearGradient id="f" x1="1" y1="0.5" x2="0" y2="0.5" gradientUnits="objectBoundingBox"><stop offset="0" stop-color="#be8a1e"/><stop offset="0.523" stop-color="#dec257"/><stop offset="1" stop-color="#be8a1e"/></linearGradient></defs><g transform="translate(-74 -2465)"><g transform="matrix(1, 0, 0, 1, 74, 2465)" filter="url(#b)"><path d="M13669-91a12.078,12.078,0,0,1-3.006-.379,9.046,9.046,0,0,0-8.612-8.612A12.108,12.108,0,0,1,13657-103V-279a11.936,11.936,0,0,1,.568-3.658,8.979,8.979,0,0,0,7.268-7.6A11.937,11.937,0,0,1,13669-291h56a11.919,11.919,0,0,1,8.484,3.513A11.921,11.921,0,0,1,13737-279v176a11.92,11.92,0,0,1-3.517,8.484A11.919,11.919,0,0,1,13725-91Zm-282,0a11.921,11.921,0,0,1-8.484-3.513A11.924,11.924,0,0,1,13375-103V-279a11.924,11.924,0,0,1,3.516-8.484A11.921,11.921,0,0,1,13387-291h256a12.252,12.252,0,0,1,1.63.11,9.029,9.029,0,0,0,9,8.888,9.264,9.264,0,0,0,.979-.052A11.979,11.979,0,0,1,13655-279v176a12.22,12.22,0,0,1-.382,3.02c-.2-.014-.411-.021-.617-.021a9.044,9.044,0,0,0-9,8.833,12.13,12.13,0,0,1-2,.165Z" transform="translate(-13368 297)" fill="url(#a)"/></g><line x2="280" transform="translate(81.5 2540.5)" fill="none" stroke="rgba(0,0,0,0.38)" stroke-width="1" stroke-dasharray="2 2"/><g transform="translate(1)"><g transform="matrix(1, 0, 0, 1, 73, 2465)" filter="url(#d)"><circle cx="23" cy="23" r="23" transform="translate(27 19)" fill="#fff"/></g><g transform="translate(102 2486)"><path d="M30,16A14,14,0,1,0,44,30,14.016,14.016,0,0,0,30,16Zm.875,21.691V38.75a.875.875,0,0,1-1.75,0V37.681a3.925,3.925,0,0,1-3.679-3.931.875.875,0,0,1,1.75,0C27.2,35.837,29.4,36,30.072,36s2.879-.161,2.879-2.249c0-1.306-.509-1.6-2.662-2.665l-1.2-.6c-2.112-1.041-3.637-1.793-3.637-4.233A3.938,3.938,0,0,1,29.127,22.3V21.25a.875.875,0,0,1,1.75,0v1.038a3.937,3.937,0,0,1,3.771,3.965.875.875,0,1,1-1.75,0c0-2.112-2.161-2.277-2.824-2.277-1.39,0-2.875.6-2.875,2.277,0,1.3.508,1.6,2.662,2.665l1.205.6c2.109,1.041,3.633,1.792,3.633,4.233C34.7,35.9,33.188,37.406,30.875,37.691Z" transform="translate(-9 -9)" fill="url(#f)"/><path d="M21,0A21,21,0,1,0,42,21,21,21,0,0,0,21,0Zm0,36.75A15.75,15.75,0,1,1,36.75,21,15.749,15.749,0,0,1,21,36.75Z" fill="url(#f)"/></g></g></g></svg>