<svg xmlns="http://www.w3.org/2000/svg" xmlns:xlink="http://www.w3.org/1999/xlink" width="32" height="32" viewBox="0 0 32 32"><defs><linearGradient id="a" x1="0.667" y1="0.167" x2="0.417" y2="0.75" gradientUnits="objectBoundingBox"><stop offset="0" stop-color="#37aee2"/><stop offset="1" stop-color="#1e96c8"/></linearGradient></defs><circle cx="16" cy="16" r="16" fill="url(#a)"/><path d="M42.892,79.979c1.841-1.014,3.9-1.861,5.817-2.711,3.3-1.393,6.621-2.763,9.971-4.038.652-.217,1.823-.43,1.938.536-.063,1.367-.322,2.727-.5,4.086-.45,2.989-.971,5.968-1.479,8.948a1.41,1.41,0,0,1-2.214.871C54.514,86.38,52.588,85.1,50.7,83.78c-.618-.628-.045-1.53.507-1.979,1.575-1.552,3.245-2.87,4.737-4.5.4-.972-.787-.153-1.179.1-2.156,1.485-4.259,3.062-6.531,4.367-1.161.639-2.514.093-3.674-.264-1.04-.431-2.565-.865-1.668-1.522Z" transform="translate(-37.026 -63.458)" fill="#fff"/></svg>