<svg xmlns="http://www.w3.org/2000/svg" xmlns:xlink="http://www.w3.org/1999/xlink" width="182.938" height="145.436" viewBox="0 0 182.938 145.436"><defs><linearGradient id="a" x1="0.5" y1="1" x2="0.5" gradientUnits="objectBoundingBox"><stop offset="0" stop-color="gray" stop-opacity="0.251"/><stop offset="0.54" stop-color="gray" stop-opacity="0.122"/><stop offset="1" stop-color="gray" stop-opacity="0.102"/></linearGradient></defs><g transform="translate(0 -0.008)" opacity="0.7"><path d="M206.792,89.363c-11.575-.4-22.6-4.139-33.129-8.227s-20.954-8.619-32.252-10.785c-7.267-1.393-15.578-1.59-21.432,2.305-5.636,3.756-7.456,10.221-8.435,16.227-.737,4.518-1.17,9.272.85,13.5,1.4,2.937,3.888,5.4,5.607,8.227,5.986,9.787,1.756,21.856-4.731,31.412-3.04,4.484-6.573,8.764-8.919,13.532s-3.434,10.239-1.381,15.108c2.037,4.829,6.889,8.449,12.144,11,10.676,5.178,23.251,6.659,35.522,7.5,27.155,1.858,54.453,1.053,81.68.249,10.077-.3,20.2-.6,30.108-2.159,5.505-.866,11.187-2.237,15.185-5.553a12.719,12.719,0,0,0,2.931-16.612c-5.7-8.851-21.462-11.049-25.454-20.55-2.193-5.228.061-11.051,3.248-15.9,6.839-10.4,18.3-19.529,18.906-31.419.415-8.168-5.1-16.345-13.618-20.21-8.93-4.065-21.317-3.55-27.9,3.155C228.934,87.066,217.012,89.717,206.792,89.363Z" transform="translate(-99.506 -64.778)" fill="#ff7249" opacity="0.1"/><path d="M126.46,450.38l-61.218-.3L59.16,435.814l21.509-1.561L76.92,418.61l42.542-5.514L78.725,398.935l3.6-.855,65.5,10.686-3.607,24.412-5.156,13.416Z" transform="translate(-48.579 -326.876)" fill="#ff7249"/><path d="M187,698.572s3.756-.6,6.009,2.053c0,0-1.653,1.3-5.208-.5Z" transform="translate(-169.397 -581.343)" fill="#ff7249"/><path d="M177.716,698.51s-2.4,2.949-1.216,6.233c0,0,1.953-.782,2.166-4.763Z" transform="translate(-160.506 -581.34)" fill="#ff7249"/><path d="M172.76,667.021s1.5-2.756,7.512,1.1a3.373,3.373,0,0,1-3.455,1.7A4.073,4.073,0,0,1,172.76,667.021Z" transform="translate(-157.704 -554.699)" fill="#ff7249"/><path d="M154.89,670.276s-3.117-.358-3.42,6.779a3.374,3.374,0,0,0,3.38-1.848A4.066,4.066,0,0,0,154.89,670.276Z" transform="translate(-140.222 -558.153)" fill="#ff7249"/><path d="M160.44,626.325s1.753-4.858,8.113-1.4c0,0-1.452,4.457-7.462,3.055Z" transform="translate(-147.588 -519.895)" fill="#ff7249"/><path d="M149.52,587.341s3.305-4.908,9.164-.358c0,0-2.053,4.607-8.664,2.1Z" transform="translate(-138.621 -488.172)" fill="#ff7249"/><path d="M145.6,550.019s3.856-4.509,9.658,0c0,0-3.656,3.956-9.658,1.152Z" transform="translate(-135.402 -457.761)" fill="#ff7249"/><path d="M142.24,511.734s3.906-4.707,9.465-.25c0,0-4.407,4.157-9.465,1.352Z" transform="translate(-132.643 -426.189)" fill="#ff7249"/><path d="M144.2,472.849s4.114-6.06,9.315-1.953c0,0-4.407,5.208-9.315,3.1Z" transform="translate(-134.252 -393.263)" fill="#ff7249"/><path d="M149.52,435.032s4.357-6.009,9.415-1.4c0,0-5.158,5.208-9.415,2.5Z" transform="translate(-138.621 -362.406)" fill="#ff7249"/><path d="M156.605,396.627s5.158-5.648,9.658-3.4c0,0-5.375,6-9.883,4.9Z" transform="translate(-144.254 -330.224)" fill="#ff7249"/><path d="M165.782,358.358s5.952-6.918,9.415-4.607c0,0-4.385,5.366-9.837,5.9Z" transform="translate(-151.628 -297.854)" fill="#ff7249"/><path d="M179.059,322.909s5.21-5.648,9.016-4.246c0,0-4.457,5.859-9.715,6.009Z" transform="translate(-162.303 -269.245)" fill="#ff7249"/><path d="M194.29,286.671s5.759-5.408,8.263-4.457c0,0-4.157,6.009-8.513,5.659Z" transform="translate(-175.178 -239.407)" fill="#ff7249"/><path d="M208.32,247.114s4.958-6.462,7.664-5.961c0,0-3.007,5.761-7.664,6.618Z" transform="translate(-186.904 -205.759)" fill="#ff7249"/><path d="M221.471,207.372s4.382-4.952,6.75-4.942c0,0-3.459,6.618-6.931,6.557Z" transform="translate(-197.555 -173.984)" fill="#ff7249"/><path d="M228.108,153.036l4.233-10.316s.211,9.325-4.772,12.23Z" transform="translate(-202.711 -124.954)" fill="#ff7249"/><path d="M240.059,94.016s.7-8.615.25-9.316c0,0,3.026,7.163-.279,13.122Z" transform="translate(-212.943 -77.311)" fill="#ff7249"/><path d="M126.321,635.293s-4.389-2.72-7.231,3.935c0,0,3.906,2.593,7.748-2.237Z" transform="translate(-113.633 -528.977)" fill="#ff7249"/><path d="M112.025,594.377s-5.383-2.456-7.995,4.493c0,0,4.158,2.862,8.485-2.736Z" transform="translate(-101.267 -495.485)" fill="#ff7249"/><path d="M99.858,552.329s-3.856-4.509-9.658,0c0,0,3.656,3.956,9.658,1.152Z" transform="translate(-89.91 -459.658)" fill="#ff7249"/><path d="M98.045,511.734s-3.906-4.707-9.465-.25c0,0,4.407,4.157,9.465,1.352Z" transform="translate(-88.58 -426.189)" fill="#ff7249"/><path d="M104.276,468.221s-2.74-6.787-8.7-3.869c0,0,3.219,6.018,8.453,5Z" transform="translate(-94.328 -388.463)" fill="#ff7249"/><path d="M111.214,428.365s-2.724-6.905-8.764-3.7c0,0,3.7,6.33,8.5,4.77Z" transform="translate(-99.969 -355.774)" fill="#ff7249"/><path d="M132.971,376.979s-1.073-7.571-6.081-8.249c0,0,1.062,7.984,5.407,9.613Z" transform="translate(-120.038 -310.541)" fill="#ff7249"/><path d="M147.5,338.42s-.419-9.121-4.559-9.44c0,0,.139,6.923,4.092,10.731Z" transform="translate(-133.218 -277.901)" fill="#ff7249"/><path d="M160.857,302.922s-1.234-7.585-5.187-8.512c0,0,.49,7.345,4.8,10.373Z" transform="translate(-143.671 -249.514)" fill="#ff7249"/><path d="M185.207,266.392s-.041-7.9-2.456-9.062c0,0-1.5,7.154,1.756,10.071Z" transform="translate(-165.626 -219.066)" fill="#ff7249"/><path d="M195.865,231.492s-.338-8.136-2.838-9.282c0,0-.855,6.439,2.465,9.815Z" transform="translate(-174.265 -190.227)" fill="#ff7249"/><path d="M213.312,196.18s-.014-6.618-1.8-8.17c0,0-1.774,7.249.867,9.5Z" transform="translate(-189.048 -162.144)" fill="#ff7249"/><path d="M218.39,148.014,216.653,137s-2.359,9.025,1.819,13Z" transform="translate(-193.202 -120.257)" fill="#ff7249"/><path d="M211.249,99.6s-4.457-7.4-4.366-8.227c0,0,.474,7.76,6.081,11.625Z" transform="translate(-185.724 -82.788)" fill="#ff7249"/><path d="M206.17,72.948s-4.207-10.517-6.11-11.368a13.33,13.33,0,0,1,6.46,11.067Z" transform="translate(-180.122 -58.326)" fill="#ff7249"/><path d="M219.848,142.5l-.288-.088c3.55-11.577,4.436-18.958,2.495-20.809l.206-.218C224.319,123.333,223.484,130.634,219.848,142.5Z" transform="translate(-196.134 -107.43)" fill="#444053"/><path d="M164.556,262.663l-.426-.152c.377-1.061.783-2.137,1.209-3.2,3.706-9.236,6.861-17.828,8.884-24.424l.37-.179c-2.026,6.609-5.126,15.53-8.835,24.778C165.334,260.529,164.929,261.6,164.556,262.663Z" transform="translate(-150.618 -200.491)" fill="#444053"/><path d="M153.572,450.107a58.5,58.5,0,0,1-9.823-17.6,65.134,65.134,0,0,1-3.876-20.171A76.12,76.12,0,0,1,144.5,385.38l.336.393c-6.947,19.6-4.187,36.389-.526,46.5a57.957,57.957,0,0,0,9.713,17.435Z" transform="translate(-130.677 -324.214)" fill="#444053"/><path d="M546.015,670.36s-4.055,4.949-.835,12.43l-32.372,14.04-3.107.651-1.431-6.26.957-7.9V679Z" transform="translate(-433.208 -558.224)" fill="#d5d6db"/><path d="M59.16,571.558l44.806-8.168,59.37,9.458L126.46,586.124Z" transform="translate(-48.579 -462.62)" fill="#ff7249"/><path d="M59.16,571.558l44.806-8.168,59.37,9.458L126.46,586.124Z" transform="translate(-48.579 -462.62)" fill="#ff7249"/><path d="M140,652.47s-4.191,7.939.638,15.272l66.444,14.4s-4.124-6.324.213-15.1Z" transform="translate(-129.415 -543.534)" fill="#ff7249"/><path d="M140,652.47s-4.191,7.939.638,15.272l66.444,14.4s-4.124-6.324.213-15.1Z" transform="translate(-129.415 -543.534)" opacity="0.1"/><path d="M153.923,667.86s-2.395,5.809,0,9.569" transform="translate(-141.362 -556.171)" opacity="0.1"/><path d="M217.754,745.688l37.094-15.828s2.075.447.733,1.967-37.112,15.381-37.112,15.381L151.31,731.291Z" transform="translate(-140.091 -607.083)" fill="#ff7249"/><path d="M217.754,745.688l37.094-15.828s2.075.447.733,1.967-37.112,15.381-37.112,15.381L151.31,731.291Z" transform="translate(-140.091 -607.083)" opacity="0.1"/><path d="M498.511,742.86s-3.577,4.292,0,10.731" transform="translate(-423.888 -617.757)" opacity="0.1"/><rect width="16.914" height="0.179" transform="translate(75.896 130.383) rotate(-18.45)" opacity="0.1"/><rect width="20.609" height="0.179" transform="translate(75.89 131.823) rotate(-20.82)" opacity="0.1"/><rect width="23.887" height="0.179" transform="translate(75.998 133.52) rotate(-22.26)" opacity="0.1"/><rect width="27.497" height="0.179" transform="translate(76.255 135.017) rotate(-24.31)" opacity="0.1"/><rect width="30.074" height="0.179" transform="matrix(0.916, -0.401, 0.401, 0.916, 76.454, 135.745)" opacity="0.1"/><rect width="35.989" height="0.179" transform="translate(76.87 136.968) rotate(-23.36)" opacity="0.1"/><path d="M152.23,583.558l31.478-6.618,19.177,3.666-25.794,8.317Z" transform="translate(-125.003 -473.747)" fill="#fff" opacity="0.3"/><path d="M560.881,659.69s1.628.656.672,1.67S524,672.966,524,672.966Z" transform="translate(-446.124 -549.463)" fill="#ff7249"/><path d="M645.313,574.18s-4.053,4.947-.833,12.43l-32.372,14.04L609,601.3l-1.431-6.26.971-7.9v-4.323Z" transform="translate(-514.747 -479.246)" fill="#d5d6db"/><path d="M158.46,475.376l44.8-8.166,59.372,9.458L225.76,489.944Z" transform="translate(-130.119 -383.642)" fill="#3a3768"/><path d="M239.25,556.29s-4.192,7.939.637,15.272l66.444,14.4s-4.123-6.33.22-15.1Z" transform="translate(-210.916 -464.556)" fill="#3a3768"/><path d="M239.25,556.29s-4.192,7.939.637,15.272l66.444,14.4s-4.123-6.33.22-15.1l-21.012-4.548Z" transform="translate(-210.916 -464.556)" opacity="0.1"/><path d="M253.217,571.68s-2.393,5.807,0,9.569" transform="translate(-222.898 -477.193)" opacity="0.1"/><path d="M317.044,649.508l37.1-15.828s2.073.447.732,1.967-37.112,15.381-37.112,15.381L250.6,635.111Z" transform="translate(-221.622 -528.105)" fill="#3a3768"/><path d="M317.044,649.508l37.1-15.828s2.073.447.732,1.967-37.112,15.381-37.112,15.381L250.6,635.111Z" transform="translate(-221.622 -528.105)" opacity="0.1"/><path d="M597.8,646.68s-3.577,4.292,0,10.731" transform="translate(-505.42 -538.779)" opacity="0.1"/><rect width="16.914" height="0.179" transform="translate(93.656 113.182) rotate(-18.45)" opacity="0.1"/><rect width="20.609" height="0.179" transform="translate(93.652 114.622) rotate(-20.82)" opacity="0.1"/><rect width="23.887" height="0.179" transform="translate(93.757 116.317) rotate(-22.26)" opacity="0.1"/><rect width="27.497" height="0.179" transform="translate(94.017 117.814) rotate(-24.31)" opacity="0.1"/><rect width="30.074" height="0.179" transform="matrix(0.916, -0.401, 0.401, 0.916, 94.213, 118.54)" opacity="0.1"/><rect width="35.989" height="0.179" transform="translate(94.63 119.763) rotate(-23.36)" opacity="0.1"/><path d="M251.53,487.378l31.478-6.618,19.177,3.666-25.794,8.317Z" transform="translate(-206.543 -394.769)" fill="#fff" opacity="0.45"/><path d="M660.206,563.51s1.626.656.672,1.669-37.548,11.606-37.548,11.606Z" transform="translate(-527.689 -470.485)" fill="#3a3768"/><path d="M654.738,464.15s-4.055,8.884-.835,16.365L621.53,490.62l-3.1.656L617,485.017l.957-7.9v-4.323Z" transform="translate(-522.491 -388.895)" fill="#d5d6db"/><path d="M167.89,365.348,212.7,357.18l59.372,9.458L235.19,379.914Z" transform="translate(-137.863 -293.291)" fill="#ff7249"/><path d="M248.7,446.26s-4.2,7.939.631,15.272l66.444,14.4s-4.124-6.33.218-15.1Z" transform="translate(-218.675 -374.205)" fill="#ff7249"/><path d="M248.7,446.26s-4.2,7.939.631,15.272l66.444,14.4s-4.124-6.33.218-15.1Z" transform="translate(-218.675 -374.205)" opacity="0.1"/><path d="M262.653,461.65s-2.395,5.809,0,9.569" transform="translate(-230.646 -386.842)" opacity="0.1"/><path d="M326.484,546.048l37.094-11.894s2.075.447.733,1.967S327.2,547.568,327.2,547.568L260.04,531.65Z" transform="translate(-229.374 -444.323)" fill="#ff7249"/><path d="M326.484,546.048l37.094-11.894s2.075.447.733,1.967S327.2,547.568,327.2,547.568L260.04,531.65Z" transform="translate(-229.374 -444.323)" opacity="0.1"/><path d="M607.241,536.65s-3.577,4.292,0,10.731" transform="translate(-513.172 -448.429)" opacity="0.1"/><rect width="16.914" height="0.179" transform="translate(95.344 93.503) rotate(-18.45)" opacity="0.1"/><rect width="20.609" height="0.179" transform="translate(95.34 94.943) rotate(-20.82)" opacity="0.1"/><rect width="23.887" height="0.179" transform="translate(95.443 96.639) rotate(-22.26)" opacity="0.1"/><rect width="27.497" height="0.179" transform="translate(95.705 98.134) rotate(-24.31)" opacity="0.1"/><rect width="30.074" height="0.179" transform="matrix(0.916, -0.401, 0.401, 0.916, 95.902, 98.862)" opacity="0.1"/><rect width="35.989" height="0.179" transform="translate(96.319 100.086) rotate(-23.36)" opacity="0.1"/><path d="M260.96,377.348l31.478-6.618,19.177,3.666-25.794,8.317Z" transform="translate(-214.287 -304.418)" fill="#fff" opacity="0.3"/><path d="M669.636,453.48s1.628.656.672,1.67-37.548,11.606-37.548,11.606Z" transform="translate(-535.432 -380.134)" fill="#ff7249"/><path d="M371.146,149.88s-6.8-.41-6,4.359a1.163,1.163,0,0,0,.6,1.225s.013-.358.7-.234a3.05,3.05,0,0,0,.74.036,1.542,1.542,0,0,0,.9-.372h0s1.912-.791,2.656-3.917c0,0,.551-.681.537-.857l-1.152.49a2.064,2.064,0,0,1,.084,1.517s-.038-1.486-.259-1.452c-.045,0-.6.288-.6.288a3.394,3.394,0,0,1,.165,2.491s.193-1.778-.376-2.388l-.808.472a3.568,3.568,0,0,1,.254,2.706,5.071,5.071,0,0,0-.424-2.592l-.733.572a3.485,3.485,0,0,1,.29,2.477s-.059-2.171-.447-2.336a4.42,4.42,0,0,0-.739.8s.508,1.073.191,1.629c0,0-.191-1.447-.358-1.454a4.814,4.814,0,0,0-.7,1.61,3.48,3.48,0,0,1,.549-1.706,1.915,1.915,0,0,0-.977.506s.1-.678,1.136-.737a4.4,4.4,0,0,1,.669-.771,4.187,4.187,0,0,0-1.656.19,1.876,1.876,0,0,1,1.844-.358l.715-.59a6.171,6.171,0,0,0-1.932.02,2.353,2.353,0,0,1,2.127-.154l.789-.47a7.167,7.167,0,0,0-1.846-.159,2.833,2.833,0,0,1,2.076.032l.562-.252s-.846-.166-1.095-.193-.261-.095-.261-.095a2.953,2.953,0,0,1,1.592.179A7.1,7.1,0,0,0,371.146,149.88Z" transform="translate(-315.627 -130.826)" fill="#ff7249"/><path d="M905.746,259.46s-6.8-.41-6,4.359a1.163,1.163,0,0,0,.6,1.225s.012-.358.7-.234a3.151,3.151,0,0,0,.74.036,1.536,1.536,0,0,0,.894-.372h0s1.914-.791,2.656-3.917c0,0,.551-.681.537-.857l-1.148.49a2.064,2.064,0,0,1,.084,1.517s-.038-1.486-.258-1.452c-.045,0-.6.288-.6.288a3.4,3.4,0,0,1,.166,2.491s.193-1.778-.377-2.388l-.808.472a3.568,3.568,0,0,1,.254,2.706,5.071,5.071,0,0,0-.424-2.592l-.732.572a3.488,3.488,0,0,1,.288,2.477s-.059-2.171-.447-2.336a4.486,4.486,0,0,0-.739.8s.508,1.073.193,1.629c0,0-.193-1.447-.358-1.454a4.815,4.815,0,0,0-.7,1.61,3.47,3.47,0,0,1,.551-1.706,1.924,1.924,0,0,0-.978.506s.1-.678,1.136-.737a4.465,4.465,0,0,1,.669-.773,4.2,4.2,0,0,0-1.656.191,1.876,1.876,0,0,1,1.844-.358l.715-.59a6.172,6.172,0,0,0-1.932.02,2.351,2.351,0,0,1,2.127-.154l.787-.47a7.167,7.167,0,0,0-1.846-.159,2.833,2.833,0,0,1,2.076.032l.563-.252s-.848-.166-1.1-.193-.261-.095-.261-.095a2.931,2.931,0,0,1,1.592.179A7.216,7.216,0,0,0,905.746,259.46Z" transform="translate(-754.612 -220.807)" fill="#ff7249" opacity="0.1"/><path d="M428.53,296.475s-2.962-6.14-6.732-3.114a1.162,1.162,0,0,0-.774,1.125s.313-.163.537.5a3.17,3.17,0,0,0,.329.662,1.544,1.544,0,0,0,.767.608h0s1.622,1.284,4.715.408a3.06,3.06,0,0,0,1.005.045l-.987-.764a2.076,2.076,0,0,1-1.284.812s1.281-.757,1.143-.932c-.029-.036-.537-.381-.537-.381a3.4,3.4,0,0,1-2.094,1.359s1.645-.7,1.9-1.493l-.8-.476a3.569,3.569,0,0,1-2.239,1.542s1.7-.789,2.055-1.633l-.855-.358s-.921,1.363-2.023,1.461c0,0,1.867-1.111,1.821-1.531a4.533,4.533,0,0,0-1.057-.256s-.683.964-1.327.964c0,0,1.168-.875,1.1-1.016a4.718,4.718,0,0,0-1.753.179,3.482,3.482,0,0,1,1.758-.358,1.926,1.926,0,0,0-.919-.606s.64-.243,1.2.631a4.411,4.411,0,0,1,1,.207,4.2,4.2,0,0,0-.973-1.35s.826.166,1.2,1.431l.867.343a5.966,5.966,0,0,0-.959-1.676s.816.3,1.171,1.789l.794.458a7.076,7.076,0,0,0-.76-1.688,2.834,2.834,0,0,1,.984,1.828l.5.368s-.268-.821-.358-1.05-.045-.275-.045-.275a2.935,2.935,0,0,1,.622,1.476A6.67,6.67,0,0,0,428.53,296.475Z" transform="translate(-361.564 -247.964)" fill="#ff7249" opacity="0.1"/><path d="M812.311,192.855s-2.96-6.14-6.732-3.114a1.164,1.164,0,0,0-.774,1.125s.315-.161.537.5a3.1,3.1,0,0,0,.331.664,1.535,1.535,0,0,0,.766.606h0s1.624,1.284,4.715.41a3.074,3.074,0,0,0,1.007.043l-.982-.766a2.075,2.075,0,0,1-1.282.814s1.279-.758,1.141-.934c-.029-.036-.536-.381-.536-.381a3.39,3.39,0,0,1-2.094,1.359s1.647-.7,1.9-1.492l-.817-.472a3.57,3.57,0,0,1-2.239,1.542s1.7-.791,2.057-1.635l-.857-.358s-.921,1.365-2.021,1.461c0,0,1.865-1.111,1.819-1.529a4.425,4.425,0,0,0-1.055-.256s-.683.962-1.329.962c0,0,1.17-.875,1.1-1.016a4.729,4.729,0,0,0-1.755.179,3.48,3.48,0,0,1,1.758-.358,1.915,1.915,0,0,0-.917-.606s.64-.243,1.2.631a4.426,4.426,0,0,1,1,.209,4.185,4.185,0,0,0-.975-1.352s.826.168,1.2,1.44l.869.343a5.968,5.968,0,0,0-.959-1.678s.816.3,1.17,1.789l.8.458a7.144,7.144,0,0,0-.762-1.688,2.825,2.825,0,0,1,.984,1.828l.5.368s-.266-.821-.358-1.05-.045-.274-.045-.274a2.942,2.942,0,0,1,.621,1.476A6.867,6.867,0,0,0,812.311,192.855Z" transform="translate(-676.705 -162.877)" fill="#ff7249" opacity="0.1"/><path d="M865.176,362.658s-2.96-6.142-6.737-3.116a1.164,1.164,0,0,0-.774,1.125s.315-.161.536.5a3.1,3.1,0,0,0,.329.664,1.535,1.535,0,0,0,.766.606h0s1.624,1.286,4.716.41c0,0,.862.148,1.005.043l-.987-.764a2.075,2.075,0,0,1-1.284.814s1.279-.758,1.141-.934c-.029-.036-.537-.381-.537-.381a3.4,3.4,0,0,1-2.094,1.361s1.647-.7,1.9-1.493l-.807-.476a3.563,3.563,0,0,1-2.239,1.542s1.7-.791,2.057-1.635l-.857-.358s-.921,1.363-2.021,1.461c0,0,1.867-1.111,1.821-1.531a4.443,4.443,0,0,0-1.057-.256s-.683.962-1.329.962c0,0,1.17-.875,1.1-1.016a4.729,4.729,0,0,0-1.755.179,3.491,3.491,0,0,1,1.76-.358,1.913,1.913,0,0,0-.919-.606s.64-.245,1.2.631a4.412,4.412,0,0,1,1,.207,4.218,4.218,0,0,0-.973-1.352s.826.168,1.2,1.44l.867.343a5.941,5.941,0,0,0-.959-1.676s.816.3,1.17,1.789l.8.456a7.143,7.143,0,0,0-.762-1.688,2.832,2.832,0,0,1,.985,1.83l.5.358s-.268-.821-.358-1.05-.045-.274-.045-.274a2.924,2.924,0,0,1,.621,1.476A7.239,7.239,0,0,0,865.176,362.658Z" transform="translate(-720.111 -302.308)" fill="#ff7249" opacity="0.1"/><ellipse cx="4.112" cy="0.46" rx="4.112" ry="0.46" transform="translate(32.007 139.336)" fill="#ff7249" opacity="0.1"/><ellipse cx="4.112" cy="0.46" rx="4.112" ry="0.46" transform="translate(5.053 131.523)" fill="#ff7249" opacity="0.1"/><ellipse cx="4.112" cy="0.46" rx="4.112" ry="0.46" transform="translate(52.554 144.524)" fill="#ff7249" opacity="0.1"/><ellipse cx="4.112" cy="0.46" rx="4.112" ry="0.46" transform="translate(157.844 133.222)" fill="#ff7249" opacity="0.1"/><ellipse cx="4.112" cy="0.46" rx="4.112" ry="0.46" transform="translate(123.628 130.992)" fill="#ff7249" opacity="0.1"/><ellipse cx="4.863" cy="0.835" rx="4.863" ry="0.835" transform="translate(100.742 141.119)" fill="#ff7249" opacity="0.1"/><path d="M671.536,790.14s-6.771,3.5-3.273,7.619a1.309,1.309,0,0,0,1.281.832s-.19-.347.537-.624a3.486,3.486,0,0,0,.732-.388,1.718,1.718,0,0,0,.655-.875h0s1.384-1.853.311-5.281a3.4,3.4,0,0,0,.018-1.127l-.823,1.129a2.3,2.3,0,0,1,.948,1.409s-.894-1.408-1.073-1.252c-.039.032-.408.617-.408.617a3.788,3.788,0,0,1,1.583,2.3s-.83-1.819-1.726-2.078l-.513.916a3.978,3.978,0,0,1,1.789,2.454s-.935-1.869-1.89-2.246l-.377.968s1.552.987,1.7,2.214c0,0-1.3-2.051-1.765-1.987a4.958,4.958,0,0,0-.254,1.189s1.1.733,1.116,1.454c0,0-1.012-1.279-1.168-1.195a5.39,5.39,0,0,0,.247,1.955,3.859,3.859,0,0,1-.449-1.955,2.146,2.146,0,0,0-.649,1.044s-.292-.706.669-1.357a4.951,4.951,0,0,1,.2-1.123,4.715,4.715,0,0,0-1.481,1.13s.163-.928,1.572-1.39l.358-.98a6.665,6.665,0,0,0-1.844,1.123s.313-.921,1.955-1.363l.487-.894a8.211,8.211,0,0,0-1.864.894,3.168,3.168,0,0,1,2.014-1.157l.4-.563s-.909.324-1.163.44-.3.059-.3.059a3.289,3.289,0,0,1,1.629-.74A7.962,7.962,0,0,0,671.536,790.14Z" transform="translate(-563.761 -656.581)" fill="#ff7249"/><path d="M525.029,110.905c-1.17-3.178-7.608-3.477-10.4-2.667a83.523,83.523,0,0,1-8.406,1.556l-.145-.138c.29-.086.3-.3.261-.61a9.545,9.545,0,0,1,.018-1.238,3.047,3.047,0,0,0,2.59-.581h0c1.61-.715,1.177-3.777,1.484-4.614a53.079,53.079,0,0,0,.59-6.153h.023l.013-.617c.016-.266.023-.422.023-.422a42.294,42.294,0,0,1,.465-5.407,47.317,47.317,0,0,0,.554-5.723V84.2l-.023-.39c.016-.284.023-.6.021-.934,0-1.529-.159-3.455-.179-3.767v-.163c.013-.653-.07-3.922-2.851-5.158-1.025-.458-2.257-1-3.45-1.535-.308-2.656-1.01-5.3-.95-7.973,0-.4.036-.8.075-1.205,0,.116-.013.234-.014.358v.78c.106-3.346,1.37-6.711,1.252-9.985-.011.32-.034.642-.064.964a10.4,10.4,0,0,0-.343-3.289,1.946,1.946,0,0,0-.562-1.019,2.313,2.313,0,0,0-.98-.388,19.712,19.712,0,0,0-2.574-.479,3.973,3.973,0,0,0-.579-1.125c-1.814-2.49-4.5-4.829-7.676-5.366a5.1,5.1,0,0,0-4.511,1.095,3.384,3.384,0,0,0-.318.322c-.583.7-.833,1.61-1.431,2.3-.039.047-.084.089-.127.134-1.17,1.046-2.992,1.264-4.292,2.2a5.153,5.153,0,0,0-.642.56,10.887,10.887,0,0,0-1.4,1.7,7.07,7.07,0,0,0-1.372,2.661c-.374,1.967.966,3.833,1.214,5.813.554,4.43-4.348,8.361-3.42,12.732a5.83,5.83,0,0,0,1.578,2.831c-1.912,1.731-3.54,3.411-3.54,3.411v.1h-.3l.03.358h-.03L474.8,81.7l-.166,2.826v.266h.011a45.2,45.2,0,0,0,.537,5.544,42.234,42.234,0,0,1,.463,5.407s.34,6.355.651,7.2-.131,3.894,1.484,4.614h0a3.4,3.4,0,0,0,1.622.672c-.082.669-.03,1.154.236,1.306a.78.78,0,0,0,.376.107,3.986,3.986,0,0,0-.292.51,7.576,7.576,0,0,1-1.874-.442c-1.735-.715-7.492-2.325-9.164-1.193s-5.7,2.159-3.838,6.716,2.724,4.672,2.724,4.672a6.616,6.616,0,0,1,1.486,1.493c.558.839,5.757,2.758,7.057,2.758a12.732,12.732,0,0,1,1.654.082s-1.411,1.238-1.223,1.957a59.379,59.379,0,0,1-.429,6.474s1.431,1.442,2.042-.449l.021.029c.114.156.733.858,1.9-.029a10.641,10.641,0,0,1,1.513-.959l5.637-.8a15.955,15.955,0,0,1,1.765-.013,3.689,3.689,0,0,0,2.325-.866c1.168.444,2.481.928,3.1,1.105,1.266.358,7.086,1.919,8.447,1.431a1.89,1.89,0,0,0,.733-.522l1.3.041-.608.122s1.184.02,2.794.041l-.068.039,2.019-.018c2.955.027,6.274.036,6.711-.063a47.141,47.141,0,0,1,5.28,0h.292a3.2,3.2,0,0,0,2.291-4.736c-1.238-3.04-5.042-3.924-6.73-4.167.476-.095.885-.168,1.157-.211a9.167,9.167,0,0,0,3.654-1.619c.186-.367,2.105-1.431,2.6-2.037A11.393,11.393,0,0,0,525.029,110.905ZM492.72,119.8l-.191.063-.129.043-.247.243c-.2-.132-.408-.272-.628-.415C491.913,119.757,492.312,119.78,492.72,119.8Zm17.046,5.04Z" transform="translate(-397.157 -43.42)" fill="url(#a)"/><path d="M686.65,263.728s2.736,7.154,4.292,6.439,1.134-3.756,1.431-4.589.626-7.154.626-7.154a43.243,43.243,0,0,1,.447-5.376,49.263,49.263,0,0,0,.537-5.686v-.088l-.3-5.187-1.67-.417-3.874,1.431-.537,3.064-.209,1.2-.089.51Z" transform="translate(-579.684 -206.206)" fill="#be6f72"/><path d="M691.69,358.3a19.214,19.214,0,0,0,3.4,2.325c.787.188,1.27,1.855,1.27,1.855" transform="translate(-583.822 -301.977)" opacity="0.1"/><path d="M533.333,265.478s-2.736,7.154-4.292,6.439-1.134-3.756-1.431-4.589-.626-7.154-.626-7.154a43.231,43.231,0,0,0-.447-5.376,49.29,49.29,0,0,1-.537-5.686v-.088l.3-5.187,1.671-.417,3.874,1.431.537,3.064.209,1.2.089.51Z" transform="translate(-447.766 -207.643)" fill="#be6f72"/><rect width="6.108" height="9.52" transform="translate(97.278 19.549)" fill="#3e373a"/><rect width="6.108" height="9.52" transform="translate(97.278 19.549)" opacity="0.1"/><path d="M554.182,403.977s-2.087,2.295-1.313,2.711,5.784,8.227,5.784,8.227,16.454,2.026,19.557-1.014,3.041-8.472,3.041-8.472-2.493.537-2.765.245-1.765-1.7-1.765-1.7S555.612,402.7,554.182,403.977Z" transform="translate(-469.688 -339.017)" fill="#4b4b5b"/><path d="M554.182,403.977s-2.087,2.295-1.313,2.711,5.784,8.227,5.784,8.227,16.454,2.026,19.557-1.014,3.041-8.472,3.041-8.472-2.493.537-2.765.245-1.765-1.7-1.765-1.7S555.612,402.7,554.182,403.977Z" transform="translate(-469.688 -339.017)" opacity="0.02"/><path d="M563.244,168.843l-5.366,4.292-1.622.118-.6.043-10,.733-10.373-.758-1.543-.113-1.967-.143-4.114-3.935a70.447,70.447,0,0,1,5.462-5.224,11.205,11.205,0,0,1,2.647-1.769l.118-.041a2.944,2.944,0,0,0,1.134-.791c2.014-2.076,3.876-7.2,3.876-7.2s8.884-4.589,7.81,1.431,3.994,4.532,3.994,4.532l1.671.762.66.3,1.683.771,3.8,1.742C563.491,164.967,563.244,168.843,563.244,168.843Z" transform="translate(-449.13 -132.887)" fill="#be6f72"/><circle cx="7.989" cy="7.989" r="7.989" transform="translate(88.122 10.092)" opacity="0.1"/><path d="M561.894,218.858H526v-.088l.3-5.187a70.447,70.447,0,0,1,5.462-5.224l22.535-.894,1.048-1.105,3.8,1.742c2.981,1.37,2.742,5.246,2.742,5.246S562.289,217.839,561.894,218.858Z" transform="translate(-447.766 -177.212)" opacity="0.1"/><path d="M561.894,217.858H526v-.088l.3-5.187a70.447,70.447,0,0,1,5.462-5.224l22.535-.894,1.048-1.105,3.8,1.742c2.981,1.37,2.742,5.246,2.742,5.246S562.289,216.839,561.894,217.858Z" transform="translate(-447.766 -176.391)" fill="#e7c7ca"/><path d="M583.526,186.745s5.662,7.215,13.2-.148.835,16.424.835,16.424l-16.276,1.932Z" transform="translate(-493.168 -159.822)" opacity="0.1"/><path d="M583.526,188.745s5.662,7.215,13.2-.148.835,16.424.835,16.424l-16.276,1.932Z" transform="translate(-493.168 -161.464)" fill="#e7c7ca"/><path d="M574.63,201.645l.6,9.138.642,3.04.49,2.325s1.252,17.885.894,18.779.179,1.61.254,2.085-.075,1.67-.016,2.207,0,.774-1.37.583-3.28-.524-3.28-.524-4.829.358-6.5-.238a19.066,19.066,0,0,0-4.829-.6s-4.77.12-6.319-.059-2.386,1.908-3.4,1.311,1.191-6.378,1.907-8.048-.953-5.9-.953-5.9l2.146-11.906.478-2.7v-8.485l.118-.041a2.944,2.944,0,0,0,1.134-.791l.537,8.538,16.812.6v-9.61" transform="translate(-468.737 -173.098)" opacity="0.1"/><path d="M574.63,199.645l.6,9.138.642,3.04.49,2.325s1.252,17.885.894,18.779.179,1.61.254,2.085-.075,1.67-.016,2.207,0,.774-1.37.583-3.28-.524-3.28-.524-4.829.358-6.5-.238a19.066,19.066,0,0,0-4.829-.6s-4.77.12-6.319-.059-2.386,1.908-3.4,1.311,1.191-6.378,1.907-8.048-.953-5.9-.953-5.9l2.146-11.906.478-2.7v-8.485l.118-.041a2.944,2.944,0,0,0,1.134-.791l.537,8.538,16.812.6v-9.61" transform="translate(-468.737 -171.455)" fill="#e7c7ca"/><path d="M565.077,55.687a1.971,1.971,0,0,0-.537-1.012,2.2,2.2,0,0,0-.944-.386,18.659,18.659,0,0,0-2.482-.476,3.975,3.975,0,0,0-.537-1.114c-1.753-2.475-4.346-4.809-7.4-5.337a4.693,4.693,0,0,0-4.471,1.231c-.562.692-.8,1.61-1.37,2.289-1.093,1.32-3.066,1.483-4.443,2.5a8.231,8.231,0,0,0-1.789,2.069,7.1,7.1,0,0,0-1.322,2.645c-.358,1.951.932,3.811,1.17,5.781.537,4.405-4.185,8.313-3.293,12.659.52,2.534,2.862,4.319,5.283,5.224a3.665,3.665,0,0,1,2.227,1.458c.179.358.209.771.377,1.132.565,1.205,2.423,1.252,3.421.374A5.331,5.331,0,0,0,550.4,81.1c.479-5.788-1.839-11.506-1.569-17.308.081-1.755.574-3.745,2.146-4.539,2.116-1.073,4.661.715,6.99.374a13.866,13.866,0,0,1,.669,8.462,23.118,23.118,0,0,0-1.057,4.632c-.07,2.423,1.238,4.638,2.368,6.78a3.606,3.606,0,0,1,.478,1.307,3.151,3.151,0,0,1-.256,1.368c-.638,1.719-1.74,3.314-1.865,5.144a.832.832,0,0,0,.134.612.769.769,0,0,0,.461.207c1.932.331,3.6-1.381,4.545-3.1a14.531,14.531,0,0,0,1.792-6.174c.195-3.641-1.111-7.224-1.03-10.869C564.3,63.857,566.174,59.684,565.077,55.687Z" transform="translate(-457.251 -46.567)" opacity="0.1"/><path d="M566.077,54.687a1.971,1.971,0,0,0-.537-1.012,2.2,2.2,0,0,0-.944-.386,18.659,18.659,0,0,0-2.482-.476,3.975,3.975,0,0,0-.537-1.114c-1.753-2.475-4.346-4.809-7.4-5.337a4.693,4.693,0,0,0-4.471,1.231c-.562.692-.8,1.61-1.37,2.289-1.093,1.32-3.065,1.483-4.443,2.5a8.231,8.231,0,0,0-1.789,2.069,7.1,7.1,0,0,0-1.322,2.645c-.358,1.951.932,3.811,1.17,5.781.537,4.405-4.185,8.313-3.293,12.659.52,2.534,2.862,4.319,5.283,5.224a3.665,3.665,0,0,1,2.227,1.458c.179.358.209.771.377,1.132.565,1.205,2.423,1.252,3.421.374A5.331,5.331,0,0,0,551.4,80.1c.479-5.788-1.839-11.506-1.568-17.308.08-1.755.574-3.745,2.146-4.539,2.116-1.073,4.661.715,6.99.374a13.867,13.867,0,0,1,.669,8.462,23.118,23.118,0,0,0-1.057,4.632c-.07,2.423,1.238,4.638,2.368,6.78a3.609,3.609,0,0,1,.478,1.307,3.151,3.151,0,0,1-.256,1.368c-.638,1.719-1.74,3.314-1.865,5.144a.831.831,0,0,0,.134.612.769.769,0,0,0,.461.207c1.932.331,3.6-1.381,4.545-3.1a14.529,14.529,0,0,0,1.792-6.174c.195-3.641-1.111-7.224-1.03-10.869C565.3,62.857,567.174,58.684,566.077,54.687Z" transform="translate(-458.072 -45.745)" fill="#3e373a"/><path d="M581.79,469.615l7.1.227-1.018-5.262-5.435.517Z" transform="translate(-477.736 -381.483)" fill="#c3c7d9"/><path d="M641.928,415.521c-.478.6-2.325,1.669-2.5,2.026a8.808,8.808,0,0,1-3.518,1.61,29.293,29.293,0,0,0-5.366,1.372,52.294,52.294,0,0,1-6.727,1.78,19.087,19.087,0,0,1-2.037.367c-1.073.059-12.817-3.935-12.817-3.935l2.264-2.325.125-.043c.64-.216,3.6-1.216,5.24-1.692a12.054,12.054,0,0,0,4-2.742s3.159-1.073,3.577-1.193-1.073-4.173-1.073-4.173,6.855-.951,9.538-1.758,8.884-.508,10.016,2.652A11.646,11.646,0,0,1,641.928,415.521Z" transform="translate(-515.889 -339.86)" fill="#4b4b5b"/><path d="M549.1,493.739a4.185,4.185,0,0,1-2.742,1.313c-1.372-.118-6.169.358-6.169.358a9.616,9.616,0,0,0-2.416,1.4c-1.121.884-1.717.179-1.828.029l-.02-.029c-.6,1.88-1.967.447-1.967.447a60.531,60.531,0,0,0,.413-6.439c-.182-.715,1.179-1.944,1.179-1.944l1.61-.41,4.078-1.044,5.843,2.026Z" transform="translate(-454.303 -408.003)" fill="#e7c7ca"/><path d="M537.154,493.26l-1.207,8.374-.02-.029c-.6,1.88-1.967.447-1.967.447a60.531,60.531,0,0,0,.413-6.439c-.182-.715,1.179-1.944,1.179-1.944Z" transform="translate(-454.303 -412.799)" opacity="0.1"/><path d="M599,360.08a9.761,9.761,0,0,0,5.9,0" transform="translate(-507.71 -303.438)" opacity="0.1"/><path d="M659.29,371.42a2.609,2.609,0,0,0,2.325,0" transform="translate(-557.217 -312.75)" opacity="0.1"/><path d="M659.29,378.72s2.205.3,2.624-.3" transform="translate(-557.217 -318.498)" opacity="0.1"/><path d="M655.29,393s4.142-.537,5.171-1.252" transform="translate(-553.933 -329.444)" opacity="0.1"/><path d="M584.62,391.75A9.833,9.833,0,0,0,588.675,393" transform="translate(-495.902 -329.444)" opacity="0.1"/><path d="M623.8,477.116a19.094,19.094,0,0,1-2.037.367c-1.073.059-12.817-3.935-12.817-3.935l2.264-2.325.125-.043c.358.252.651.469.86.633.985.776,1.937-.238,2.295-.238a28.947,28.947,0,0,1,3.457,2.563s2.862.656,3.339,1.252,2.146.478,2.443.894A1.6,1.6,0,0,1,623.8,477.116Z" transform="translate(-515.881 -394.668)" opacity="0.1"/><path d="M488.253,408.032a12.964,12.964,0,0,1-4.562-.537c-1.669-.7-7.213-2.325-8.823-1.186s-5.485,2.146-3.7,6.678,2.624,4.65,2.624,4.65a6.457,6.457,0,0,1,1.431,1.484c.537.835,5.544,2.742,6.8,2.742a10.393,10.393,0,0,1,6.557,2.146,13.476,13.476,0,0,0,5.9,2.386s3.935,1.61,5.16,1.967,6.823,1.907,8.136,1.431,2.146-3.459,2.146-3.459.6-2.683.3-3.1-1.967-.3-2.443-.894-3.339-1.252-3.339-1.252a28.832,28.832,0,0,0-3.45-2.565c-.358,0-1.309,1.012-2.295.238a52.355,52.355,0,0,0-6.172-3.935C490.256,413.636,488.253,408.032,488.253,408.032Z" transform="translate(-402.365 -341.076)" fill="#4b4b5b"/><path d="M536.27,427.1a3.416,3.416,0,0,1,2.931.774,51.856,51.856,0,0,0,6.246,3.588" transform="translate(-456.2 -358.417)" opacity="0.1"/><path d="M701.531,427s-6.38.966-7.571,2.277" transform="translate(-585.686 -358.39)" opacity="0.1"/><path d="M702.015,496.363h-.281a48.1,48.1,0,0,0-5.085,0c-.774.179-11.03,0-11.03,0l2-.417s-.744-2.608-.272-2.824c0,0-2.683-1.767-.66-2.96a6.275,6.275,0,0,1,4.2-.69l5.078-1.721.975-.331s5.723.3,7.272,4.233S702.015,496.363,702.015,496.363Z" transform="translate(-578.838 -408.003)" fill="#e7c7ca"/><path d="M749.552,496.4h-.281c1.665-1.374,5.432-5.555-5.761-8.6l.975-.331s5.723.3,7.272,4.233S749.552,496.4,749.552,496.4Z" transform="translate(-626.374 -408.044)" opacity="0.1"/><circle cx="0.313" cy="0.313" r="0.313" transform="translate(112.342 83.097)" fill="#4b4b5b"/><circle cx="0.313" cy="0.313" r="0.313" transform="translate(110.523 83.614)" fill="#4b4b5b"/><g transform="translate(80.527 11.254)" opacity="0.1"><path d="M611.987,113.131a13.876,13.876,0,0,0-1.027-5.748c-2.325.347-4.872-1.447-6.99-.374-1.567.794-2.059,2.785-2.146,4.539-.021.463-.025.926-.016,1.39,0-.165,0-.331.016-.5.082-1.755.574-3.745,2.146-4.539,2.118-1.073,4.661.715,6.99.374A13.84,13.84,0,0,1,611.987,113.131Z" transform="translate(-590.54 -106.599)"/><path d="M552.254,114.452a5.955,5.955,0,0,0-.023-1.17c-.19-1.574-1.05-3.078-1.205-4.613-.2,1.851.978,3.629,1.205,5.507A1.118,1.118,0,0,1,552.254,114.452Z" transform="translate(-548.824 -108.248)"/><path d="M551.676,206.59a5.261,5.261,0,0,1-1.431,3.625c-1.007.88-2.862.832-3.421-.374-.179-.358-.206-.774-.379-1.132-.4-.819-1.374-1.137-2.227-1.458-2.423-.907-4.761-2.683-5.281-5.224a5.478,5.478,0,0,1-.095-.7,5.638,5.638,0,0,0,.095,1.592c.521,2.534,2.862,4.317,5.282,5.224.853.32,1.83.639,2.227,1.458.179.358.209.771.379,1.132.563,1.205,2.422,1.252,3.421.374a5.332,5.332,0,0,0,1.431-3.625,20.46,20.46,0,0,0,.055-2.1C551.732,205.791,551.709,206.191,551.676,206.59Z" transform="translate(-538.823 -184.335)"/><path d="M687.93,115.464v.774c.1-3.327,1.32-6.671,1.2-9.928C689.037,109.322,688,112.4,687.93,115.464Z" transform="translate(-661.262 -106.31)"/><path d="M653.59,195.458a2.3,2.3,0,0,0,.041-.646,3.577,3.577,0,0,0-.477-1.307c-1.034-1.967-2.212-3.981-2.352-6.165,0,.093-.013.179-.014.279-.072,2.422,1.236,4.638,2.366,6.78A4.292,4.292,0,0,1,653.59,195.458Z" transform="translate(-630.76 -172.848)"/><path d="M661.731,216.618a14.553,14.553,0,0,1-1.8,6.174c-.944,1.719-2.613,3.43-4.546,3.1a.76.76,0,0,1-.461-.209.448.448,0,0,1-.084-.139c-.021.139-.039.281-.05.424a.824.824,0,0,0,.134.61.76.76,0,0,0,.461.209c1.933.331,3.6-1.381,4.546-3.1a14.553,14.553,0,0,0,1.8-6.174c.021-.419.023-.835.011-1.252C661.738,216.38,661.738,216.5,661.731,216.618Z" transform="translate(-634.034 -196.595)"/></g><path d="M695.31,508.724a6.329,6.329,0,0,0,7.512-2.3" transform="translate(-586.795 -423.605)" fill="none" stroke="#000" stroke-miterlimit="10" stroke-width="1" opacity="0.1"/><path d="M700.29,532.846a8.825,8.825,0,0,1,8.406-.079" transform="translate(-590.884 -444.408)" fill="none" stroke="#000" stroke-miterlimit="10" stroke-width="1" opacity="0.1"/><path d="M561.93,526.383s1.552-3.5,5.7-.832" transform="translate(-477.27 -438.49)" fill="none" stroke="#000" stroke-miterlimit="10" stroke-width="1" opacity="0.1"/><path d="M533.79,229.184l3.166-2.862s12.275-.8,12.783,3.368c0,0,4.352-4.947,13.5-3.845l3.872,3.083-10.7,4.7-10.4,3.607-7.66-3.429Z" transform="translate(-454.163 -193.08)" opacity="0.1"/><path d="M533.79,230.184l3.166-2.862s12.275-.8,12.783,3.368c0,0,4.352-4.947,13.5-3.845l3.872,3.083-10.7,4.7-10.4,3.607-7.66-3.429Z" transform="translate(-454.163 -193.902)" fill="#d5d6db"/><path d="M437.38,204.83l1.4,16.753,14.845.746-.644-16.682-.013-.281Z" transform="translate(-359.154 -168.19)" opacity="0.1"/><path d="M437.38,202.83l1.4,16.753,14.845.746-.644-16.682-.013-.281Z" transform="translate(-359.154 -166.547)" fill="#ff7249"/><path d="M565.023,202.83l-15.313,2.3v16.828l14.965-2.162Z" transform="translate(-451.393 -166.547)" opacity="0.1"/><path d="M565.023,200.83l-15.313,2.3v16.828l14.965-2.162Z" transform="translate(-451.393 -164.905)" fill="#ff7249"/><path d="M577.162,223.79l-8.272.919.181,2.819,8.086-.884Z" transform="translate(-467.143 -183.758)" fill="#fff" opacity="0.3"/><path d="M536.64,321.579l.842,2.266a2.814,2.814,0,0,0,2.622.537,13.39,13.39,0,0,0,3.16-1.325,11.98,11.98,0,0,0,1.431-3.146s.835-2.862,1.669-3.577,3.04-10.572,0-9.608S541,316.632,541,316.632a2.121,2.121,0,0,1-1.311.715c-.774.061-2.325-.12-2.624.537S535.745,320.268,536.64,321.579Z" transform="translate(-456.208 -259.572)" fill="#be6f72"/><path d="M617.671,253.94a5.151,5.151,0,0,1-4.491-1.12l.646,16.68a4.552,4.552,0,0,0,3.845,1.27Z" transform="translate(-519.354 -215.362)" opacity="0.1"/><path d="M617.671,251.94a5.151,5.151,0,0,1-4.491-1.12l.646,16.68a4.552,4.552,0,0,0,3.845,1.27Z" transform="translate(-519.354 -213.72)" fill="#ff7249"/><path d="M617.671,251.94a5.151,5.151,0,0,1-4.491-1.12l.646,16.68a4.552,4.552,0,0,0,3.845,1.27Z" transform="translate(-519.354 -213.72)" opacity="0.1"/><path d="M640.29,238.938s6.229-1.9,7.853-1.636" transform="translate(-541.615 -202.598)" opacity="0.1"/><path d="M568.977,236.882s-6.038-1.431-7.047-1.025" transform="translate(-477.27 -201.373)" opacity="0.1"/><path d="M662.25,243.322s4.165-1.527,5.671-.8" transform="translate(-559.648 -206.744)" opacity="0.1"/><path d="M650.52,447.743a13.7,13.7,0,0,1,2.053-1.275,33.493,33.493,0,0,0,3.04-1.858" transform="translate(-550.016 -372.85)" opacity="0.1"/><path d="M540.5,360.08a19.282,19.282,0,0,1-3.4,2.325c-.785.188-1.27,1.855-1.27,1.855" transform="translate(-455.838 -303.438)" opacity="0.1"/><path d="M663.56,319.824l-.833,2.271a2.817,2.817,0,0,1-2.624.537,13.391,13.391,0,0,1-3.16-1.325,11.921,11.921,0,0,1-1.431-3.146s-.833-2.862-1.669-3.577-3.04-10.572,0-9.608,5.366,9.907,5.366,9.907a2.121,2.121,0,0,0,1.311.715c.774.061,2.325-.12,2.624.537S664.454,318.518,663.56,319.824Z" transform="translate(-551.466 -258.135)" fill="#be6f72"/><path d="M707.15,364.94s1.708,1.1,1.7,2.411" transform="translate(-596.517 -307.429)" opacity="0.1"/><circle cx="7.989" cy="7.989" r="7.989" transform="translate(88.151 9.7)" fill="#be6f72"/><path d="M579.907,91.628a16.373,16.373,0,0,0,2.745-1.039c2.073-.728,4.366-.229,6.464.427a8.383,8.383,0,0,0,2.466.537,2.5,2.5,0,0,0,2.171-1.073,2.426,2.426,0,0,0-.014-2.241,6.313,6.313,0,0,0-1.459-1.8c-1.86-1.756-4.167-3.4-6.719-3.219a9.248,9.248,0,0,0-2.953.846,32.547,32.547,0,0,0-3.466,1.746c-.86.5-2.454,1.166-2.949,2.078C575.065,89.943,578.154,91.9,579.907,91.628Z" transform="translate(-488.784 -76.083)" fill="#3e373a"/><path d="M593.75,113.177a2.5,2.5,0,0,1-2.171,1.073,8.389,8.389,0,0,1-2.468-.526c-2.1-.656-4.389-1.157-6.464-.427a15.571,15.571,0,0,1-2.745,1.037c-1.413.222-3.688-1.009-3.935-2.574-.277,1.808,2.361,3.357,3.935,3.11a16.462,16.462,0,0,0,2.745-1.037c2.075-.73,4.366-.229,6.464.427a8.05,8.05,0,0,0,2.468.526,2.515,2.515,0,0,0,2.171-1.073,2.094,2.094,0,0,0,.25-1.307A1.929,1.929,0,0,1,593.75,113.177Z" transform="translate(-488.78 -99.531)" opacity="0.1"/><path d="M1024.6,661.63s1.061,1.386-.49,3.48-2.828,3.861-2.313,5.167c0,0,2.339-3.888,4.242-3.944S1026.691,663.968,1024.6,661.63Z" transform="translate(-854.794 -551.056)" fill="#ff7249"/><path d="M1024.878,661.63a1.714,1.714,0,0,1,.216.435c1.856,2.182,2.847,4.219,1.061,4.269-1.663.048-3.657,3.023-4.135,3.772a1.761,1.761,0,0,0,.055.179s2.339-3.888,4.242-3.944S1026.969,663.968,1024.878,661.63Z" transform="translate(-855.072 -551.056)" opacity="0.1"/><path d="M1047.875,670.078c0,.488-.055.884-.122.884s-.123-.4-.123-.884.068-.258.136-.258S1047.875,669.589,1047.875,670.078Z" transform="translate(-876.102 -557.736)" fill="#ffd037"/><path d="M1048.953,673.19c-.427.233-.8.374-.833.315s.288-.3.715-.537.259-.064.292,0S1049.382,672.956,1048.953,673.19Z" transform="translate(-876.502 -560.266)" fill="#ffd037"/><path d="M995.739,661.63s-1.061,1.386.49,3.48,2.828,3.861,2.311,5.167c0,0-2.338-3.888-4.242-3.944S993.653,663.968,995.739,661.63Z" transform="translate(-831.538 -551.056)" fill="#ff7249"/><path d="M995.739,661.63a1.718,1.718,0,0,0-.216.435c-1.856,2.182-2.847,4.219-1.061,4.269,1.661.048,3.657,3.023,4.135,3.772a1.385,1.385,0,0,1-.057.179s-2.338-3.888-4.242-3.944S993.653,663.968,995.739,661.63Z" transform="translate(-831.538 -551.056)" opacity="0.1"/><path d="M995.64,670.078c0,.488.054.884.122.884s.123-.4.123-.884-.07-.258-.136-.258S995.64,669.589,995.64,670.078Z" transform="translate(-833.41 -557.736)" fill="#ffd037"/><path d="M990.665,673.19c.427.233.8.374.833.315s-.288-.3-.715-.537-.259-.064-.292,0S990.236,672.956,990.665,673.19Z" transform="translate(-829.111 -560.266)" fill="#ffd037"/><ellipse cx="11.089" cy="1.701" rx="11.089" ry="1.701" transform="translate(155.914 126.43)" fill="#ff7249" opacity="0.1"/><path d="M1001.816,696.557l-.054.433-.075.612-.03.256-.075.612-.032.256-.073.61-.85,6.957c-.075.621-1.089,1.105-2.314,1.105H993.9c-1.225,0-2.237-.485-2.314-1.105l-.85-6.957-.075-.61-.03-.256-.075-.612-.032-.256-.073-.612-.054-.433c-.041-.358.506-.647,1.2-.647h9.018C1001.31,695.91,1001.859,696.205,1001.816,696.557Z" transform="translate(-829.106 -579.205)" fill="#65617d"/><path d="M913.439,658.53l-.073.612h-11.16l-.075-.612Z" transform="translate(-740.782 -540.744)" fill="#9d9cb5"/><path d="M913.818,663.38l-.073.612H902.8l-.075-.612Z" transform="translate(-741.267 -544.727)" fill="#9d9cb5"/><path d="M914.2,668.23l-.075.612H903.393l-.073-.612Z" transform="translate(-741.759 -548.709)" fill="#9d9cb5"/></g></svg>