<svg xmlns="http://www.w3.org/2000/svg" width="178.083" height="145.48" viewBox="0 0 178.083 145.48"><g transform="translate(-0.001 -0.022)" opacity="0.7"><path d="M282.3,132.85v.33q-.029,2.859-.339,5.7a.2.2,0,0,1,0,.034c-.016.158-.034.313-.053.471-.031.266-.063.531-.1.8a57.346,57.346,0,0,1-2.089,9.565h0a51.578,51.578,0,0,1-5.454,12.009q-1.073,1.721-2.285,3.332h0c-.431.569-.871,1.125-1.326,1.672q-.478.574-.975,1.131l-.207.228a53.757,53.757,0,0,1-5.617,5.338,88.146,88.146,0,0,1-10.34,7.236c-.2.125-.408.248-.612.362a.3.3,0,0,1-.045.027,109.035,109.035,0,0,1-15.056,7.695,68.291,68.291,0,0,1-17.535,4.754c-8.374,1.029-16.85.192-25.174-1.247a163.59,163.59,0,0,1-20.474-4.892l-1.105-.346q-.859-.274-1.716-.558-5.176-1.712-10.237-3.8a134.562,134.562,0,0,1-24.157-12.971q-1.449-.975-2.857-1.993-1.968-1.417-3.888-2.917l-.79-.612a81.215,81.215,0,0,1-9.389-8.622,47.874,47.874,0,0,1-9.422-14.495q-.518-1.288-.949-2.625l-.027-.089c-.145-.453-.279-.906-.4-1.377q-.272-1.011-.477-2.047c-.029-.132-.054-.265-.078-.4a34.281,34.281,0,0,1-.571-7.053,32.612,32.612,0,0,1,.725-6.16h0a27.79,27.79,0,0,1,2.053-6.082h0a21.922,21.922,0,0,1,3.14-4.843h0a18.523,18.523,0,0,1,2.959-2.765,24.167,24.167,0,0,1,6.4-3.29h0c1.062-.38,2.138-.714,3.22-1.024.766-.221,1.536-.431,2.3-.638l2.261-.611c1.449-.395,2.9-.8,4.327-1.239a48.735,48.735,0,0,0,11.233-4.772c.558-.339,1.127-.71,1.7-1.109q1.087-.756,2.145-1.642h0c.714-.6,1.413-1.237,2.08-1.915.1-.105.2-.21.306-.317.544-.573,1.071-1.172,1.56-1.8.239-.3.471-.614.692-.929.306-.437.6-.881.864-1.337h0a13.688,13.688,0,0,0,2.076-7.456,11.47,11.47,0,0,0-.118-1.306c-.236-1.6-.462-3.162-.629-4.689-.7-6.318-.4-12.047,4.338-17.43,5.9-6.691,15.149-8.055,23.572-7.521,24.353,1.54,46.522,15.444,66,32q2.528,2.145,4.993,4.348.621.554,1.245,1.116c3.08,2.774,6.113,5.651,8.938,8.733.228.25.457.5.681.752.138.156.277.31.413.467q1.321,1.495,2.564,3.062a58.008,58.008,0,0,1,5.856,8.878,50.4,50.4,0,0,1,5.142,15.7h0a55.964,55.964,0,0,1,.621,6.01c.031.592.051,1.187.062,1.779v.569C282.305,132.307,282.305,132.575,282.3,132.85Z" transform="translate(-108.55 -48.49)" fill="#ff7249" opacity="0.1"/><path d="M380.879,445.465l-2.9,51.6,2.9.038,2.355-52.362Z" transform="translate(-309.495 -364.143)" fill="#3f3d56"/><rect width="35.874" height="7.791" transform="translate(24.82 107.465)" fill="#ff7249"/><path d="M271.485,679.51V684.4H234.428q-1.968-1.417-3.888-2.917V679.51Z" transform="translate(-208.436 -565.162)" fill="#3f3d56"/><path d="M232.933,523.579c-.1.469-.234.933-.373,1.4a18.187,18.187,0,0,0-1,4.04c-.129,1.834.362,3.966-.906,5.3-.326.344-.752.6-1.044.969a1.694,1.694,0,0,0-.123.181,2.808,2.808,0,0,0-.3,1.449,25.37,25.37,0,0,0,.2,3.144c.429,3.587,1.277,7.182.163,10.568a16.289,16.289,0,0,1-.7,1.723,13.468,13.468,0,0,0-1.314,3.671,23.131,23.131,0,0,0-.1,2.926q-.859-.274-1.716-.558-5.176-1.712-10.237-3.8c.009-.049.018-.1.025-.149a11.543,11.543,0,0,0-.527-4.834c-.906-3.332-2.189-6.631-2.948-9.987a25.267,25.267,0,0,1-.6-3.986c-.022-.3-.034-.6-.036-.906-.009-.395,0-.79.016-1.189.038-.8.072-1.739-.563-2.223a4.868,4.868,0,0,0-1.219-.467,6.912,6.912,0,0,1-1.948-1.585,2.553,2.553,0,0,0-2.281-.67c-4.073.933-7.066,4.388-10.856,6.135-.147.069-.294.134-.442.2a6.438,6.438,0,0,0-1.39.71,1.583,1.583,0,0,0-.623.879,3.288,3.288,0,0,0,.034,1.181,6.031,6.031,0,0,1-.082,1.926,5.878,5.878,0,0,1-.194.725c-.145.429-.339.85-.524,1.268q-1.449-.975-2.857-1.993-1.968-1.417-3.888-2.917l-.777-.625a81.221,81.221,0,0,1-9.389-8.622,32.831,32.831,0,0,0,1.212-3.212c.152-.64.208-1.3.419-1.926a6.927,6.927,0,0,1,1-1.794,24.279,24.279,0,0,1,5.57-5.573c2.245-1.609,4.838-2.9,6.858-4.725a10.822,10.822,0,0,0,2.1-2.484,1.556,1.556,0,0,0,.1-.181,3.762,3.762,0,0,0,.324-1.036c.145-.812.123-1.7.2-2.482a26.477,26.477,0,0,0,7.452.225c2.89-.324,5.716-1.127,8.606-1.439.217-.025.437-.045.656-.063.926-.074,1.854-.091,2.783-.08.777,0,1.555.034,2.332.06l8.557.29a8.4,8.4,0,0,1,2.8.415,6.114,6.114,0,0,1,2.558,2.131c.085.116.17.232.25.351a11.052,11.052,0,0,1,1.319,2.607c.034.094.067.181.1.284.082.252.152.506.216.763.049.2.092.4.132.605a25.991,25.991,0,0,0,.632,3c.022.071.045.141.071.21.379,1.062,1.007,2.013,1.482,3.033a11.263,11.263,0,0,1,.779,2.306A11.4,11.4,0,0,1,232.933,523.579Z" transform="translate(-162.484 -420.365)" fill="#35323e"/><path d="M248.516,258.838c-.765-.609-1.873-.163-2.768.23a17.781,17.781,0,0,1-2.312.835.977.977,0,0,1-.507.053c-.362-.087-.515-.516-.785-.777a1.746,1.746,0,0,0-1.843-.1,4.206,4.206,0,0,1-1.852.544c-.692-.054-1.294-.565-1.993-.582-1.232-.029-2.267,1.489-3.432,1.087-.71-.245-1.268-1.169-1.968-.906-.544.207-.592.958-.92,1.449a3.5,3.5,0,0,1-1.781.987,5.117,5.117,0,0,0-3.105,5.223,18.006,18.006,0,0,0,1.107,3.428c1.134,3.314.745,7.052,2.174,10.248.181-.17.283-.234.458-.4a4.193,4.193,0,0,0-.245,3.008c.15.5.395.969.58,1.46a13.09,13.09,0,0,1,.464,1.685l1.576,6.954a45.154,45.154,0,0,1,1.341,8.218,23.987,23.987,0,0,1-.413,5.4c2.855-.473,5.468-1.739,8.362-1.723a23.315,23.315,0,0,1,3.167.326,65.192,65.192,0,0,0,9.264.629,3.678,3.678,0,0,0,1.42-.2,10.646,10.646,0,0,0,1.1-.692,4.873,4.873,0,0,1,2.48-.544c3.875-.071,7.61,1.348,11.46,1.848a13.8,13.8,0,0,0,.444-10.349,15.448,15.448,0,0,1-.949-3,15.16,15.16,0,0,1-.044-1.926,13.97,13.97,0,0,0-.875-4.816,4.952,4.952,0,0,1-.471-1.861,4.228,4.228,0,0,1,.652-1.812,12.574,12.574,0,0,1,5.354-5.845l2.8-1.877a27.583,27.583,0,0,0-1.9-7.18,12.768,12.768,0,0,0-4.626-5.562,15.279,15.279,0,0,0-2.185-1.087,10.152,10.152,0,0,0-3.307-.906,17.525,17.525,0,0,0-3.877.493C256.506,261.481,251.734,261.4,248.516,258.838Z" transform="translate(-204.078 -220.464)" fill="#ff7249"/><path d="M186.209,487.842l-1.33,1.68-2.508,3.165-2.9,3.658-.81,1.022h-1.571l-38.9.045-24.36.027h-1.087c-.145-.453-.279-.906-.4-1.377q-.272-1.011-.477-2.047c-.029-.132-.054-.265-.078-.4l8.838-5.778,3.323-.018h0l10.164-.058h0l5.676-.033h1.687l3.783-.02h0l28.833-.165h0l1.475-.009h.64l1.694-.009,6.3-.036,1.21-.46.089.094Z" transform="translate(-111.202 -407.556)" fill="#3f3d56"/><path d="M183.014,451.325l-.15.181-.989,1.165-2.036,2.4-4.271,5.035-37.831-.966-28.527-.725c-.029-.132-.054-.264-.078-.4a34.282,34.282,0,0,1-.571-7.053l3.163-1.62.725-.373,5.64-2.9,4.95-2.537,12.911,1.678,2.859.371,1.294.167L142,446l.159.022,29.69,3.85,3.281.426,1.926.25,5.936.772Z" transform="translate(-108.55 -371.946)" fill="#504f60"/><path d="M462.644,534.51l-.031.712-.181,4.02-.975,22.1-.207,4.778-.544,12.291-.306,6.943-1.105-.346q-.859-.274-1.716-.558l2.651-48.195.056-1.011,1.167-.362Z" transform="translate(-394.341 -446.434)" fill="#3f3d56"/><path d="M116.39,534.22l-.082,1.861-.12,2.718q-.518-1.288-.949-2.625l-.027-.089c-.145-.453-.279-.906-.4-1.377Z" transform="translate(-113.675 -446.196)" fill="#3f3d56"/><ellipse cx="8.334" cy="11.233" rx="8.334" ry="11.233" transform="translate(41.76 38.162)" fill="#a1616a"/><ellipse cx="8.334" cy="11.233" rx="8.334" ry="11.233" transform="translate(41.76 38.162)" opacity="0.1"/><circle cx="11.596" cy="11.596" r="11.596" transform="translate(39.677 31.006)" fill="#a1616a"/><path d="M334.873,183.714a14.844,14.844,0,0,0-2.1.321,17.031,17.031,0,0,0-4.963,2.406,5.906,5.906,0,0,0-1.834,1.533c-.772,1.151-.473,2.614-.906,3.892a11.209,11.209,0,0,1-.987,1.855,22.089,22.089,0,0,0-1.96,5.334c-.1.377-.13.888.281,1.033a1.132,1.132,0,0,0,.7-.08c1.3-.429,2.95-.553,3.914.319s.882,2.417,2.029,3.08c1.314.766,3.365-.159,4.557.745.511.388.7,1.009,1.114,1.477.975,1.087,2.85,1.035,4.41.815.9-.127,1.993-.212,2.537.417.261.3.335.7.638.973a1.664,1.664,0,0,0,2.069-.259,13.918,13.918,0,0,0,1.227-1.732c.861-1.087,2.373-1.68,3.261-2.754a6.635,6.635,0,0,0,1.17-3.134l.756-4.057c.306-1.645.585-3.442-.341-4.892-.33-.522-.8-.971-1.087-1.511-.19-.362-.3-.745-.518-1.087a4.514,4.514,0,0,0-.929-.939l-1.788-1.48a15.042,15.042,0,0,0-1.955-1.449C341.613,183.051,337.79,183.442,334.873,183.714Z" transform="translate(-283.371 -158.984)" fill="#464353"/><path d="M125.167,339.935c-.429.457-.826.949-1.286,1.377a15.574,15.574,0,0,1-1.268,1.015q-1.065.8-2.084,1.651a11.67,11.67,0,0,0-1.91,1.908c-.968,1.3-1.426,2.915-2.332,4.258-.8,1.19-1.93,2.131-2.743,3.312a5.123,5.123,0,0,0-.783,1.643,7.634,7.634,0,0,0-.161,1.738,12.9,12.9,0,0,0,.165,2.861,4.338,4.338,0,0,0,1.361,2.471,5.97,5.97,0,0,0,2.43,1.051,2.187,2.187,0,0,0,1.352.038,2.229,2.229,0,0,0,.786-.663l2.2-2.537a16.971,16.971,0,0,1,5.031-4.439c.634-.31,1.3-.544,1.939-.844a10.441,10.441,0,0,0,5.341-6.858c.181-.708.3-1.431.415-2.154l.319-1.982a.633.633,0,0,0,0-.3.652.652,0,0,0-.232-.275,38.427,38.427,0,0,1-4.3-4.058,9.934,9.934,0,0,0-.975-1.116c-.457-.362-.422-.335-.971,0A11.644,11.644,0,0,0,125.167,339.935Z" transform="translate(-111.858 -285.336)" fill="#a1616a"/><path d="M261.664,421.615a.341.341,0,1,0-.612.3l-.181.089,5.4,11.074.977-.477-5.4-11.081Z" transform="translate(-233.271 -353.826)" fill="#3f3d56"/><path d="M125.167,339.935c-.429.457-.826.949-1.286,1.377a15.574,15.574,0,0,1-1.268,1.015q-1.065.8-2.084,1.651a11.67,11.67,0,0,0-1.91,1.908c-.968,1.3-1.426,2.915-2.332,4.258-.8,1.19-1.93,2.131-2.743,3.312a5.123,5.123,0,0,0-.783,1.643,7.634,7.634,0,0,0-.161,1.738,12.9,12.9,0,0,0,.165,2.861,4.338,4.338,0,0,0,1.361,2.471,5.97,5.97,0,0,0,2.43,1.051,2.187,2.187,0,0,0,1.352.038,2.229,2.229,0,0,0,.786-.663l2.2-2.537a16.971,16.971,0,0,1,5.031-4.439c.634-.31,1.3-.544,1.939-.844a10.441,10.441,0,0,0,5.341-6.858c.181-.708.3-1.431.415-2.154l.319-1.982a.633.633,0,0,0,0-.3.652.652,0,0,0-.232-.275,38.427,38.427,0,0,1-4.3-4.058,9.934,9.934,0,0,0-.975-1.116c-.457-.362-.422-.335-.971,0A11.644,11.644,0,0,0,125.167,339.935Z" transform="translate(-111.858 -285.336)" opacity="0.04"/><path d="M465.93,387.822a8.46,8.46,0,0,1-.544,3.4,1.811,1.811,0,0,1-1.007,1.056,2.344,2.344,0,0,1-.886.033,32.009,32.009,0,0,0-10.6.841c.924-1.848.393-4.064.649-6.115.071-.56.2-1.111.248-1.672.181-1.993-.672-3.928-1.064-5.9a13.191,13.191,0,0,1,0-5.16,3.443,3.443,0,0,1,.444-1.241,2.914,2.914,0,0,1,1.018-.886,8.546,8.546,0,0,1,4.847-.821c1.111.074,3.337-.031,4.263.652,1.013.748,1.333,3.261,1.607,4.423a37.41,37.41,0,0,1,.833,5.412A58.155,58.155,0,0,1,465.93,387.822Z" transform="translate(-390.16 -312.814)" fill="#a1616a"/><path d="M59.98,436.03l6.523,4.348,29.352-1.087L76.468,436.03Z" transform="translate(-49.111 -357.011)" fill="#fff"/><path d="M181.921,285.707c-1.071.944-1.979,2.056-2.993,3.062a41.182,41.182,0,0,1-4.548,3.723,3.384,3.384,0,0,1,2.355,2.374c.069.266.1.544.181.8a4.4,4.4,0,0,0,1.007,1.631c1.837,2.071,4.408,3.6,5.492,6.16a.569.569,0,0,0,.217.308.476.476,0,0,0,.281.033,3.84,3.84,0,0,0,2.355-1.661,17.368,17.368,0,0,0,3.08-5.421,9.663,9.663,0,0,0,.045-6.16,15.767,15.767,0,0,0-1.426-2.778l-1.406-2.341c-.245-.411-.556-1.247-1.036-1.449C184.49,283.546,182.586,285.042,181.921,285.707Z" transform="translate(-162.452 -241.238)" fill="#ff7249"/><path d="M455.727,341.887l1.542,3.624a11.2,11.2,0,0,0-10.128,1.4,5.689,5.689,0,0,0-2.082,2.422,1.058,1.058,0,0,1-1.049-.411,2.1,2.1,0,0,1-.388-1.109,8.737,8.737,0,0,1,.906-4.057,5.841,5.841,0,0,1,.924-1.725,5.4,5.4,0,0,1,1.576-1.129,35.1,35.1,0,0,1,5.716-2.526,1.711,1.711,0,0,1,2.174.515C455.461,339.825,455.3,340.9,455.727,341.887Z" transform="translate(-382.892 -285.708)" fill="#ff7249"/><path d="M129.279,412.87c.386.308.725.672,1.122.966a8.011,8.011,0,0,0,1.333.748l1.786.859a10.012,10.012,0,0,0,1.73.7c.765.2,1.567.225,2.335.415.969.239,1.855.737,2.81,1.025a3.249,3.249,0,0,0,2.87-.264c.5-.375.875-.995,1.493-1.087a1.976,1.976,0,0,1,1.138.326l4.649,2.444a3.542,3.542,0,0,1,1.618,1.324,1.222,1.222,0,0,1-.583,1.747,6.368,6.368,0,0,1-.725.042.568.568,0,0,0-.533.411.826.826,0,0,0,.114.426,1.781,1.781,0,0,1,.027,1.515,1.083,1.083,0,0,1-1.315.544c.082.7-.681,1.192-1.361,1.379a12.3,12.3,0,0,1-5.283-.116,7.242,7.242,0,0,1-2.015-.544c-.3-.147-.58-.335-.884-.471a6.309,6.309,0,0,0-2.7-.306,62.5,62.5,0,0,1-12.563-1.488,6.077,6.077,0,0,1-2.219-.725,4.114,4.114,0,0,1-1.531-4.022,12.076,12.076,0,0,1,1.718-4.178l.969-1.709a2.2,2.2,0,0,1,.522-.689C125.23,411.057,128.058,411.888,129.279,412.87Z" transform="translate(-118.373 -345.819)" fill="#a1616a"/><path d="M129.279,412.87c.386.308.725.672,1.122.966a8.011,8.011,0,0,0,1.333.748l1.786.859a10.012,10.012,0,0,0,1.73.7c.765.2,1.567.225,2.335.415.969.239,1.855.737,2.81,1.025a3.249,3.249,0,0,0,2.87-.264c.5-.375.875-.995,1.493-1.087a1.976,1.976,0,0,1,1.138.326l4.649,2.444a3.542,3.542,0,0,1,1.618,1.324,1.222,1.222,0,0,1-.583,1.747,6.368,6.368,0,0,1-.725.042.568.568,0,0,0-.533.411.826.826,0,0,0,.114.426,1.781,1.781,0,0,1,.027,1.515,1.083,1.083,0,0,1-1.315.544c.082.7-.681,1.192-1.361,1.379a12.3,12.3,0,0,1-5.283-.116,7.242,7.242,0,0,1-2.015-.544c-.3-.147-.58-.335-.884-.471a6.309,6.309,0,0,0-2.7-.306,62.5,62.5,0,0,1-12.563-1.488,6.077,6.077,0,0,1-2.219-.725,4.114,4.114,0,0,1-1.531-4.022,12.076,12.076,0,0,1,1.718-4.178l.969-1.709a2.2,2.2,0,0,1,.522-.689C125.23,411.057,128.058,411.888,129.279,412.87Z" transform="translate(-118.373 -345.819)" opacity="0.04"/><path d="M308.459,432.931a29.466,29.466,0,0,1-3.013.832,17.845,17.845,0,0,0-2.727,1.46,24.385,24.385,0,0,1-7.742,2.285,22.583,22.583,0,0,1-4.892.511,31.457,31.457,0,0,1-6.465-1.384,12.363,12.363,0,0,0-6.537-.3,7.358,7.358,0,0,0-4.8,4.607,10.612,10.612,0,0,0-.42,4.08c.446.328,1.069-.127,1.312-.625s.375-1.109.846-1.4c.817.277,1.016,1.366,1.69,1.9a3.053,3.053,0,0,0,1.516.5l2.754.391a2.253,2.253,0,0,0,1.913-.31c.234-.226.362-.544.576-.786a2.137,2.137,0,0,1,1.823-.5c2.036.2,3.946,1.524,5.968,1.21a11.318,11.318,0,0,0,2.006-.638c3.93-1.388,8.3-.544,12.386-1.339a27.647,27.647,0,0,0,4.546-1.4,9.194,9.194,0,0,0,2.31-1.145,4.863,4.863,0,0,0,1.877-4.314,4.932,4.932,0,0,0-1.741-3.2,6.16,6.16,0,0,0-1.12-.962C309.795,432.083,309.079,432.639,308.459,432.931Z" transform="translate(-242.245 -362.748)" fill="#a1616a"/><g transform="translate(39.047 27.534)" opacity="0.1"><path d="M345.929,219.863c-.3-.268-.377-.676-.638-.973-.544-.629-1.641-.544-2.537-.417-1.56.219-3.442.27-4.41-.815-.419-.467-.6-1.087-1.114-1.477-1.192-.906-3.243.022-4.557-.745-1.147-.669-1.073-2.219-2.029-3.08s-2.614-.748-3.914-.319a1.132,1.132,0,0,1-.7.08c-.411-.145-.382-.656-.281-1.033a22.086,22.086,0,0,1,1.96-5.334,11.208,11.208,0,0,0,.987-1.855c.393-1.149.192-2.448.708-3.535a4.879,4.879,0,0,0-1.43,1.268c-.772,1.151-.473,2.614-.906,3.892a11.21,11.21,0,0,1-.987,1.855,22.089,22.089,0,0,0-1.96,5.334c-.1.377-.13.888.281,1.033a1.132,1.132,0,0,0,.7-.08c1.3-.429,2.95-.553,3.914.319s.882,2.417,2.029,3.08c1.314.766,3.365-.159,4.557.745.511.388.7,1.009,1.114,1.477.975,1.087,2.85,1.035,4.41.815.9-.127,1.993-.212,2.537.417.261.3.335.7.638.973a1.664,1.664,0,0,0,2.069-.259,5.492,5.492,0,0,0,.866-1.185A1.348,1.348,0,0,1,345.929,219.863Z" transform="translate(-324.055 -200.36)"/><path d="M461.534,289.565a5.153,5.153,0,0,0-.324.469,9.822,9.822,0,0,0,1.953-1.593,3.841,3.841,0,0,0,.362-.522A9.515,9.515,0,0,0,461.534,289.565Z" transform="translate(-436.36 -272.056)"/></g><path d="M556.48,446.53l.544,52,2.537-.362-.544-51.637Z" transform="translate(-455.654 -365.609)" fill="#3f3d56"/><path d="M640.48,498.53l.544,52,2.536-.362-.543-51.637Z" transform="translate(-524.435 -408.187)" fill="#3f3d56"/><path d="M997.819,573.272h0l-.011-1v-.594l-.1-9.146-.15-14.3L997.537,547H995l.013,1.189.08,7.659.034,3.316h0l.029,2.685.047,4.642.029,2.738h0v.29l.038,3.6.033,3.172.207-.228q.5-.556.975-1.13Z" transform="translate(-834.389 -456.661)" fill="#3f3d56"/><path d="M618.429,545.03,616.98,547.2l1.449,9.873,12.32,3.372h19.93l11.958.723,5.7-3.9-.986-6.7L663,545.03Z" transform="translate(-505.193 -446.262)" fill="#ff7249"/><path d="M721.573,605.48l-.725,6.019s-3.8,11.8,26.815,11.078,25.366-3.131,25.366-3.131l-.181-6.983s1.067,3.3-14.495,2.857-30.076-1.893-30.076-1.893S722.842,614.389,721.573,605.48Z" transform="translate(-609.786 -504.545)" fill="#3f3d56"/><path d="M833.193,304.085a8.755,8.755,0,0,0-3.955,4.042,26.1,26.1,0,0,0-1.875,5.435,48.393,48.393,0,0,0-1.306,5.936,17.977,17.977,0,0,0,1.522,10.538,11.877,11.877,0,0,0,8.226,6.416,15.135,15.135,0,0,0,4.167.049,33.878,33.878,0,0,0,7.358-1.622c2.491-.843,5.084-2.14,6.193-4.53a10.132,10.132,0,0,0,.667-4.492,47.787,47.787,0,0,0-1.868-12.282,10.455,10.455,0,0,0-1.435-3.3,10.129,10.129,0,0,0-2.672-2.355C843.975,305.061,838.405,301.715,833.193,304.085Z" transform="translate(-695.895 -257.099)" fill="#fbbebe"/><path d="M833.193,304.085a8.755,8.755,0,0,0-3.955,4.042,26.1,26.1,0,0,0-1.875,5.435,48.393,48.393,0,0,0-1.306,5.936,17.977,17.977,0,0,0,1.522,10.538,11.877,11.877,0,0,0,8.226,6.416,15.135,15.135,0,0,0,4.167.049,33.878,33.878,0,0,0,7.358-1.622c2.491-.843,5.084-2.14,6.193-4.53a10.132,10.132,0,0,0,.667-4.492,47.787,47.787,0,0,0-1.868-12.282,10.455,10.455,0,0,0-1.435-3.3,10.129,10.129,0,0,0-2.672-2.355C843.975,305.061,838.405,301.715,833.193,304.085Z" transform="translate(-695.895 -257.099)" opacity="0.05"/><path d="M783.411,363.07a8.223,8.223,0,0,0,1.812,1.812c1.725,1.192,3.939,1.353,6.033,1.419,1.681.051,3.609-.045,4.664-1.357a5.43,5.43,0,0,0,.881-2.078,92.185,92.185,0,0,0,2.518-13.728l4.8.016c2.076,8.891,1.906,18.133,1.725,27.263l-.263,13.313-3.091-.328c-7.34-.777-14.69-1.555-22.07-1.689a126.249,126.249,0,0,0-12.958.428l6.731-20.013a33.125,33.125,0,0,0,1.96-7.972c.3-3.966-.817-8.153.725-11.822a1.437,1.437,0,0,1,.56-.755,1.59,1.59,0,0,1,.958-.074c.609.082,2.469,0,2.912.389.652.565.221.65-.009,1.562a19.06,19.06,0,0,0-.8,4.839A14.293,14.293,0,0,0,783.411,363.07Z" transform="translate(-648.076 -293.279)" fill="#ff7249"/><path d="M956.721,376.557h0q1.212-1.609,2.285-3.332c-.362-.775-.761-1.533-1.078-2.325a23.363,23.363,0,0,1-1.04-3.778q-.141-.652-.281-1.3a85.713,85.713,0,0,1-2.165-14.324q-.027-.6-.034-1.2v-1.489c.022-1.087.091-2.183.216-3.274.024-.214.051-.428.08-.641a.918.918,0,0,1,.018-.139l12.32-.449h0l1.036-.038a3.8,3.8,0,0,0,2.053-.469c.987-.678,1.1-2.067,1.087-3.261a48.4,48.4,0,0,0-1.022-8.978,13.375,13.375,0,0,0-2.631-6.2c-1.228-1.4-3.008-2.422-3.647-4.167a18.793,18.793,0,0,0-.605-1.98,6.167,6.167,0,0,0-1.3-1.553,21.62,21.62,0,0,1-4.149-5.747,18.16,18.16,0,0,0-2.488-4.131c-.047-.053-.094-.1-.143-.149a2.308,2.308,0,0,0-2.854-.611,3.655,3.655,0,0,0-.565.351h0a6.886,6.886,0,0,0-1.074,1.022,24.461,24.461,0,0,0-2.923,4.167,23.171,23.171,0,0,0-1.493,3.261,22.487,22.487,0,0,0-.806,2.718c-.156.683-.279,1.373-.377,2.065a50.263,50.263,0,0,0-.312,7.889c.054,2.421.161,4.847.38,7.258q.082.875.181,1.748.2,1.727.493,3.442c.078.437.158.873.246,1.308.022.116.045.232.069.346l.011.049a29.441,29.441,0,0,1,.556,3.064q.022.194.033.386a14.912,14.912,0,0,1-.015,1.777c-.042.7-.107,1.4-.14,2.1a3.405,3.405,0,0,1-.013.362c-.009.353,0,.707,0,1.06a16.8,16.8,0,0,0,.3,2.517,16.276,16.276,0,0,0,1.567,4.428c.069.13.139.259.21.386.919,1.642,2.078,3.147,2.928,4.827a20.835,20.835,0,0,1,1.631,4.749q.181.813.344,1.631c.169.87.319,1.747.473,2.624.015.087.031.181.047.261.2,1.163.42,2.321.7,3.457.161.661.342,1.314.554,1.955Z" transform="translate(-793.292 -259.947)" fill="#464353"/><path d="M845.39,573.235c0,.163-.011.326-.018.491a23.228,23.228,0,0,1-.219,2.375,15.45,15.45,0,0,1-.785,3.151,10.619,10.619,0,0,1-.935,1.922,8.868,8.868,0,0,1-1.163,1.5c-1.087,1.131-2.653,1.491-4.167,1.968a10.251,10.251,0,0,0-2.009.821c-.114.063-.227.132-.335.2l-1.9,1.256a5.674,5.674,0,0,0-1.6,1.372,2.968,2.968,0,0,0-.181.306,6.942,6.942,0,0,0-.558,1.674c-.986,4.106-1.973,8.215-2.649,12.382-.045.275-.089.553-.136.83l-.016.087a.454.454,0,0,0-.029-.06,109.052,109.052,0,0,1-15.056,7.695l-1.125-9.421a11.394,11.394,0,0,1-.116-2.316c.107-1.219.6-2.375.737-3.591a6.118,6.118,0,0,0-.647-3.455,3.778,3.778,0,0,1-.531-1.281.8.8,0,0,1,.681-.931,1.674,1.674,0,0,0,.284-1.495,4.347,4.347,0,0,0-.254-.828,3.481,3.481,0,0,1-.433-2.355.88.88,0,0,0,.091-.453.072.072,0,0,0,0-.029c-.062-.2-.3-.292-.427-.464-.236-.321,0-.757.145-1.127a4.3,4.3,0,0,0,.243-1.234c.02-.234.034-.469.06-.7a7.075,7.075,0,0,1,.169-.931,7.351,7.351,0,0,1,2.977-4.261c.7-.475,1.489-.821,2.209-1.268a20.232,20.232,0,0,0,2.105-1.631q2.393-1.993,4.977-3.758a62.866,62.866,0,0,1,5.747-3.49q.634-.342,1.268-.667.69-.362,1.39-.687a6.8,6.8,0,0,1,4.838.029c.692.2,1.375.433,2.035.647a9.426,9.426,0,0,1,1.848.83,6.815,6.815,0,0,1,3.172,3.729.2.2,0,0,1,0,.031A9.488,9.488,0,0,1,845.39,573.235Z" transform="translate(-684.381 -470.905)" fill="#f86d70"/><path d="M845.39,573.235c0,.163-.011.326-.018.491a23.228,23.228,0,0,1-.219,2.375,15.45,15.45,0,0,1-.785,3.151,10.619,10.619,0,0,1-.935,1.922,8.868,8.868,0,0,1-1.163,1.5c-1.087,1.131-2.653,1.491-4.167,1.968a10.251,10.251,0,0,0-2.009.821c-.114.063-.227.132-.335.2l-1.9,1.256a5.674,5.674,0,0,0-1.6,1.372,2.968,2.968,0,0,0-.181.306,6.942,6.942,0,0,0-.558,1.674c-.986,4.106-1.973,8.215-2.649,12.382-.045.275-.089.553-.136.83l-.016.087a.454.454,0,0,0-.029-.06,109.052,109.052,0,0,1-15.056,7.695l-1.125-9.421a11.394,11.394,0,0,1-.116-2.316c.107-1.219.6-2.375.737-3.591a6.118,6.118,0,0,0-.647-3.455,3.778,3.778,0,0,1-.531-1.281.8.8,0,0,1,.681-.931,1.674,1.674,0,0,0,.284-1.495,4.347,4.347,0,0,0-.254-.828,3.481,3.481,0,0,1-.433-2.355.88.88,0,0,0,.091-.453.072.072,0,0,0,0-.029c-.062-.2-.3-.292-.427-.464-.236-.321,0-.757.145-1.127a4.3,4.3,0,0,0,.243-1.234c.02-.234.034-.469.06-.7a7.075,7.075,0,0,1,.169-.931,7.351,7.351,0,0,1,2.977-4.261c.7-.475,1.489-.821,2.209-1.268a20.232,20.232,0,0,0,2.105-1.631q2.393-1.993,4.977-3.758a62.866,62.866,0,0,1,5.747-3.49q.634-.342,1.268-.667.69-.362,1.39-.687a6.8,6.8,0,0,1,4.838.029c.692.2,1.375.433,2.035.647a9.426,9.426,0,0,1,1.848.83,6.815,6.815,0,0,1,3.172,3.729.2.2,0,0,1,0,.031A9.488,9.488,0,0,1,845.39,573.235Z" transform="translate(-684.381 -470.905)" opacity="0.1"/><path d="M898.664,446.615a.341.341,0,1,0-.612.3l-.181.089,5.4,11.074.977-.477-5.4-11.081Z" transform="translate(-754.858 -374.296)" fill="#3f3d56"/><circle cx="11.596" cy="11.596" r="11.596" transform="translate(138.965 37.528)" fill="#fbbebe"/><path d="M903.65,184.157a15.4,15.4,0,0,0-.409-2.734,16.056,16.056,0,0,0-4.069-7.918,15.858,15.858,0,0,0-.473-1.52.293.293,0,0,0-.013-.036,17.013,17.013,0,0,0-2.736-4.85,3.835,3.835,0,0,0-2.643-1.71,2.143,2.143,0,0,1-.906-.1,1.632,1.632,0,0,1-.505-.518,4.745,4.745,0,0,0-4.595-1.719l-.112.024c-.063.013-.127.027-.181.043s-.152.043-.228.067q.125.207.245.419.323.574.6,1.174.228.5.422,1.016c-1.855.212-3.366,1.529-4.747,2.783l-3.25,2.95-.016.016-.094.091c-.024.024-.047.047-.069.072a.155.155,0,0,0-.024.025c-.027.029-.053.06-.078.091a1.368,1.368,0,0,0-.121.181.666.666,0,0,0-.047.085.186.186,0,0,0-.013.027.679.679,0,0,0-.031.076.025.025,0,0,0,0,.011.431.431,0,0,0-.013.045.544.544,0,0,0,.031.384l2.143.024h.252c.011.286.02.574.031.861a12.2,12.2,0,0,0-.978.815,10.621,10.621,0,0,0-.955,1.007,13.9,13.9,0,0,0-3.044,8.389v1.109c0,.181.016.362.031.544a1.357,1.357,0,0,0,.181.672.625.625,0,0,0,.051.065,1.25,1.25,0,0,0,.384.283l.156.076h0c.078.038.152.074.225.116.683.386,1.087,1.131,1.709,1.609.036.027.072.054.109.078l.082.054.051.033.069.04a1.477,1.477,0,0,0,.139.074h0l.087.043h.014c.073.033.145.063.219.091l.1.036.031.011c.029.009.06.02.091.027q.092.027.181.049l.181.04c.071.013.143.025.216.034l.107.014.109.011q.259.024.522.027h0a13.049,13.049,0,0,0,1.643-.114l4.624-.544a9.963,9.963,0,0,1,3.154-.029,20.786,20.786,0,0,1,2.536.893c.192.067.384.129.578.181.071.02.143.042.216.06l.1.025.232.056c.083.02.167.04.25.056.118.025.234.047.351.069.08.016.161.029.243.043h.016l.232.036h.056l.172.024c.083.013.167.024.252.033q.277.034.554.06c.3.029.6.051.906.069l.3.018.3.014.906.04h.167a4.674,4.674,0,0,0,1.127-.058c.065-.013.129-.027.192-.045s.116-.036.181-.058a3.1,3.1,0,0,0,1.52-1.5c.073-.136.14-.272.2-.411s.118-.281.169-.422c.063-.181.118-.353.165-.534.015-.049.027-.1.038-.149s.036-.15.051-.226c.045-.208.08-.419.105-.631a1.946,1.946,0,0,1,.024-.2c.016-.181.029-.35.036-.527v-.406C903.663,184.537,903.65,184.343,903.65,184.157ZM899,173.34c-.147-.138-.3-.27-.449-.395a1.871,1.871,0,0,1,.448.395Z" transform="translate(-737.785 -142.211)" fill="#464353"/><path d="M723.067,305.641c-1.364-.168-2.718-.766-4.064-.473a5.633,5.633,0,0,0-2.241,1.243,27.25,27.25,0,0,0-6.3,7.2,3.8,3.8,0,0,0-.582,1.363,3.611,3.611,0,0,0,.25,1.681c1.239,3.662,3.89,6.72,5.1,10.393,1.268,3.863.828,8.084-.107,12.041a50.324,50.324,0,0,1-5.588,13.9,7.923,7.923,0,0,1-1.286,1.761c-.659.634-1.545,1.087-1.937,1.917a8.584,8.584,0,0,0-.362,1.163c-.362,1.087-1.239,2.018-1.324,3.165a7.221,7.221,0,0,0,.6,2.537,6.99,6.99,0,0,1-.129,4.367c-.919,2.518-3.321,4.809-2.624,7.4,1.556-.448,3.281-1.029,4.015-2.473a4.409,4.409,0,0,1,.824-1.493c.871-.741,2.355-.071,3.281-.752a2.075,2.075,0,0,0,.413-2.4c-.312-.815-.848-1.533-1.087-2.372-.417-1.513.25-3.113.127-4.676-.058-.725-.281-1.419-.3-2.14a5.025,5.025,0,0,1,1.776-3.669,14.755,14.755,0,0,1,3.558-2.2l4.74-2.355c1.719-.852,3.6-1.89,4.167-3.723a7.541,7.541,0,0,0,.227-2.136c.161-10.963,2.908-21.706,5.638-32.325a40.053,40.053,0,0,1,1.486-4.877c.63-1.58,1.864-2.848,2.493-4.316C730.188,302.962,726.856,306.116,723.067,305.641Z" transform="translate(-594.762 -257.155)" fill="#464353"/><path d="M787.287,571.432c.418,2.537.674,5.128.873,7.706a88.14,88.14,0,0,1-10.34,7.237c-.2.125-.408.248-.612.362l-.016.087a.473.473,0,0,0-.029-.06,2.727,2.727,0,0,0-1.363-1.344q-2.006-4.213-4.008-8.425a22.127,22.127,0,0,1-1.812-4.684.731.731,0,0,0-.022-.105c-.276-1.268-.339-2.585-.522-3.87a11.186,11.186,0,0,0-.495-2.163c-.217-.625-.516-1.232-.781-1.843a6.134,6.134,0,0,1-.612-2.33,1.524,1.524,0,0,0-.11-.761,1.976,1.976,0,0,0-.495-.478,1.886,1.886,0,0,1-.609-1.723c-1.087.056-1.7,1.225-2.136,2.216a12.083,12.083,0,0,1-1.551,2.718,5.152,5.152,0,0,1-1.718,1.43c-.06.029-.12.058-.181.083a8.5,8.5,0,0,1-4.919.13,9.222,9.222,0,0,1-4.068-1.48l-.123-.1a5.326,5.326,0,0,1-.906-.968,10.529,10.529,0,0,1-1.631-4.711c-.022-.156-.043-.312-.063-.467a17.422,17.422,0,0,1-.136-3.529c.022-.29.052-.58.091-.868.025-.181.053-.377.083-.565a.052.052,0,0,1,0-.016c.047-.3.1-.6.149-.906a8.326,8.326,0,0,1,.906-2.966,5.616,5.616,0,0,1,1.333-1.428c.2-.154.4-.3.6-.442.33-.228.669-.446,1.013-.65A17.507,17.507,0,0,1,755.8,545.2c.225-.087.453-.168.681-.246a5.347,5.347,0,0,1,2.769-.219,14.563,14.563,0,0,0,2.479.145,62.458,62.458,0,0,0,6.381-.71c2.946-.362,6.111-.406,8.68,1.087.123.071.243.145.362.223a10.735,10.735,0,0,1,3.115,3.292c.181.274.339.554.495.839a21.385,21.385,0,0,1,.973,2.011A2.5,2.5,0,0,1,782,552.7a1.4,1.4,0,0,1-.029.214c-.049.257-.147.507-.181.768-.114.987.725,1.812,1.038,2.752a13.46,13.46,0,0,1,.3,1.913,9.955,9.955,0,0,0,1.007,2.536,31.722,31.722,0,0,1,1.613,4.053c.315.966.585,1.946.823,2.935q.116.477.219.955C786.983,569.709,787.144,570.568,787.287,571.432Z" transform="translate(-632.853 -454.167)" fill="#f86d70"/><path d="M627.359,454v1.268l-.234,0-.261,0-2.913-.036-7.179-.094-2.015-.025-.522-.007-3.024-.038L606.951,455l-9.041-.118-15.689-.2-5.662-.072-2.272-.029-2.091-.027-1.3-.018-1.234-.016-9.148-.118-2.536-.033-.553-.007-.359-.926-2.607-6.724-.477-1.228.362-1.449,1.631,1.087,1,.125L573.5,447.3l3.1.386,6.577.819,6.443.8,2.526.313,14.946,1.859,4.176.52,3.457.429,12.291,1.529Z" transform="translate(-453.607 -363.562)" fill="#3f3d56"/><path d="M555.98,444.03l3.261,8.516L629,454v-9.24Z" transform="translate(-455.245 -363.562)" fill="#504f60"/><path d="M575.98,496.03l.544,52,2.537-.362-.544-51.637Z" transform="translate(-471.621 -406.14)" fill="#3f3d56"/><path d="M1051.739,550.83h-.261a57.345,57.345,0,0,1-2.089,9.565l-.824-9.6-.035-.409,3.048-.352.1-.011Z" transform="translate(-878.221 -459.134)" fill="#3f3d56"/><path d="M745.767,456.473l-26.543.544L710.98,454.3l22.1-1.268Z" transform="translate(-582.162 -370.931)" fill="#fff"/><path d="M821.054,457.207a1.78,1.78,0,0,0-.725.516,1.914,1.914,0,0,0-.27.823l-.446,2.658a1.176,1.176,0,0,0,.035.737c.116.223.453.339.621.154a2.387,2.387,0,0,0,.326,1.5,1.045,1.045,0,0,0,1.364.352.884.884,0,0,0,1.332.207c-.257.087-.275.48-.092.679a1.183,1.183,0,0,0,.739.3,18.08,18.08,0,0,0,9.4-1.183c.281-.116-.458-3.578-.533-3.933a3.962,3.962,0,0,0-.977-2.417c-1.685-1.344-4.678-1.609-6.731-1.449A11.6,11.6,0,0,0,821.054,457.207Z" transform="translate(-690.745 -382.232)" fill="#fbbebe"/><path d="M888.167,452.647c-6.553.125-13.243.232-19.5-1.73a13.227,13.227,0,0,1-.12,7.043l30.642,2.537c1.3.107,6.686.716,7.952.409S896.517,456.682,897,455.47c1.321-3.339,5.745-5.3,2.558-5.421C895.534,449.89,892.22,452.571,888.167,452.647Z" transform="translate(-730.85 -377.27)" opacity="0.1"/><path d="M889.167,454.647c-6.553.125-13.243.232-19.5-1.73a13.226,13.226,0,0,1-.12,7.043l30.642,2.537c1.3.107,6.686.725,7.952.409s.969-1.868,1.449-3.08c1.321-3.339-5.85-7.651-9.037-7.776C896.534,451.89,893.22,454.571,889.167,454.647Z" transform="translate(-731.669 -378.908)" fill="#464353"/><path d="M864.5,464.207a1.774,1.774,0,0,1,.725.516,1.941,1.941,0,0,1,.272.823l.446,2.658a1.188,1.188,0,0,1-.034.737c-.116.223-.455.339-.621.154a2.4,2.4,0,0,1-.326,1.5,1.047,1.047,0,0,1-1.366.351.884.884,0,0,1-1.332.207c.257.087.277.48.094.679a1.189,1.189,0,0,1-.741.3,18.073,18.073,0,0,1-9.4-1.183c-.281-.116.457-3.578.533-3.933a3.961,3.961,0,0,1,.977-2.417c1.683-1.344,4.678-1.609,6.731-1.449A11.6,11.6,0,0,1,864.5,464.207Z" transform="translate(-717.421 -387.963)" fill="#fbbebe"/><path d="M671.412,372.037a11.6,11.6,0,0,0-1.593,2.471,12.011,12.011,0,0,0-.509,5.551,3.238,3.238,0,0,0,.362,1.549,2.617,2.617,0,0,0,.946.806,13.389,13.389,0,0,0,5.2,1.357q4.12.457,8.269.556c6.852.167,13.81-.393,20.485,1.16a5.131,5.131,0,0,1-.362-4.348,14.806,14.806,0,0,1,2.223-3.9c-3.055-.967-6.331.544-9.53.393-3.285-.154-6.325-2.053-9.614-2.051a8.749,8.749,0,0,1-2.113-.082,1.759,1.759,0,0,1-1.415-1.393,2.026,2.026,0,0,0,2.071-1.375c.362-.823.428-1.752.779-2.58.875-2.06,3.24-3.015,4.711-4.711a1.154,1.154,0,0,0,.081-1.75c-1.223-1.631-3.066-2.537-4.6-3.8-.533-.442-1.607-2.109-2.205-2.263-1.109-.284-2.049,1.317-2.77,2.1Q676.371,365.651,671.412,372.037Z" transform="translate(-567.636 -301.565)" fill="#464353"/><path d="M882.39,434.81a6,6,0,0,1,1.212,1.2,2.069,2.069,0,0,1,.379,1.62,2.421,2.421,0,0,1,1.509-2.506Z" transform="translate(-742.182 -364.798)" opacity="0.07"/><g transform="translate(139.209 20.841)" opacity="0.1"><path d="M932.135,165.078a15.767,15.767,0,0,0-.736-1.658,4.44,4.44,0,0,0-.529.136,15.323,15.323,0,0,1,.839,1.6A3.035,3.035,0,0,1,932.135,165.078Z" transform="translate(-921.087 -163.42)"/><path d="M995.87,212c.049.04.1.085.143.127a.274.274,0,0,0-.013-.034Q995.939,212.047,995.87,212Z" transform="translate(-974.31 -203.198)"/><path d="M892.984,211.405c.094-.074.181-.152.283-.225l-.029-.861-1.935-.02c-.313.288-.647.7-.462,1.087Z" transform="translate(-888.267 -201.806)"/><path d="M902.748,280.95a3.094,3.094,0,0,1-1.52,1.5,4.121,4.121,0,0,1-1.66.156,19.4,19.4,0,0,1-5.657-.8,19.968,19.968,0,0,0-2.536-.9,9.91,9.91,0,0,0-3.154.031l-4.624.544c-1.364.159-2.884.279-3.973-.558-.623-.478-1.026-1.223-1.709-1.607a2.172,2.172,0,0,1-.817-.544,1.357,1.357,0,0,1-.181-.672c-.015-.19-.024-.38-.031-.571a15.346,15.346,0,0,0,.031,1.658,1.357,1.357,0,0,0,.181.672,2.172,2.172,0,0,0,.817.544c.683.384,1.087,1.129,1.709,1.607,1.087.837,2.609.725,3.973.558l4.624-.544a9.91,9.91,0,0,1,3.154-.031,20.488,20.488,0,0,1,2.536.9,19.194,19.194,0,0,0,5.657.8,4.153,4.153,0,0,0,1.66-.156,3.094,3.094,0,0,0,1.52-1.5,7.689,7.689,0,0,0,.783-4.068,7.078,7.078,0,0,1-.783,2.98Z" transform="translate(-876.877 -256.863)"/></g><path d="M937.56,179l2.537,2.355S937.922,180.449,937.56,179Z" transform="translate(-787.357 -155.336)" opacity="0.1"/></g></svg>