<svg xmlns="http://www.w3.org/2000/svg" width="512" height="512" viewBox="0 0 512 512">
    <g>
        <path fill="#ff7149" d="M496,488H472V472a8,8,0,0,0-8-8H448V448a8,8,0,0,0-8-8V256a8,8,0,0,0,8-8V232h32a8,8,0,0,0,8-8V200a8,8,0,0,0-8-8H456V168a8,8,0,0,0-5.47-7.59L279.86,103.52q0-.615-.03-1.23a24,24,0,0,0-47.97,1.33L61.47,160.41A8,8,0,0,0,56,168v24H32a8,8,0,0,0-8,8v24a8,8,0,0,0,8,8H64v16a8,8,0,0,0,8,8V440a8,8,0,0,0-8,8v16H48a8,8,0,0,0-8,8v16H16a8,8,0,0,0,0,16H496a8,8,0,0,0,0-16ZM255.5,95.38a8,8,0,1,1-7.63,8.36A7.985,7.985,0,0,1,255.5,95.38ZM72,173.77l165.36-55.12a24.012,24.012,0,0,0,18.49,8.73c.36,0,.72-.01,1.09-.03a23.942,23.942,0,0,0,17.48-8.78L440,173.77V192H72ZM40,216v-8H472v8ZM432,456v8H400v-8Zm-24-16V256h16V440Zm-8-200v-8h32v8ZM360,440V256a8,8,0,0,0,8-8V232h16v16a8,8,0,0,0,8,8V440a8,8,0,0,0-8,8v16H368V448A8,8,0,0,0,360,440Zm-8,16v8H320v-8Zm-24-16V256h16V440Zm-8-200v-8h32v8ZM280,440V256a8,8,0,0,0,8-8V232h16v16a8,8,0,0,0,8,8V440a8,8,0,0,0-8,8v16H288V448A8,8,0,0,0,280,440Zm-8,16v8H240v-8Zm-24-16V256h16V440Zm-8-200v-8h32v8ZM200,440V256a8,8,0,0,0,8-8V232h16v16a8,8,0,0,0,8,8V440a8,8,0,0,0-8,8v16H208V448A8,8,0,0,0,200,440Zm-8,16v8H160v-8Zm-24-16V256h16V440Zm-8-200v-8h32v8ZM120,440V256a8,8,0,0,0,8-8V232h16v16a8,8,0,0,0,8,8V440a8,8,0,0,0-8,8v16H128V448A8,8,0,0,0,120,440Zm-8,16v8H80v-8ZM88,440V256h16V440ZM80,240v-8h32v8ZM456,488H56v-8H456Z"/>
    </g>
</svg>
