<svg xmlns="http://www.w3.org/2000/svg" xmlns:xlink="http://www.w3.org/1999/xlink" width="390.324" height="119.25" viewBox="0 0 390.324 119.25"><defs><linearGradient id="a" x1="0.5" y1="1" x2="0.5" gradientUnits="objectBoundingBox"><stop offset="0" stop-color="gray" stop-opacity="0.251"/><stop offset="0.54" stop-color="gray" stop-opacity="0.122"/><stop offset="1" stop-color="gray" stop-opacity="0.102"/></linearGradient></defs><g transform="translate(-832.296 -2341.75)"><g transform="translate(832.296 2360)" opacity="0.78"><ellipse cx="29.18" cy="2.444" rx="29.18" ry="2.444" transform="translate(64.753 96.111)" fill="#3f3d56"/><path d="M815.9,434.667c0,11.978-7.121,16.161-15.905,16.161s-15.905-4.182-15.905-16.161S800,407.45,800,407.45,815.9,422.688,815.9,434.667Z" transform="translate(-692.942 -363.455)" fill="#f2f2f2"/><path d="M661.562,329.577l.163-10.025,6.779-12.4-6.753,10.83.073-4.508L666.5,304.5l-4.653,7.78h0l.132-8.107,5-7.143L662,302.9l.082-14.865-.517,19.679.042-.812-5.087-7.786,5,9.344-.474,9.054-.014-.24-5.864-8.194,5.846,9.043-.059,1.132-.011.017,0,.093-1.2,22.971h1.607l.193-11.865,5.832-9.02Z" transform="translate(-555.087 -244.037)" fill="#3f3d56"/><path d="M909.229,683.44c0,3.433-2.04,4.631-4.558,4.631l-.175,0c-.117,0-.232-.008-.346-.016-2.272-.161-4.037-1.421-4.037-4.613,0-3.3,4.222-7.472,4.539-7.781h0l.018-.018S909.229,680.008,909.229,683.44Z" transform="translate(-791.239 -590.673)" fill="#fff"/><path d="M918.7,687.547l1.667-2.329L918.7,687.8l0,.267c-.117,0-.232-.008-.346-.016l.18-3.434v-.027l0,0,.017-.324-1.675-2.591,1.681,2.348,0,.069.136-2.595-1.434-2.678,1.452,2.222.141-5.38v0l-.024,4.242,1.428-1.682-1.434,2.047-.038,2.323,1.333-2.23-1.339,2.571-.021,1.292,1.936-3.1-1.943,3.554Z" transform="translate(-805.435 -590.673)" fill="#3f3d56"/><ellipse cx="7.318" cy="7.318" rx="7.318" ry="7.318" transform="translate(27.077 24.634)" fill="#f2f2f2"/><ellipse cx="7.318" cy="7.318" rx="7.318" ry="7.318" transform="translate(28.591 22.447)" fill="none" stroke="#3f3d56" stroke-miterlimit="10" stroke-width="2"/><path d="M276.615,141.9l-5.892-9.869a4.706,4.706,0,1,0-1.935,1.452Z" transform="translate(-250.884 -123.657)" fill="#3f3d56"/><ellipse cx="2.187" cy="2.187" rx="2.187" ry="2.187" transform="translate(13.954 3.268)" fill="#fff"/><path d="M479.588,136.574l8.151-8.1a4.706,4.706,0,1,0-1.877-1.526Z" transform="translate(-434.959 -119.473)" fill="#3f3d56"/><ellipse cx="2.187" cy="2.187" rx="2.187" ry="2.187" transform="translate(52.529 2.516)" fill="#fff"/><path d="M516.753,349.635l9.836,5.948a4.706,4.706,0,1,0,1.027-2.19Z" transform="translate(-466.446 -314.472)" fill="#3f3d56"/><ellipse cx="2.187" cy="2.187" rx="2.187" ry="2.187" transform="translate(62.59 39.763)" fill="#fff"/><path d="M367.845,414.295l-3.392,10.983a4.706,4.706,0,1,0,2.373.467Z" transform="translate(-333.689 -369.254)" fill="#3f3d56"/><ellipse cx="2.187" cy="2.187" rx="2.187" ry="2.187" transform="translate(28.884 58.536)" fill="#fff"/><path d="M208.125,305.71l-11.477-.634a4.706,4.706,0,1,0,.121,2.416Z" transform="translate(-187.461 -273.95)" fill="#3f3d56"/><ellipse cx="2.187" cy="2.187" rx="2.187" ry="2.187" transform="translate(2.514 30.373)" fill="#fff"/><ellipse cx="2.254" cy="2.254" rx="2.254" ry="2.254" transform="translate(121.552 5.149)" fill="#f2f2f2"/><ellipse cx="2.254" cy="2.254" rx="2.254" ry="2.254" transform="translate(120.635 4.385)" fill="none" stroke="#3f3d56" stroke-miterlimit="10" stroke-width="2"/><rect width="5.092" height="5.092" transform="translate(104.474 7.91)" fill="#fff"/><rect width="5.092" height="5.092" transform="translate(105.492 6.891)" fill="none" stroke="#3f3d56" stroke-miterlimit="10" stroke-width="2"/><path d="M787.568,706.082s-.458,2.9-1.222,3.361,3.972,1.528,3.972,1.528l.764-4.583Z" transform="translate(-694.781 -616.464)" fill="#fbbebe"/><path d="M787.752,489.082l1.68,1.986-.764,6.875-.611,13.6s1.222,11.764,0,12.069-6.722.153-6.569-.611.305-1.375.611-2.444-.306-4.889-.306-4.889l.764-4.278-2.75-18.486Z" transform="translate(-689.313 -432.615)" fill="#2f2e41"/><path d="M755.674,724.329s-1.681-.306-1.833,0-3.055,3.514-3.514,3.514-3.819,3.055-.306,3.208,9.319-2.6,9.319-2.6-.854-3.888-.809-3.7S755.674,725.093,755.674,724.329Z" transform="translate(-662.735 -631.808)" fill="#2f2e41"/><path d="M783.808,665.526s4.278,4.736,4.43,5.194,2.444,0,2.444,0l.917-3.056-.764-1.069-4.278-3.514Z" transform="translate(-692.702 -580.033)" fill="#fbbebe"/><path d="M811.523,684.126l-2.215,2.085a44.183,44.183,0,0,1,2.826,4.79c0,.458.153,4.278,1.681,3.667s1.681-6.722,1.681-6.722-.153-6.264-1.07-6.722a7.653,7.653,0,0,0-2.926-.314S812.745,683.973,811.523,684.126Z" transform="translate(-714.306 -595.118)" fill="#2f2e41"/><path d="M709.857,396.576s-.764,2.444-.917,3.055a13.488,13.488,0,0,0-1.07,4.889c0,2.6.306,5.653,0,5.958s-5.194,17.416-3.055,19.25,9.166,7.944,9.625,8.708.611,2.6,1.528,2.292,4.43-3.361,4.583-3.972-1.986-1.681-1.986-1.681-4.278-6.264-5.347-6.111-.917-.764-.764-1.222.458-.764,0-.764-.153-1.222,0-1.833,3.667-8.861,3.667-8.861l9.319-4.125s-.458-11.152-3.819-14.208l-.764-1.833S712.3,395.507,709.857,396.576Z" transform="translate(-625.32 -353.707)" fill="#2f2e41"/><path d="M741.238,242.082s.764,5.347-1.069,5.653-3.361.153-3.361.306,4.583,4.889,4.583,4.889l4.278-.306,3.819-4.125s-3.514-.611-3.514-2.75-.153-3.667-.153-3.667Z" transform="translate(-652.882 -223.351)" fill="#fbbebe"/><path d="M741.238,242.082s.764,5.347-1.069,5.653-3.361.153-3.361.306,4.583,4.889,4.583,4.889l4.278-.306,3.819-4.125s-3.514-.611-3.514-2.75-.153-3.667-.153-3.667Z" transform="translate(-652.882 -223.351)" opacity="0.1"/><ellipse cx="4.736" cy="4.736" rx="4.736" ry="4.736" transform="translate(85.988 11.475)" fill="#fbbebe"/><path d="M718,276.082s-5.958.764-6.416,2.75,3.055,14.361,3.514,15.43a3.379,3.379,0,0,1,.305,1.833,6.045,6.045,0,0,1,4.889-1.069,30.843,30.843,0,0,0,7.028.306s1.375-5.653,1.68-6.264a22.9,22.9,0,0,0,1.528-4.889c0-.917,1.833-4.736,1.833-4.736a4.158,4.158,0,0,0-4.278-2.6s-1.466-.656-1.879-.175a5.634,5.634,0,0,1-5.607,1.7C717.691,277.457,718,276.082,718,276.082Z" transform="translate(-631.474 -252.156)" fill="#3f3d56"/><path d="M708.405,293.082h-1.681l-.917,12.069s3.361.917,3.819.306S708.405,293.082,708.405,293.082Z" transform="translate(-626.618 -266.559)" fill="#3f3d56"/><path d="M706.16,363.957l-.458,1.222s-.305,3.972,1.528,3.819,2.9-2.444,2.9-2.444-1.069-2.9-2.292-2.6S706.16,363.957,706.16,363.957Z" transform="translate(-626.512 -326.587)" fill="#3f3d56"/><path d="M828.808,293.082l2.9.764s2.139,7.791,2.292,7.944a3.884,3.884,0,0,1,.306,1.069s0,.153.306.611.764.153.458.764-.764.306-.458.917a6.431,6.431,0,0,1,.153,2.292s-.764-2.9-3.514-2.139l-1.833-8.25Z" transform="translate(-730.827 -266.559)" fill="#3f3d56"/><path d="M723.584,183.181a13.074,13.074,0,0,0-1.313,5.639,6.821,6.821,0,0,0,.147,2.486c.261.841.84,1.7.543,2.524-.287.8-1.249,1.122-1.786,1.783a2.972,2.972,0,0,0-.53,2.048c.04.721.214,1.428.266,2.148a6.363,6.363,0,0,1-1.369,4.385c2.3-.089,4.761-1.109,5.732-3.2.29-.624.431-1.308.693-1.944.3-.72.743-1.372,1.023-2.1a10.009,10.009,0,0,0,.464-3.475,5.753,5.753,0,0,0-.225-2.085c-.536-1.453-2.2-2.391-2.367-3.931a.777.777,0,0,1,.069-.479,1.271,1.271,0,0,1,.279-.283c1.04-.918.869-2.862,2.107-3.488a2.5,2.5,0,0,1,1.823,0,3.44,3.44,0,0,1,1.755,1.044c.868,1.089.526,2.661.257,4.027a24.043,24.043,0,0,0-.411,6.021,3.889,3.889,0,0,0,.142.954,7.941,7.941,0,0,0,.756,1.39,4.593,4.593,0,0,1,.479,3.119c-.19.926-.66,1.912-.246,2.761a2.494,2.494,0,0,0,.743.827c1.354,1.061,3.073,1.719,4.079,3.114a9.533,9.533,0,0,0-.4-3.412,5.264,5.264,0,0,1,.109-3.39c.22-.455.557-.851.737-1.324.416-1.091-.08-2.288-.38-3.416a20.321,20.321,0,0,1-.465-2.692l-.31-2.448a18.9,18.9,0,0,0-1.413-5.924,6.162,6.162,0,0,0-8.857-2.828A5.736,5.736,0,0,0,723.584,183.181Z" transform="translate(-638.255 -170.873)" fill="rgba(255,255,255,0.95)"/><path d="M716.78,333.34s-.917,2.75.153,2.75a4.317,4.317,0,0,0,3.208-3.055c.153-1.375,2.9-6.569.917-6.111s-2.9,4.278-2.9,4.278Z" transform="translate(-635.605 -295.206)" fill="#fbbebe"/><path d="M604.455,173.663l-5.042,16.347,6.875,1.528,5.042-15.888Z" transform="translate(-507.849 -147.14)" fill="#fff"/><path d="M791.125,356.056l.954,1.6s.421,2.988-1.718,2.988-5.194-2.9-5.194-2.9a6.083,6.083,0,0,0-2.444-.458c-.917.153-5.958,0-3.819-2.6s5.805,0,5.805,0l3.819,1.833,1.986-1.069Z" transform="translate(-688.102 -317.769)" fill="#fbbebe"/><path d="M844.836,354.888l-1.528,2.444s3.514.458,3.819,1.222-1.375-3.972-1.375-3.972Z" transform="translate(-743.112 -318.663)" fill="#3f3d56"/></g><g transform="translate(1045.64 2341.761)"><path d="M274.956,98.66a43.115,43.115,0,0,0-7.02-11.186l-97.4-.959L250.73,75.25a45.516,45.516,0,0,0-16.273-3.227,45.6,45.6,0,0,0-54.475-1.844,45.4,45.4,0,0,0-20.845-5.022c-21.64,0-39.672,14.988-43.717,34.864Z" transform="translate(-101.4 -62.05)" fill="#fff" opacity="0.4"/><path d="M201.171,322.162a42.084,42.084,0,0,0-3.035-15.732l-168.8,17.718a42.347,42.347,0,0,0-3.953,9.989l52.271,7.792L24.19,347.615c1.607,22.5,20.9,40.264,44.46,40.264a45.114,45.114,0,0,0,30.625-11.846,45.283,45.283,0,0,0,71.172-12.685,43.946,43.946,0,0,0,29.3-30.275l-66.1-10.266h67.522C201.168,322.591,201.171,322.377,201.171,322.162Z" transform="translate(-24.19 -268.883)" fill="#fff" opacity="0.4"/><ellipse cx="5.127" cy="1.777" rx="5.127" ry="1.777" transform="translate(90.879 99.992)" fill="#fff" opacity="0.1"/><ellipse cx="5.127" cy="1.777" rx="5.127" ry="1.777" transform="translate(155.289 99.992)" fill="#fff" opacity="0.1"/><ellipse cx="5.127" cy="1.777" rx="5.127" ry="1.777" transform="translate(85.286 108.893)" fill="#fff" opacity="0.1"/><ellipse cx="5.127" cy="1.777" rx="5.127" ry="1.777" transform="translate(160.849 109.065)" fill="#fff" opacity="0.1"/><path d="M1068.78,625.63l1.12,2.391V610.26h-1.12Z" transform="translate(-904.53 -516.484)" fill="#b77b7f"/><path d="M591.72,625.63l-1.12,2.391V610.26h1.12Z" transform="translate(-499.837 -516.484)" fill="#b77b7f"/><path d="M1068.78,625.63l1.12,2.391V610.26h-1.12Z" transform="translate(-904.53 -516.484)" opacity="0.1"/><path d="M591.72,625.63l-1.12,2.391V610.26h1.12Z" transform="translate(-499.837 -516.484)" opacity="0.1"/><rect width="3.104" height="21.832" transform="translate(96.413 61.154)" fill="#b77b7f"/><rect width="3.104" height="21.832" transform="translate(158.863 61.154)" fill="#b77b7f"/><rect width="3.104" height="2.545" transform="translate(96.413 61.154)" opacity="0.1"/><rect width="3.104" height="2.545" transform="translate(158.863 61.154)" opacity="0.1"/><rect width="74.759" height="3.256" transform="translate(91.628 60.238)" fill="#dda2a6"/><rect width="3.104" height="3.256" transform="translate(96.413 64.868)" opacity="0.1"/><rect width="3.104" height="3.256" transform="translate(158.863 64.868)" opacity="0.1"/><rect width="74.759" height="3.256" transform="translate(91.628 64.666)" fill="#dda2a6"/><rect width="3.104" height="3.256" transform="translate(96.413 69.296)" opacity="0.1"/><rect width="3.104" height="3.256" transform="translate(158.863 69.296)" opacity="0.1"/><rect width="74.759" height="3.256" transform="translate(91.628 69.093)" fill="#dda2a6"/><rect width="3.104" height="3.256" transform="translate(96.413 73.723)" opacity="0.1"/><rect width="3.104" height="3.256" transform="translate(158.863 73.723)" opacity="0.1"/><rect width="74.759" height="3.256" transform="translate(91.628 73.521)" fill="#dda2a6"/><rect width="3.104" height="3.256" transform="translate(96.413 78.151)" opacity="0.1"/><rect width="3.104" height="3.256" transform="translate(158.863 78.151)" opacity="0.1"/><rect width="74.759" height="3.256" transform="translate(91.628 77.948)" fill="#dda2a6"/><g transform="translate(97.514 61.62)" opacity="0.1"><circle cx="0.45" cy="0.45" r="0.45"/><circle cx="0.45" cy="0.45" r="0.45" transform="translate(0 4.428)"/><circle cx="0.45" cy="0.45" r="0.45" transform="translate(0 8.855)"/><circle cx="0.45" cy="0.45" r="0.45" transform="translate(0 13.283)"/><circle cx="0.45" cy="0.45" r="0.45" transform="translate(0 17.71)"/><circle cx="0.45" cy="0.45" r="0.45" transform="translate(62.452)"/><circle cx="0.45" cy="0.45" r="0.45" transform="translate(62.452 4.428)"/><circle cx="0.45" cy="0.45" r="0.45" transform="translate(62.452 8.855)"/><circle cx="0.45" cy="0.45" r="0.45" transform="translate(62.452 13.283)"/><circle cx="0.45" cy="0.45" r="0.45" transform="translate(62.452 17.71)"/></g><circle cx="0.45" cy="0.45" r="0.45" transform="translate(97.514 61.417)" fill="#918c9e"/><circle cx="0.45" cy="0.45" r="0.45" transform="translate(97.514 65.844)" fill="#918c9e"/><circle cx="0.45" cy="0.45" r="0.45" transform="translate(97.514 70.272)" fill="#918c9e"/><circle cx="0.45" cy="0.45" r="0.45" transform="translate(97.514 74.699)" fill="#918c9e"/><circle cx="0.45" cy="0.45" r="0.45" transform="translate(97.514 79.127)" fill="#918c9e"/><circle cx="0.45" cy="0.45" r="0.45" transform="translate(159.967 61.417)" fill="#918c9e"/><circle cx="0.45" cy="0.45" r="0.45" transform="translate(159.967 65.844)" fill="#918c9e"/><circle cx="0.45" cy="0.45" r="0.45" transform="translate(159.967 70.272)" fill="#918c9e"/><circle cx="0.45" cy="0.45" r="0.45" transform="translate(159.967 74.699)" fill="#918c9e"/><circle cx="0.45" cy="0.45" r="0.45" transform="translate(159.967 79.127)" fill="#918c9e"/><path d="M662.911,536.94H584.64l1.781-2.19H661.18Z" transform="translate(-494.793 -452.579)" fill="#dda2a6"/><path d="M662.911,536.94H584.64l1.781-2.19H661.18Z" transform="translate(-494.793 -452.579)" opacity="0.1"/><path d="M662.911,536.278H584.64l1.781-2.188H661.18Z" transform="translate(-494.793 -452.02)" fill="#dda2a6"/><path d="M649.4,553.526l-83.971-.2,2.851-3h78.678Z" transform="translate(-478.535 -465.756)" fill="#dda2a6"/><path d="M649.4,553.526l-83.971-.2,2.851-3h78.678Z" transform="translate(-478.535 -465.756)" opacity="0.1"/><path d="M649.4,552.866l-83.971-.2,2.851-3h78.678Z" transform="translate(-478.535 -465.197)" fill="#dda2a6"/><path d="M635.51,574.284H545.89l2.749-3.1,84.429.1Z" transform="translate(-461.998 -483.41)" fill="#dda2a6"/><path d="M626.219,610.26v6.412l-1.1,2.138-.364-7.633-.043-.916Z" transform="translate(-528.705 -516.484)" fill="#b77b7f"/><path d="M1035.3,610.26l-.045.916-.363,7.633-1.1-2.138V610.26Z" transform="translate(-874.918 -516.484)" fill="#b77b7f"/><path d="M626.219,610.26v6.412l-1.1,2.138-.364-7.633-.043-.916Z" transform="translate(-528.705 -516.484)" opacity="0.1"/><path d="M1035.3,610.26l-.045.916-.363,7.633-1.1-2.138V610.26Z" transform="translate(-874.918 -516.484)" opacity="0.1"/><rect width="2.849" height="9.059" transform="translate(93.562 93.267)" fill="#b77b7f"/><rect width="2.849" height="9.059" transform="translate(159.976 93.267)" fill="#b77b7f"/><path d="M611.661,607.459h1.1v.916H608.81V606.95h2.851Z" transform="translate(-515.248 -513.683)" opacity="0.1"/><path d="M1037.743,606.95v1.425h-3.953v-.916h1.1v-.509Z" transform="translate(-874.918 -513.683)" opacity="0.1"/><rect width="76.54" height="2.239" transform="translate(89.847 92.248)" fill="#b77b7f"/><rect width="3.256" height="19.696" transform="translate(87.507 91.841)" fill="#b77b7f"/><rect width="3.256" height="19.696" transform="translate(168.628 111.536) rotate(180)" fill="#b77b7f"/><rect width="76.54" height="0.203" transform="translate(89.847 92.248)" opacity="0.1"/><rect width="89.62" height="1.374" transform="translate(83.892 90.874)" fill="#dda2a6"/><rect width="89.62" height="1.374" transform="translate(83.892 90.874)" fill="#fff" opacity="0.1"/><circle cx="0.45" cy="0.45" r="0.45" transform="translate(88.49 93.02)" opacity="0.1"/><circle cx="0.45" cy="0.45" r="0.45" transform="translate(88.49 92.817)" fill="#918c9e"/><circle cx="0.45" cy="0.45" r="0.45" transform="translate(166.815 92.958)" opacity="0.1"/><circle cx="0.45" cy="0.45" r="0.45" transform="translate(166.815 92.755)" fill="#918c9e"/><ellipse cx="7.211" cy="0.99" rx="7.211" ry="0.99" transform="translate(5.864 98.486)" fill="#fff" opacity="0.1"/><ellipse cx="7.211" cy="0.99" rx="7.211" ry="0.99" transform="translate(33.487 101.286)" fill="#fff" opacity="0.1"/><ellipse cx="7.211" cy="0.99" rx="7.211" ry="0.99" transform="translate(66.022 97.496)" fill="#fff" opacity="0.1"/><ellipse cx="5.127" cy="0.704" rx="5.127" ry="0.704" transform="translate(24.515 109.546)" fill="#fff" opacity="0.1"/><ellipse cx="5.127" cy="0.704" rx="5.127" ry="0.704" transform="translate(53.184 108.842)" fill="#fff" opacity="0.1"/><path d="M267.65,424.61s-10.111-33.153,1.584-46.439c8.751-9.934,18.681-8.746,23.13-7.516a8.222,8.222,0,0,1,5.305,4.409c1.554,3.355,1.274,8.8-9.7,15.156-18.38,10.641-19.517,25.239-19.517,25.239Z" transform="translate(-226.8 -322.556)" fill="#fff"/><path d="M307.759,405.73s-29.814,9.322-23.129,49.247" transform="translate(-243.779 -352.922)" fill="none" stroke="#565987" stroke-miterlimit="10" stroke-width="1"/><path d="M327.21,427.47s4.1,2.766,2.8,6.925" transform="translate(-280.642 -371.321)" fill="none" stroke="#565987" stroke-miterlimit="10" stroke-width="1"/><path d="M390.415,434.859s-2.51-2.554-5.565-1.145" transform="translate(-329.424 -376.247)" fill="none" stroke="#565987" stroke-miterlimit="10" stroke-width="1"/><path d="M313.836,522.345s-4.408-2.236-5.546.566" transform="translate(-264.63 -450.901)" fill="none" stroke="#565987" stroke-miterlimit="10" stroke-width="1"/><path d="M273.42,557.279s3.316-.264,3.369,1.326" transform="translate(-235.118 -481.168)" fill="none" stroke="#565987" stroke-miterlimit="10" stroke-width="1"/><path d="M287.35,598.061s11.846-24.1,15.1-23.568c1.546.251,2.258,1.77,2.579,3.3a9.694,9.694,0,0,1-.644,5.866C302.7,587.513,298.189,594.834,287.35,598.061Z" transform="translate(-246.908 -495.743)" fill="#fff"/><path d="M303.3,604.3s-12.433,18.027-14.835,18.818" transform="translate(-247.855 -520.976)" fill="none" stroke="#565987" stroke-miterlimit="10" stroke-width="1"/><line x1="2.901" transform="translate(53.696 86.136)" fill="none" stroke="#565987" stroke-miterlimit="10" stroke-width="1"/><line x1="4.549" y2="0.195" transform="translate(48.572 92.732)" fill="none" stroke="#565987" stroke-miterlimit="10" stroke-width="1"/><line x2="0.493" y2="2.368" transform="translate(50.353 87.456)" fill="none" stroke="#565987" stroke-miterlimit="10" stroke-width="1"/><line x2="0.088" y2="2.153" transform="translate(45.517 94.667)" fill="none" stroke="#565987" stroke-miterlimit="10" stroke-width="1"/><path d="M191.227,598.061s-11.844-24.1-15.1-23.568c-1.546.251-2.259,1.77-2.58,3.3a9.694,9.694,0,0,0,.645,5.866C175.874,587.513,180.389,594.834,191.227,598.061Z" transform="translate(-150.433 -495.743)" fill="#fff"/><path d="M192,604.3s12.433,18.027,14.835,18.818" transform="translate(-166.211 -520.976)" fill="none" stroke="#565987" stroke-miterlimit="10" stroke-width="1"/><line x2="2.903" transform="translate(24.641 86.136)" fill="none" stroke="#565987" stroke-miterlimit="10" stroke-width="1"/><line x2="4.549" y2="0.195" transform="translate(28.117 92.732)" fill="none" stroke="#565987" stroke-miterlimit="10" stroke-width="1"/><line x1="0.493" y2="2.368" transform="translate(30.392 87.456)" fill="none" stroke="#565987" stroke-miterlimit="10" stroke-width="1"/><line x1="0.089" y2="2.153" transform="translate(35.634 94.667)" fill="none" stroke="#565987" stroke-miterlimit="10" stroke-width="1"/><path d="M385.962,746.576a2.039,2.039,0,0,0,.675-1.017.907.907,0,0,0-.472-1.037,1.327,1.327,0,0,0-1.245.438,1.665,1.665,0,0,1-1.211.584,1.844,1.844,0,0,0,.562-1.726.737.737,0,0,0-.154-.35c-.241-.257-.676-.146-.964.055a3.572,3.572,0,0,0-1.176,3,5.73,5.73,0,0,1-.017-1.237,1.276,1.276,0,0,0-.461-1.094,1.4,1.4,0,0,0-.708-.168,1.461,1.461,0,0,0-1.15.327,1.145,1.145,0,0,0,.045,1.412,4.5,4.5,0,0,0,1.189.953,2.637,2.637,0,0,1,.851.811.9.9,0,0,1,.063.144h2.577a7.228,7.228,0,0,0,1.594-1.1Z" transform="translate(-324.827 -638.629)" fill="#fff"/><path d="M92.3,683.426a2.031,2.031,0,0,0,.675-1.017.906.906,0,0,0-.472-1.037,1.326,1.326,0,0,0-1.245.438,1.665,1.665,0,0,1-1.211.584,1.844,1.844,0,0,0,.57-1.726.745.745,0,0,0-.154-.35c-.241-.257-.676-.146-.964.057a3.564,3.564,0,0,0-1.174,3,5.573,5.573,0,0,1-.017-1.229,1.285,1.285,0,0,0-.461-1.094,1.4,1.4,0,0,0-.708-.167,1.47,1.47,0,0,0-1.15.327,1.145,1.145,0,0,0,.045,1.412,4.478,4.478,0,0,0,1.191.953,2.647,2.647,0,0,1,.85.811.893.893,0,0,1,.063.144h2.577A7.219,7.219,0,0,0,92.3,683.426Z" transform="translate(-76.305 -585.185)" fill="#fff"/><path d="M190.183,746.575a2.038,2.038,0,0,0,.675-1.017.905.905,0,0,0-.472-1.037,1.327,1.327,0,0,0-1.245.438,1.665,1.665,0,0,1-1.211.584,1.844,1.844,0,0,0,.57-1.726.738.738,0,0,0-.154-.35c-.241-.257-.676-.146-.964.055a3.589,3.589,0,0,0-1.174,3,5.634,5.634,0,0,1-.017-1.237,1.276,1.276,0,0,0-.461-1.094,1.4,1.4,0,0,0-.708-.168,1.465,1.465,0,0,0-1.15.327,1.145,1.145,0,0,0,.045,1.412,4.479,4.479,0,0,0,1.191.953,2.63,2.63,0,0,1,.85.811.766.766,0,0,1,.063.144h2.568A7.225,7.225,0,0,0,190.183,746.575Z" transform="translate(-159.143 -638.629)" fill="#fff"/><path d="M489.127,636.87s.967,1.263-.446,3.17-2.576,3.518-2.105,4.707c0,0,2.13-3.535,3.865-3.591S491.036,639,489.127,636.87Z" transform="translate(-415.427 -548.541)" fill="#fff"/><path d="M489.423,636.87a1.547,1.547,0,0,1,.2.4c1.691,1.987,2.593,3.842.967,3.89-1.515.043-3.332,2.752-3.768,3.436.015.052.032.1.052.154,0,0,2.13-3.535,3.865-3.591S491.332,639,489.423,636.87Z" transform="translate(-415.723 -548.541)" opacity="0.1"/><path d="M514.223,645.777c0,.444-.049.805-.111.805s-.112-.361-.112-.805.063-.237.124-.237S514.223,645.331,514.223,645.777Z" transform="translate(-438.726 -555.837)" fill="#ffd037"/><path d="M515.21,649.127c-.39.214-.73.341-.768.287s.264-.271.655-.483.237-.058.266,0S515.6,648.915,515.21,649.127Z" transform="translate(-439.097 -558.657)" fill="#ffd037"/><path d="M458.614,636.87s-.965,1.263.447,3.17,2.576,3.518,2.105,4.707c0,0-2.132-3.535-3.865-3.591S456.707,639,458.614,636.87Z" transform="translate(-390.018 -548.541)" fill="#fff"/><path d="M458.614,636.87a1.58,1.58,0,0,0-.2.4c-1.69,1.987-2.594,3.842-.967,3.89,1.515.043,3.332,2.752,3.767,3.436a1.433,1.433,0,0,1-.051.154s-2.132-3.535-3.865-3.591S456.707,639,458.614,636.87Z" transform="translate(-390.018 -548.541)" opacity="0.1"/><path d="M458.87,645.777c0,.444.049.805.111.805s.112-.361.112-.805-.063-.237-.124-.237S458.87,645.331,458.87,645.777Z" transform="translate(-392.068 -555.837)" fill="#ffd037"/><path d="M453.551,649.127c.39.214.73.341.759.287s-.263-.271-.653-.483-.237-.058-.266,0S453.161,648.915,453.551,649.127Z" transform="translate(-387.366 -558.657)" fill="#ffd037"/><path d="M460.87,679.019s2.7-.083,3.515-.664,4.149-1.271,4.358-.341,4.06,4.624,1.01,4.649-7.086-.475-7.9-.971S460.87,679.019,460.87,679.019Z" transform="translate(-393.761 -582.976)" fill="#a8a8a8"/><path d="M469.786,690.354c-3.049.025-7.086-.475-7.9-.97-.615-.377-.865-1.73-.947-2.354h-.091s.171,2.178.984,2.672,4.849,1,7.9.971c.881,0,1.185-.321,1.168-.785C470.781,690.174,470.446,690.349,469.786,690.354Z" transform="translate(-393.744 -590.992)" opacity="0.2"/><path d="M714.151,385.918l.091-.032a5,5,0,0,0-1.108-3.014c-1.065-1.048-.4-4.331-.4-4.331s.089-3.452-.4-4.281,0-3.933,0-3.933v-4.713a18.852,18.852,0,0,1-.487-4.587c-.089-3.358-.443-2.92-1.108-3.888-.344-.5-1.81-1.02-3.16-1.4a25.388,25.388,0,0,0-2.9-2.559,3.9,3.9,0,0,1,1.411-1.025c.478-.226,1.027-.461,1.222-.944a1.864,1.864,0,0,0,.052-.87,5.207,5.207,0,0,0-.263-1.357,1.778,1.778,0,0,0-.9-1.019c-.232-.1-.533-.172-.6-.413a.584.584,0,0,1,.012-.29,6.076,6.076,0,0,0,.266-1.423,3.5,3.5,0,0,0-.5-1.52,7,7,0,0,0-2.639-3.046,7.077,7.077,0,0,0-5.05-.247,6.637,6.637,0,0,1-1.383.257,6.009,6.009,0,0,0-.848.02,1.607,1.607,0,0,0-.461.154c.031-.031.061-.065.1-.094a2.268,2.268,0,0,0-.735.547,1.8,1.8,0,0,0-.461.811,1.109,1.109,0,0,0-.037.307,1.525,1.525,0,0,0,.307.805,7.163,7.163,0,0,0-.65.366.81.81,0,0,0-.269.235.475.475,0,0,0-.051.115,1.219,1.219,0,0,0-.1.533.146.146,0,0,1-.011.068c.018-.034.034-.068.049-.1-.175,1.076-1.5,1.75-1.876,2.728a1.443,1.443,0,0,0-.154.652c.017.787.713,1.371,1.091,2.062.632,1.157.349,2.563.171,3.865-.025.184-.045.375-.057.567a4.64,4.64,0,0,0-2.576,1.131c-1.4,1.465-.768.218-1.772,3.452l-1,3.227-.134,2.337a2.433,2.433,0,0,0-.708,1.6,1.635,1.635,0,0,1-.332,1.229,16.8,16.8,0,0,0,0,2.141c.089.415-.666.83-.615,1.2a10.843,10.843,0,0,1,0,1.229.928.928,0,0,0-.6.939,12.046,12.046,0,0,1,.043,1.355s-1.107,1.157-.885,1.79a3.175,3.175,0,0,1-.2,1.7s-.244,1.4-.842,1.77a4.082,4.082,0,0,0-1,1.858c-.446.015-6.88.263-6.667,1.12.221.888,6.293,1.165,7,1.165a.625.625,0,0,0,.092-.009c-.166,1.076-.593,3.192-1.4,3.535-1.086.461-3.058,2.447-2.969,3.321a41.3,41.3,0,0,1-.644,6.9,4.983,4.983,0,0,0-.092,1.248c-1.4,2.428-2.436,4.4-2.709,4.928l-.071.137-.083.218h0c-.189-.131-1.563,1.618-1.563,1.618a24.146,24.146,0,0,0-1.174,2.184c-.045.261-.91.436-.953.633a13.465,13.465,0,0,1-1.063,1.465,3.661,3.661,0,0,1-1.6,1.878c-1.02.393-2.1,1.355-.708,2.448a12.987,12.987,0,0,0,4.188,1.7,14.683,14.683,0,0,0,2.127-2.665,15.9,15.9,0,0,1,1.374-2.271,11.929,11.929,0,0,0,.71-1.69,36.427,36.427,0,0,1,2.141-3.552l-.221-.086c.084-.092.181-.194.289-.307.075-.078.154-.163.241-.247.237.581.523.976.865,1.054,1.64.372,2.814-1.617,3.568-1.813s1.572-2.749,1.572-2.749,2.239-1.88,2.261-3.381c0-.33.012-.682.02-1.03a17.784,17.784,0,0,1,1.288-2.167,13.98,13.98,0,0,1,1.892-2.417c.307-.169,2.216-2.069,3.227-3.087l.1-.106c.307.67.661,1.143,1.063,1.154.307.009.556-.438.753-1.076q.029.061.065.125a7.621,7.621,0,0,0,1.575,1.844s2.837,3.976,2.593,4.61,2.061,3.3,3.381,4.085c1.064.63,3.842,3.788,4.9,5.016l.154.181a.99.99,0,0,1-.238.06c-.369.014.518.99.518.99s.693.947.664,1.414.871,1.588.871,1.588,1.537,2.612,1.434,3.51-.99,3.276,1.108,2.811,4.343-.7,4.3-1.763a10.231,10.231,0,0,0-.945-2.92l-.931-1.866a16.535,16.535,0,0,1-1.345-2.038c-.415-.83-1.7-3.5-1.7-3.5l-.461.2-.1-.209c-.476-1.007-1.629-3.479-3.024-6.691a26.376,26.376,0,0,0-1.844-3.581l1.844-.389c2.124,1.983,7.114,2.591,7.114,2.591s-.307-4.936.178-6.379a1.28,1.28,0,0,0-.573-1.537c2-.115,5.56-.436,5.729-1.113S716.058,386.023,714.151,385.918Zm-5.559-1.2c-.395-.028-.687-.031-.687-.031a5.177,5.177,0,0,1,.443-1.245c.266-.438-1.6-1.617-1.477-2.709a11.957,11.957,0,0,0-.605-3.364s.088-2.359,0-3.452a3.339,3.339,0,0,1,.4-1.878s1.064,2.84.615,3.227,0,2.49,0,2.49.8,2.8,1.2,3.8a11.146,11.146,0,0,1,.118,3.161Z" transform="translate(-567.733 -297.877)" fill="url(#a)"/><path d="M732.276,612s-6.719.229-6.5,1.1,6.116,1.148,6.8,1.148,1.678-1.262,1.678-1.262Z" transform="translate(-617.949 -527.493)" fill="#efb7b9"/><rect width="3.876" height="3.573" transform="translate(118.498 81.441)" fill="#67647e"/><rect width="3.876" height="3.573" transform="translate(118.498 81.441)" opacity="0.12"/><path d="M738.015,535.463l-3.565,7.2,4.52,1.466L742.618,541l1.724-3.341,3.492.284,3.727,1.855,3.012,1.839,1.823,3.409,2.613,1.477,5.6-1.2.818-3.81-4.57-3.061-1.657-2.508-6.716-.977-1.944-2.9-6.719,1.621Z" transform="translate(-621.58 -450.311)" fill="#67647e"/><path d="M737.609,535.895l-3.639,7.842,4.593.822,3.648-3.13,1.724-3.341,3.492.283,3.727,1.857,3.012,1.838,1.823,3.41,2.613,1.475,5.6-1.2.818-3.81-4.57-3.06-1.657-2.51-6.716-.976-1.944-2.9-6.719,1.621Z" transform="translate(-621.174 -450.675)" opacity="0.12"/><path d="M830.1,366.608a.777.777,0,0,0-.261.232,1.241,1.241,0,0,0-.1.529c-.137,1.3-1.956,2-1.929,3.3.015.768.693,1.349,1.06,2.032.615,1.14.338,2.528.166,3.811a3.032,3.032,0,0,0,.615,2.754,11.883,11.883,0,0,1,.984.695c.569.593.444,1.566.819,2.305a.672.672,0,0,0,.154.209.642.642,0,0,0,.218.112,1.965,1.965,0,0,0,2.039-.684,3.48,3.48,0,0,0,.708-2.129,17.341,17.341,0,0,0-.171-2.274c-.14-1.457-.092-2.92-.211-4.383a3.536,3.536,0,0,0-.307-1.343c-.112-.218-.264-.415-.37-.636a3.382,3.382,0,0,1-.249-.962l-.406-2.568c-.08-.513-.154-1.434-.742-1.632S830.579,366.3,830.1,366.608Z" transform="translate(-704.308 -319.238)" fill="#e3787d"/><path d="M830.1,366.608a.777.777,0,0,0-.261.232,1.241,1.241,0,0,0-.1.529c-.137,1.3-1.956,2-1.929,3.3.015.768.693,1.349,1.06,2.032.615,1.14.338,2.528.166,3.811a3.032,3.032,0,0,0,.615,2.754,11.883,11.883,0,0,1,.984.695c.569.593.444,1.566.819,2.305a.672.672,0,0,0,.154.209.642.642,0,0,0,.218.112,1.965,1.965,0,0,0,2.039-.684,3.48,3.48,0,0,0,.708-2.129,17.341,17.341,0,0,0-.171-2.274c-.14-1.457-.092-2.92-.211-4.383a3.536,3.536,0,0,0-.307-1.343c-.112-.218-.264-.415-.37-.636a3.382,3.382,0,0,1-.249-.962l-.406-2.568c-.08-.513-.154-1.434-.742-1.632S830.579,366.3,830.1,366.608Z" transform="translate(-704.308 -319.238)" fill="#e3787d"/><g transform="translate(123.449 47.619)" opacity="0.1"><path d="M840.127,372.076a.408.408,0,0,1,.009-.106.468.468,0,0,0-.08.1,1.228,1.228,0,0,0-.108.524.169.169,0,0,1-.009.066A1.637,1.637,0,0,0,840.127,372.076Z" transform="translate(-838.025 -371.97)"/><path d="M833.706,404.143a1.963,1.963,0,0,1-2.038.684.543.543,0,0,1-.372-.321c-.376-.732-.252-1.7-.821-2.3-.278-.289-.678-.432-.984-.695a3.031,3.031,0,0,1-.615-2.754c.172-1.283.449-2.671-.166-3.81-.367-.684-1.043-1.259-1.06-2.033a1.256,1.256,0,0,1,.014-.217,1.469,1.469,0,0,0-.186.733c.015.768.693,1.351,1.06,2.033.615,1.14.338,2.527.166,3.81a3.035,3.035,0,0,0,.615,2.755,11.891,11.891,0,0,1,.984.695c.568.593.444,1.566.819,2.3a.676.676,0,0,0,.154.211.63.63,0,0,0,.22.111,1.963,1.963,0,0,0,2.038-.684,2.948,2.948,0,0,0,.579-1.193A2.686,2.686,0,0,1,833.706,404.143Z" transform="translate(-827.479 -389.514)"/></g><path d="M955.841,637.55s6.717.231,6.5,1.1-6.115,1.15-6.8,1.15-1.678-1.263-1.678-1.263Z" transform="translate(-810.989 -549.116)" fill="#efb7b9"/><path d="M755.369,438.2s-3.293-.194-4.649,1.249-.755.215-1.723,3.4l-.97,3.187-.129,2.305a2.367,2.367,0,0,0-.689,1.572,1.562,1.562,0,0,1-.324,1.206,16.9,16.9,0,0,0,0,2.11c.086.409-.646.818-.6,1.183a10.866,10.866,0,0,1,0,1.206.912.912,0,0,0-.581.922,12.117,12.117,0,0,1,.043,1.334s-1.076,1.142-.862,1.766a3.186,3.186,0,0,1-.194,1.68s-.237,1.383-.818,1.744-1.013,1.987-1.013,1.987.538,1.4.538,1.465-.387,3.661-1.442,4.112-2.972,2.414-2.889,3.27a41.843,41.843,0,0,1-.624,6.8c-.28.732.043,8.2,1.637,8.571s2.737-1.594,3.47-1.786,1.528-2.714,1.528-2.714,2.176-1.852,2.2-3.336.086-3.381.086-3.381a40.8,40.8,0,0,0-3.058-4.63c-.516-.327-1.959-2.151-.841-3.725a16.952,16.952,0,0,0,1.832-3.575l1.2-1.076,1.02-3.857,1.844-6.029,1.744-5.923,1.483-6.223L756.5,440.3A1.468,1.468,0,0,0,755.369,438.2Z" transform="translate(-628.6 -380.397)" fill="#67647e"/><path d="M737.045,625.524l-.615.632c-.988,1-2.849,2.877-3.143,3.043a14.128,14.128,0,0,0-1.844,2.383,26.033,26.033,0,0,0-1.895,3.445s-2.7,3.79-4.277,4.192c-1.076.272-2.536,1.678-3.366,2.557-.4.418-.652.716-.652.716l-3.1-1.206.4-1.062.069-.137c.3-.581,1.526-2.96,3.146-5.751a37.816,37.816,0,0,1,4.71-6.172s2.468-2.268,2.554-3.3a12.908,12.908,0,0,0-.026-1.721c-.046-.744-.117-1.383-.117-1.383l3.761-2.439,2.872,1.2Z" transform="translate(-611.502 -533.688)" fill="#efb7b9"/><path d="M863.319,634.036l-3.058,1.508-.407-.483c-1.031-1.209-3.731-4.323-4.764-4.944-1.3-.782-3.535-3.395-3.3-4.026s-2.519-4.544-2.519-4.544a7.643,7.643,0,0,1-1.537-1.824,2.058,2.058,0,0,1-.3-1.469c.364-1.445,1.571-4.61,1.571-4.61s.582-.97.624-1.036,2.159-.792,2.159-.792l2.089-.215,2.628,2.239s-.1.533-.241,1.274c-.32,1.631-.873,4.271-1.139,4.434-.386.237,1.79,2,1.79,2s1.442,1.229,3.227,5.4c1.355,3.167,2.474,5.6,2.938,6.6C863.231,633.865,863.319,634.036,863.319,634.036Z" transform="translate(-720.887 -527.154)" fill="#efb7b9"/><path d="M794.7,620.522l1.52,5-.615.632a25.626,25.626,0,0,1-.961-3.3c-.4-1.637-4.537-1.206-5.254-1.206-.317,0-.761.724-1.2,1.494-.046-.744-.117-1.383-.117-1.383l3.761-2.439Z" transform="translate(-670.677 -533.688)" opacity="0.1"/><path d="M856.533,613.836s-.1.533-.241,1.274a5.5,5.5,0,0,0-1.339-1.863c-2.009-1.78-4.678-.258-4.678-.258-.275.1-.409.386-.707.738a6.256,6.256,0,0,0-1.448,3.671,12.547,12.547,0,0,1-.353,2.324,2.058,2.058,0,0,1-.3-1.469c.364-1.445,1.571-4.61,1.571-4.61s.582-.97.624-1.036,2.155-.792,2.155-.792l2.088-.215Z" transform="translate(-720.912 -527.154)" opacity="0.1"/><path d="M801.563,601.068c-.029.718-2.7,1.844-2.7,1.844a7.071,7.071,0,0,0-2.01-4.8c-2.01-1.781-4.672-.264-4.672-.264-.275.1-.409.386-.707.738a6.257,6.257,0,0,0-1.448,3.67c-.092,1.528-.509,3.622-1.148,3.6-1.005-.028-1.69-3.041-2.1-4.678s-4.537-1.206-5.254-1.206-2.1,3.731-2.613,3.273.573-4.056.573-4.056l3.472-4.185.741-.89,15.245.824s.38.586.751,1.165c.352.552.7,1.1.713,1.139A21.741,21.741,0,0,1,801.563,601.068Z" transform="translate(-662.812 -512.361)" fill="#444053"/><path d="M826.67,605.615a37.06,37.06,0,0,1,2.929,3.5,14.809,14.809,0,0,1,.26,1.537,10.87,10.87,0,0,1,.154-1.368c.091-.3-.323-1-.624-1.229a4.5,4.5,0,0,1-.938-.839c-.075-.183-.43-2.056-.43-2.056l-1.163-.258Z" transform="translate(-703.345 -521.484)" opacity="0.1"/><path d="M851.32,607.59a13.3,13.3,0,0,0-1.744,2.347C849.619,610.238,851.32,607.59,851.32,607.59Z" transform="translate(-722.73 -523.76)" opacity="0.1"/><path d="M857.8,405.655l-2.067,2.872-5.675,1.148s-5.752-1.435-1.844-2.929a2.252,2.252,0,0,0,.956-.644c.688-.825.435-2.072-.138-3.286a17.805,17.805,0,0,0-2.583-3.75s8.082-3.575,7.163.154a3.76,3.76,0,0,0,.045,1.967,7.774,7.774,0,0,0,3.066,3.776A10.405,10.405,0,0,0,857.8,405.655Z" transform="translate(-720.085 -345.976)" fill="#efb7b9"/><path d="M860.033,446.657l-2.067,2.872-5.675,1.148s-5.752-1.435-1.844-2.929a2.251,2.251,0,0,0,.956-.644,4.546,4.546,0,0,0,2.374.587s3.193-.936,5.177-1.721A10.419,10.419,0,0,0,860.033,446.657Z" transform="translate(-722.316 -386.978)" opacity="0.1"/><path d="M822.765,596.29a21.888,21.888,0,0,0-2.405-.589,3.349,3.349,0,0,0-1.9.014,11.782,11.782,0,0,1-3.446,1.666.987.987,0,0,1-.922-.575,16.262,16.262,0,0,0-3.5,0c-.922.154-3.089-.945-4.432-1.69L806,595.03l.741-.89,15.245.824s.38.586.751,1.165Z" transform="translate(-685.852 -512.378)" opacity="0.1"/><path d="M816.775,463.71l.573,3.842a22.126,22.126,0,0,0-2.405-.59,3.363,3.363,0,0,0-1.9.014,11.749,11.749,0,0,1-3.446,1.666.986.986,0,0,1-.922-.573,16.261,16.261,0,0,0-3.5,0c-.922.154-3.089-.945-4.432-1.69-.672-.375-1.137-.661-1.137-.661l.86-3.044,2.642-2.814.4-4.074.63-4.707.984-2.866,1.767-4.2.315-.744s.344.2.852.473c.235.124.5.264.791.4,1.094.536,2.439,1.086,3.047.9,0,0,2.838-.831,4.827-1.584a6.316,6.316,0,0,0,1.844-.905.2.2,0,0,0,.048-.094c0-.057.012-.014.024.112.123,1.268.55,10.97.55,10.97Z" transform="translate(-680.435 -383.99)" fill="#a36468"/><path d="M902.878,452.231,900.467,462.4l.573,3.842a22.121,22.121,0,0,0-2.4-.59c-.137-1.575-.294-4.235.123-5.124a26.046,26.046,0,0,0,.947-5.379l.707-13,.069-1.257a9.39,9.39,0,0,1,1.775.352l.072.018C902.451,442.529,902.878,452.231,902.878,452.231Z" transform="translate(-764.127 -382.675)" opacity="0.1"/><path d="M937.183,631.821c-1.5.452-3.535.947-3.742.412a6.827,6.827,0,0,1-.108-2.1c.733.052,1.833.2,2,.595S936.525,631.412,937.183,631.821Z" transform="translate(-793.6 -542.837)" opacity="0.1"/><path d="M904.968,440.891c.129-.088,4.824.947,5.47,1.895s.991.516,1.076,3.833a18.6,18.6,0,0,0,.473,4.521v4.652s-.473,3.058,0,3.876.387,4.22.387,4.22-.646,3.227.387,4.265a4.992,4.992,0,0,1,1.076,2.971s-5.039,1.809-5.379.948.172-4.22-.215-5.211-1.163-3.747-1.163-3.747-.43-2.067,0-2.459-.6-3.187-.6-3.187a3.318,3.318,0,0,0-.387,1.852c.086,1.076,0,3.4,0,3.4a11.984,11.984,0,0,1,.589,3.316c-.114,1.077,1.691,2.239,1.435,2.669a5.33,5.33,0,0,0-.432,1.229s2.413.023,2.671.625,2.239.9,2.411,1.74,1.981,1.1,1.508,2.525-.172,6.287-.172,6.287-8.7-1.076-7.752-5.039,5.427-2.2,5.427-2.2-3.568-2.109-5.643-1.85-2.886-5.168-2.886-5.168-.6-5.039,0-6.33a26.024,26.024,0,0,0,.947-5.379Z" transform="translate(-767.926 -382.676)" fill="#67647e"/><path d="M941.71,622.878s.215-.409,1.744-.154a4.41,4.41,0,0,0,2.305-.085S942.658,624.02,941.71,622.878Z" transform="translate(-800.706 -536.498)" opacity="0.1"/><path d="M928.873,495.14c-.021.065,1.12,1.744.258,3.1a21.882,21.882,0,0,0-1.723,3.94c-.151.406-.358,1.034-.358,1.034" transform="translate(-788.299 -428.592)" opacity="0.1"/><path d="M903.164,427.46s4.048,3.037,4.026,4.457a1.647,1.647,0,0,1-1.23.452c-.842,0-2.347-.409-2.519-1.357s-.819,0-.452.5.581.753.581.753a32.738,32.738,0,0,1,4.564,1.551c.733.495-.307,1.076-.307,1.076a10.69,10.69,0,0,0-1.011,2.261,42.225,42.225,0,0,1-2.649,4.543s-.9,4.566-.861,5.426.108,2.689.108,2.689l-1.721,2.373s-.421-7.32-.141-8.309,1.033-7.214,1.033-7.214.862-3.791.518-4.222a4.782,4.782,0,0,1-.461-1.766Z" transform="translate(-766.638 -371.313)" opacity="0.05"/><path d="M901.115,426.34s4.049,3.037,4.028,4.457a1.651,1.651,0,0,1-1.229.452c-.841,0-2.347-.409-2.519-1.357s-.819,0-.453.5.582.753.582.753a32.739,32.739,0,0,1,4.564,1.551c.733.495-.307,1.076-.307,1.076a10.78,10.78,0,0,0-1.013,2.262,42.609,42.609,0,0,1-2.64,4.55s-.905,4.566-.861,5.426.108,2.689.108,2.689l-1.383,2.37s-.768-7.32-.486-8.311,1.033-7.214,1.033-7.214.862-3.79.516-4.22a4.749,4.749,0,0,1-.461-1.766Z" transform="translate(-764.935 -370.365)" fill="#67647e"/><path d="M901.115,426.34s4.049,3.037,4.028,4.457a1.651,1.651,0,0,1-1.229.452c-.841,0-2.347-.409-2.519-1.357s-.819,0-.453.5.582.753.582.753a32.739,32.739,0,0,1,4.564,1.551c.733.495-.307,1.076-.307,1.076a10.78,10.78,0,0,0-1.013,2.262,42.609,42.609,0,0,1-2.64,4.55s-.905,4.566-.861,5.426.108,2.689.108,2.689l-1.383,2.37s-.768-7.32-.486-8.311,1.033-7.214,1.033-7.214.862-3.79.516-4.22a4.749,4.749,0,0,1-.461-1.766Z" transform="translate(-764.935 -370.365)" opacity="0.12"/><path d="M808.942,449.03a2.664,2.664,0,0,1-.154.605c-.154.476-.406,1.123-.615,1.784-.307,1.022-1.246,2.865-1.809,4.61s-1.4,5.468-1.4,5.468.172,3.424-.968,4.286-2.434,4.026-2.434,4.026-.409,1.056-.887,2.061c-.672-.375-1.137-.661-1.137-.661l.86-3.044,2.642-2.814.41-4.077.63-4.707.984-2.866,1.767-4.2c.476-.035.793-.063.793-.063s.161-.1.373-.207C808.395,449.027,808.956,448.784,808.942,449.03Z" transform="translate(-680.384 -389.48)" opacity="0.1"/><path d="M779.672,450.518s-4,.34-4.889.237-.516,1.916-.516,1.916a34.137,34.137,0,0,0-.541,4.549c.154.436.968,3.661.473,4.437s-2.024,4.8-2.024,4.8-.495,1.787-.922,3.575a38.546,38.546,0,0,1-1.7,5.513c-.26.3-2.462,4.265-2.211,4.879s3.642-5.225,4.326-5.748,1.955-3.79,1.955-3.79,1.291-3.166,2.433-4.026.97-4.286.97-4.286.839-3.725,1.4-5.469,1.5-3.587,1.809-4.61a23.773,23.773,0,0,0,.755-2.391C781.008,449.711,779.672,450.518,779.672,450.518Z" transform="translate(-653.117 -390.386)" opacity="0.05"/><path d="M781.932,449.436s-4,.34-4.888.237-.516,1.916-.516,1.916a34.734,34.734,0,0,0-.538,4.543c.151.43.968,3.661.473,4.437s-2.024,4.809-2.024,4.809-.495,1.787-.922,3.575a38.779,38.779,0,0,1-1.7,5.514c-.258.3-2.459,4.269-2.211,4.89s3.642-5.236,4.326-5.752,1.955-3.79,1.955-3.79,1.292-3.166,2.433-4.026.97-4.286.97-4.286.839-3.725,1.4-5.469,1.5-3.587,1.809-4.61a23.285,23.285,0,0,0,.753-2.391C783.27,448.637,781.932,449.436,781.932,449.436Z" transform="translate(-655.032 -389.476)" fill="#67647e"/><path d="M781.932,449.436s-4,.34-4.888.237-.516,1.916-.516,1.916a34.734,34.734,0,0,0-.538,4.543c.151.43.968,3.661.473,4.437s-2.024,4.809-2.024,4.809-.495,1.787-.922,3.575a38.779,38.779,0,0,1-1.7,5.514c-.258.3-2.459,4.269-2.211,4.89s3.642-5.236,4.326-5.752,1.955-3.79,1.955-3.79,1.292-3.166,2.433-4.026.97-4.286.97-4.286.839-3.725,1.4-5.469,1.5-3.587,1.809-4.61a23.285,23.285,0,0,0,.753-2.391C783.27,448.637,781.932,449.436,781.932,449.436Z" transform="translate(-655.032 -389.476)" opacity="0.12"/><path d="M836.222,521.41s.492,2.479-.323,3.651S835.986,521.939,836.222,521.41Z" transform="translate(-710.873 -450.825)" opacity="0.1"/><path d="M880.03,574.73s-2.282.409-3.035,1.615S880.03,574.73,880.03,574.73Z" transform="translate(-745.852 -495.95)" opacity="0.1"/><path d="M883.883,590.7s-2.906.922-2.368,1.249,1.844-.258,2.218-.154S883.883,590.7,883.883,590.7Z" transform="translate(-749.705 -509.466)" opacity="0.1"/><path d="M721.926,756.137c-.4.418-.651.716-.651.716l-3.1-1.206.4-1.062.069-.137a.031.031,0,0,1,.023,0c.183.126,1.558,1.011,1.558,1.011Z" transform="translate(-611.519 -648.048)" opacity="0.1"/><path d="M680.517,757.715s-1.375-.884-1.56-1.013-1.52,1.6-1.52,1.6a23.931,23.931,0,0,0-1.14,2.152c-.043.257-.884.43-.922.624a12.82,12.82,0,0,1-1.034,1.443s-.56,1.465-1.549,1.844-2.047,1.336-.69,2.411a12.568,12.568,0,0,0,4.069,1.68,14.521,14.521,0,0,0,2.068-2.626,15.987,15.987,0,0,1,1.334-2.239,11.041,11.041,0,0,0,.69-1.658,35.078,35.078,0,0,1,2.062-3.495Z" transform="translate(-571.985 -649.951)" fill="#444053"/><path d="M931.915,754.907l-3.058,1.508-.407-.483a13.107,13.107,0,0,0,1.471-.753l1.767-.759C931.828,754.737,931.915,754.907,931.915,754.907Z" transform="translate(-789.484 -648.026)" opacity="0.1"/><path d="M929.133,755.427a8.471,8.471,0,0,1-1.723.819c-.358.014.5.976.5.976s.675.933.645,1.392.847,1.564.847,1.564,1.494,2.57,1.392,3.461-.962,3.227,1.076,2.766,4.22-.69,4.177-1.738a10.213,10.213,0,0,0-.922-2.871l-.9-1.844a16.023,16.023,0,0,1-1.306-2.01c-.4-.819-1.649-3.433-1.649-3.433Z" transform="translate(-788.529 -648.102)" fill="#444053"/><path d="M842.211,424.147c1.933-.739,1.52-2.628.615-4.348a5.131,5.131,0,0,1-2.427-1.9c-.581.25-1.108.95-.89,1.526a2.18,2.18,0,0,0,.323.49,3.292,3.292,0,0,1-.27,4.139c-.164.169-.363.349-.361.586,0,.292.307.483.578.581a3.776,3.776,0,0,0,1.106.221C840.735,425.04,841.035,424.6,842.211,424.147Z" transform="translate(-713.949 -363.222)" fill="#e3787d"/><path d="M938.82,630.2a7.98,7.98,0,0,1,2.755.541,2.735,2.735,0,0,1,.957,1.139" transform="translate(-798.26 -542.896)" opacity="0.1"/><g transform="translate(125.234 55.317)" opacity="0.1"><path d="M841.148,423.477a3.3,3.3,0,0,1,.346,3.2,3.318,3.318,0,0,0-.174-3.542,2.082,2.082,0,0,1-.323-.49.857.857,0,0,1,0-.581,1.012,1.012,0,0,0-.172.922A2.123,2.123,0,0,0,841.148,423.477Z" transform="translate(-840.521 -422.06)"/><path d="M840.767,460.3a3.748,3.748,0,0,1-.922-.206c-.274-.1-.576-.29-.578-.582a.388.388,0,0,1,0-.045.6.6,0,0,0-.177.39c0,.292.307.483.578.581a3.775,3.775,0,0,0,1.106.221A.509.509,0,0,1,840.767,460.3Z" transform="translate(-839.09 -453.721)"/><path d="M852.272,452.108c-.922.355-1.308.705-1.352,1.034a2.979,2.979,0,0,1,1.18-.69,1.958,1.958,0,0,0,1.249-1.153A2.136,2.136,0,0,1,852.272,452.108Z" transform="translate(-849.102 -446.806)"/></g><path d="M853.638,401.217c-.692,1.277-2.954,1.88-3.031,1.88a5.072,5.072,0,0,1-1.594-.251,17.807,17.807,0,0,0-2.583-3.75s8.082-3.575,7.163.154A3.759,3.759,0,0,0,853.638,401.217Z" transform="translate(-720.068 -346.001)" opacity="0.1"/><path d="M850.573,369.981a5.111,5.111,0,0,1-4.7,5.094c-.134.011-.272.017-.411.017a5.111,5.111,0,1,1,5.111-5.111Z" transform="translate(-714.923 -318.342)" fill="#efb7b9"/><path d="M858.858,369.995a5.111,5.111,0,0,1-4.7,5.094,7.345,7.345,0,0,1-1.818-2.431,2.317,2.317,0,0,1-.333-1.263c.043-.383.263-.727.329-1.108a2.727,2.727,0,0,0-.53-1.783,6.778,6.778,0,0,0-1.022-1.488c-.227-.211-.438-.421-.642-.641a5.111,5.111,0,0,1,8.718,3.619Z" transform="translate(-723.208 -318.355)" opacity="0.1"/><path d="M845.413,351.243a1.992,1.992,0,0,1-.546-1.122,1.569,1.569,0,0,1,.461-1.051,1.948,1.948,0,0,1,1.076-.656,5.9,5.9,0,0,1,.824-.02,6.3,6.3,0,0,0,1.348-.247,6.781,6.781,0,0,1,4.907.244,6.86,6.86,0,0,1,2.563,3,3.5,3.5,0,0,1,.483,1.5,5.9,5.9,0,0,1-.258,1.4.6.6,0,0,0-.012.286c.066.237.358.307.584.407a1.744,1.744,0,0,1,.874,1,5.127,5.127,0,0,1,.254,1.34,1.845,1.845,0,0,1-.049.856c-.189.481-.722.707-1.188.93a3.78,3.78,0,0,0-1.372,1.013,1.826,1.826,0,0,0-.372,1.614,1.932,1.932,0,0,0,1,1.093,5.961,5.961,0,0,0,1.445.453,1.6,1.6,0,0,1,.615.229,1.059,1.059,0,0,1,.089,1.46,2.193,2.193,0,0,1-1.432.7,5.239,5.239,0,0,1-3.442-.728,2.689,2.689,0,0,1-1.351-1.674,6.239,6.239,0,0,0-.184-1.355c-.244-.544-.858-.788-1.366-1.1a6.639,6.639,0,0,1-2.305-2.779,2.293,2.293,0,0,1-.335-1.263c.043-.383.263-.727.329-1.107a2.717,2.717,0,0,0-.53-1.784,6.766,6.766,0,0,0-1.022-1.489A10.59,10.59,0,0,1,845.413,351.243Z" transform="translate(-718.745 -303.904)" fill="#e3787d"/><g transform="translate(126.138 44.572)" opacity="0.1"><path d="M920.579,417.718a4.947,4.947,0,0,0-.9.544q.189-.106.383-.2a3.674,3.674,0,0,0,.9-.533C920.837,417.6,920.707,417.658,920.579,417.718Z" transform="translate(-908.199 -407.481)"/><path d="M857.319,368.934a5.24,5.24,0,0,1-3.442-.728,2.69,2.69,0,0,1-1.351-1.674,6.147,6.147,0,0,0-.184-1.355c-.243-.544-.858-.788-1.366-1.1a6.639,6.639,0,0,1-2.305-2.779,2.292,2.292,0,0,1-.335-1.263c.043-.383.263-.727.329-1.106a2.717,2.717,0,0,0-.53-1.784,6.566,6.566,0,0,0-1.02-1.489,10.458,10.458,0,0,1-1.076-1.148,1.993,1.993,0,0,1-.546-1.122,1.569,1.569,0,0,1,.461-1.051,2.369,2.369,0,0,1,.2-.2,2.218,2.218,0,0,0-.713.539,1.542,1.542,0,0,0-.461,1.051,2.005,2.005,0,0,0,.547,1.122A10.178,10.178,0,0,0,846.6,356a6.513,6.513,0,0,1,1.02,1.489,2.718,2.718,0,0,1,.532,1.784c-.066.38-.286.724-.329,1.106a2.292,2.292,0,0,0,.335,1.263,6.639,6.639,0,0,0,2.305,2.779c.507.307,1.122.556,1.365,1.1a5.883,5.883,0,0,1,.184,1.355,2.694,2.694,0,0,0,1.351,1.674,5.242,5.242,0,0,0,3.442.728,2.331,2.331,0,0,0,1.312-.564A3.019,3.019,0,0,1,857.319,368.934Z" transform="translate(-844.975 -352.14)"/></g></g></g></svg>