<svg xmlns="http://www.w3.org/2000/svg" width="9.651" height="6.2" viewBox="0 0 9.651 6.2"><path d="M8.463.192,8.049.661,7.059,1.783l-1.2,1.356L4.826,4.31c-.167.19-.338.377-.5.57l-.007.008h.817l-.414-.469L3.729,3.3l-1.2-1.356L1.5.77C1.329.58,1.162.388.993.2L.986.192A.562.562,0,0,0,.578,0,.552.552,0,0,0,.17.192.7.7,0,0,0,0,.654a.729.729,0,0,0,.169.462l.414.469.991,1.122,1.2,1.356L3.807,5.235c.168.19.334.382.5.57l.007.008a.539.539,0,0,0,.817,0l.414-.469.991-1.122,1.2-1.356L8.771,1.694c.167-.19.337-.378.5-.57l.007-.008A.721.721,0,0,0,9.451.654.709.709,0,0,0,9.281.192.548.548,0,0,0,8.873,0a.571.571,0,0,0-.41.192Z" transform="translate(0.1 0.1)" fill="#3a466b" stroke="#3a466b" stroke-width="0.2"/></svg>