<svg xmlns="http://www.w3.org/2000/svg" width="32" height="32" viewBox="0 0 32 32"><g transform="translate(-208 -448)"><path d="M16,0A16,16,0,1,1,0,16,16,16,0,0,1,16,0Z" transform="translate(208 448)" fill="#28b53f"/><g transform="translate(211 454)"><path d="M20.5,10.473A10.274,10.274,0,0,1,10.436,20.946a9.714,9.714,0,0,1-4.865-1.3L0,21.5l1.817-5.619A10.744,10.744,0,0,1,.372,10.473,10.275,10.275,0,0,1,10.436,0,10.274,10.274,0,0,1,20.5,10.473ZM10.436,1.668a8.648,8.648,0,0,0-8.461,8.805,9,9,0,0,0,1.612,5.162L2.53,18.906l3.252-1.084a8.177,8.177,0,0,0,4.655,1.457,8.648,8.648,0,0,0,8.461-8.8A8.649,8.649,0,0,0,10.436,1.668Zm5.082,11.217c-.062-.107-.226-.171-.473-.3s-1.46-.75-1.686-.835-.391-.129-.555.128-.637.835-.781,1.006-.288.193-.535.065a6.69,6.69,0,0,1-1.984-1.274A7.694,7.694,0,0,1,8.133,9.9a.383.383,0,0,1,.108-.523c.111-.115.247-.3.37-.45A1.739,1.739,0,0,0,8.858,8.5a.488.488,0,0,0-.02-.45c-.062-.128-.555-1.392-.761-1.906s-.411-.428-.555-.428-.308-.022-.473-.022a.892.892,0,0,0-.658.321,2.93,2.93,0,0,0-.863,2.141,5.094,5.094,0,0,0,1.007,2.655,10.291,10.291,0,0,0,4.214,3.875c2.508,1.027,2.508.685,2.96.642a2.5,2.5,0,0,0,1.666-1.22A2.237,2.237,0,0,0,15.518,12.885Z" transform="translate(3 -1)" fill="#fff"/></g></g></svg>